<svg width="653" height="167" viewBox="0 0 653 167" fill="none" xmlns="http://www.w3.org/2000/svg">
<path d="M0 0H68.8515V23.8571H26.0263V70.3786H59.6239V94.2357H26.0263V167H0V0Z" fill="#989898"/>
<path d="M93.8186 0H129.072L156.045 167H130.019L125.287 133.839V134.316H95.7114L90.9794 167H66.8459L93.8186 0ZM122.211 111.651L110.617 29.1057H110.144L98.7873 111.651H122.211Z" fill="#989898"/>
<path d="M168.672 0H207.238C220.646 0 230.425 3.18095 236.577 9.54286C242.729 15.7457 245.805 25.3681 245.805 38.41V48.6686C245.805 66.0048 240.126 76.9791 228.769 81.5914V82.0686C235.079 83.9771 239.495 87.8738 242.019 93.7586C244.7 99.6433 246.041 107.516 246.041 117.377V146.721C246.041 151.493 246.199 155.39 246.514 158.411C246.83 161.274 247.619 164.137 248.88 167H222.381C221.434 164.296 220.804 161.751 220.488 159.366C220.173 156.98 220.015 152.686 220.015 146.483V115.946C220.015 108.311 218.753 102.983 216.229 99.9614C213.863 96.9395 209.683 95.4286 203.689 95.4286H194.698V167H168.672V0ZM204.162 71.5714C209.368 71.5714 213.232 70.2195 215.756 67.5157C218.437 64.8119 219.778 60.2791 219.778 53.9171V41.0343C219.778 34.9905 218.674 30.6167 216.466 27.9129C214.415 25.2091 211.103 23.8571 206.528 23.8571H194.698V71.5714H204.162Z" fill="#989898"/>
<path d="M264.099 0H301.245L317.808 119.524H318.281L334.843 0H371.99V167H347.383V40.5571H346.91L327.982 167H306.214L287.286 40.5571H286.813V167H264.099V0Z" fill="#989898"/>
<path d="M391.411 0H462.392V23.8571H417.438V67.9929H453.165V91.85H417.438V143.143H462.392V167H391.411V0Z" fill="#989898"/>
<path d="M477.365 0H515.931C529.339 0 539.118 3.18095 545.27 9.54286C551.422 15.7457 554.497 25.3681 554.497 38.41V48.6686C554.497 66.0048 548.819 76.9791 537.462 81.5914V82.0686C543.771 83.9771 548.188 87.8738 550.712 93.7586C553.393 99.6433 554.734 107.516 554.734 117.377V146.721C554.734 151.493 554.892 155.39 555.207 158.411C555.523 161.274 556.311 164.137 557.573 167H531.074C530.127 164.296 529.496 161.751 529.181 159.366C528.865 156.98 528.708 152.686 528.708 146.483V115.946C528.708 108.311 527.446 102.983 524.922 99.9614C522.556 96.9395 518.376 95.4286 512.382 95.4286H503.391V167H477.365V0ZM512.855 71.5714C518.061 71.5714 521.925 70.2195 524.449 67.5157C527.13 64.8119 528.471 60.2791 528.471 53.9171V41.0343C528.471 34.9905 527.367 30.6167 525.159 27.9129C523.108 25.2091 519.796 23.8571 515.221 23.8571H503.391V71.5714H512.855Z" fill="#989898"/>
<path d="M572.792 0H611.358C624.765 0 634.545 3.18095 640.697 9.54286C646.848 15.7457 649.924 25.3681 649.924 38.41V48.6686C649.924 66.0048 644.246 76.9791 632.889 81.5914V82.0686C639.198 83.9771 643.615 87.8738 646.138 93.7586C648.82 99.6433 650.161 107.516 650.161 117.377V146.721C650.161 151.493 650.319 155.39 650.634 158.411C650.949 161.274 651.738 164.137 653 167H626.5C625.554 164.296 624.923 161.751 624.608 159.366C624.292 156.98 624.134 152.686 624.134 146.483V115.946C624.134 108.311 622.873 102.983 620.349 99.9614C617.983 96.9395 613.803 95.4286 607.809 95.4286H598.818V167H572.792V0ZM608.282 71.5714C613.487 71.5714 617.352 70.2195 619.876 67.5157C622.557 64.8119 623.898 60.2791 623.898 53.9171V41.0343C623.898 34.9905 622.794 30.6167 620.585 27.9129C618.535 25.2091 615.222 23.8571 610.648 23.8571H598.818V71.5714H608.282Z" fill="#989898"/>
</svg>
