<svg width="413" height="168" viewBox="0 0 413 168" fill="none" xmlns="http://www.w3.org/2000/svg">
<path d="M209.779 35.8733C214.476 28.7288 222.537 23.6007 231.209 23.979C243.108 24.4983 251.446 34.6722 262.771 36.071C263.283 36.1351 263.278 35.3326 262.771 35.2696C256.441 34.4874 250.814 30.0602 245.194 27.329C239.629 24.6233 233.337 22.6614 227.106 23.2897C219.881 24.0185 212.982 29.5463 209.088 35.4672C208.803 35.9021 209.497 36.3039 209.779 35.8733Z" fill="#838383"/>
<path d="M259.663 21.8971C254.826 26.3232 246.018 25.8701 240.108 25.2471C239.594 25.1926 239.599 25.9951 240.108 26.0485C246.224 26.6929 255.229 27.0402 260.229 22.4635C260.612 22.114 260.043 21.5488 259.663 21.8971Z" fill="#838383"/>
<path d="M243.078 13.4013C240.209 19.2336 232.938 22.1529 227.01 23.3102C226.502 23.4096 226.718 24.1822 227.222 24.0839C233.341 22.8892 240.813 19.8138 243.769 13.8063C243.997 13.3436 243.305 12.9375 243.078 13.4013Z" fill="#838383"/>
<path d="M235.617 35.4693C231.708 29.0023 223.216 27.268 216.289 28.0662C215.781 28.125 215.776 28.9264 216.289 28.8677C222.925 28.1026 231.163 29.6498 234.926 35.8743C235.192 36.3167 235.885 35.9128 235.617 35.4693Z" fill="#838383"/>
<path d="M220.539 25.7744C220.539 25.7744 218.339 17.1606 227.116 14.4411C227.116 14.4411 229.027 21.0032 220.539 25.7744Z" fill="#838383"/>
<path d="M212.674 31.4817C212.674 31.4817 221.535 30.7486 222.755 39.855C222.755 39.855 215.964 40.6468 212.674 31.4817Z" fill="#838383"/>
<path d="M244.146 27.0316C244.146 27.0316 252.571 29.8676 250.084 38.7154C250.084 38.7154 243.534 36.7514 244.146 27.0316Z" fill="#838383"/>
<path d="M248.026 13.5C248.026 15.9833 246.012 17.9966 243.528 17.9966C241.045 17.9966 239.031 15.9833 239.031 13.5C239.031 11.0155 241.045 9.00234 243.528 9.00234C246.014 9.00234 248.026 11.0155 248.026 13.5Z" fill="#838383"/>
<path d="M263.187 22.181C263.187 23.9677 261.74 25.4167 259.95 25.4167C258.163 25.4167 256.714 23.9677 256.714 22.181C256.714 20.3922 258.163 18.9432 259.95 18.9432C261.738 18.9432 263.187 20.3922 263.187 22.181Z" fill="#838383"/>
<path d="M267.267 35.6704C267.267 38.1527 265.255 40.167 262.77 40.167C260.287 40.167 258.273 38.1527 258.273 35.6704C258.273 33.186 260.287 31.1728 262.77 31.1728C265.255 31.1728 267.267 33.186 267.267 35.6704Z" fill="#838383"/>
<path d="M240.601 37.392C240.601 39.8743 238.587 41.8886 236.102 41.8886C233.62 41.8886 231.605 39.8743 231.605 37.392C231.605 34.9086 233.62 32.8944 236.102 32.8944C238.587 32.8944 240.601 34.9086 240.601 37.392Z" fill="#838383"/>
<path d="M203.502 35.468C199.452 29.3066 192.881 24.5504 185.59 23.3044C179.93 22.3363 173.882 24.529 168.765 26.7047C162.512 29.3622 156.707 34.4198 149.82 35.2704C149.313 35.3334 149.308 36.1359 149.82 36.0718C153.682 35.5952 157.028 33.7797 160.398 31.9321C166.162 28.7713 171.843 25.8904 178.31 24.4435C187.979 22.2807 197.562 27.8908 202.809 35.873C203.093 36.3037 203.786 35.9019 203.502 35.468Z" fill="#838383"/>
<path d="M152.361 22.4635C157.362 27.0402 166.368 26.6929 172.485 26.0485C172.993 25.9951 172.999 25.1926 172.485 25.2471C166.573 25.8701 157.765 26.3232 152.929 21.8971C152.548 21.5488 151.98 22.114 152.361 22.4635Z" fill="#838383"/>
<path d="M168.822 13.8063C171.779 19.8128 179.251 22.8881 185.369 24.0839C185.874 24.1822 186.09 23.4096 185.582 23.3102C179.655 22.1529 172.384 19.2325 169.514 13.4013C169.286 12.9375 168.595 13.3436 168.822 13.8063Z" fill="#838383"/>
<path d="M177.667 35.8744C181.428 29.6499 189.668 28.1026 196.304 28.8677C196.817 28.9265 196.812 28.1251 196.304 28.0663C189.376 27.2681 180.883 29.0013 176.976 35.4694C176.707 35.9128 177.401 36.3168 177.667 35.8744Z" fill="#838383"/>
<path d="M192.053 25.7744C192.053 25.7744 194.253 17.1606 185.475 14.4411C185.475 14.4411 183.563 21.0032 192.053 25.7744Z" fill="#838383"/>
<path d="M199.917 31.4817C199.917 31.4817 191.056 30.7486 189.836 39.855C189.836 39.855 196.628 40.6468 199.917 31.4817Z" fill="#838383"/>
<path d="M168.446 27.0316C168.446 27.0316 160.021 29.8676 162.509 38.7154C162.509 38.7154 169.057 36.7514 168.446 27.0316Z" fill="#838383"/>
<path d="M164.567 13.5C164.567 15.9833 166.58 17.9966 169.064 17.9966C171.548 17.9966 173.561 15.9833 173.561 13.5C173.561 11.0155 171.548 9.00234 169.064 9.00234C166.58 9.00234 164.567 11.0155 164.567 13.5Z" fill="#838383"/>
<path d="M149.404 22.181C149.404 23.9677 150.853 25.4167 152.642 25.4167C154.428 25.4167 155.878 23.9677 155.878 22.181C155.878 20.3922 154.428 18.9432 152.642 18.9432C150.854 18.9432 149.404 20.3922 149.404 22.181Z" fill="#838383"/>
<path d="M145.322 35.6704C145.322 38.1527 147.335 40.167 149.821 40.167C152.303 40.167 154.318 38.1527 154.318 35.6704C154.318 33.186 152.303 31.1728 149.821 31.1728C147.335 31.1728 145.322 33.186 145.322 35.6704Z" fill="#838383"/>
<path d="M171.99 37.392C171.99 39.8743 174.002 41.8886 176.488 41.8886C178.97 41.8886 180.984 39.8743 180.984 37.392C180.984 34.9086 178.97 32.8944 176.488 32.8944C174.002 32.8944 171.99 34.9086 171.99 37.392Z" fill="#838383"/>
<path d="M200.121 1.63976H196.741V10.2884H194.985V1.63976H191.62V0H200.121V1.63976Z" fill="#838383"/>
<path d="M211.13 10.2884H209.36V5.89152H204.488V10.2884H202.732V0H204.488V4.25176H209.36V0H211.13V10.2884Z" fill="#838383"/>
<path d="M221.199 10.2884H214.79V0H221.199V1.62525H216.546V4.35334H220.76V5.93505H216.546V8.66314H221.199V10.2884Z" fill="#838383"/>
<path d="M100.549 166.882C103.505 165.831 104.561 164.01 104.561 154.133V130.596C104.561 120.859 103.575 118.757 100.69 117.917H116.667C133.137 117.847 141.301 130.035 141.301 142.294C141.301 154.553 133.066 166.882 116.667 166.882H100.549ZM116.385 118.617C116.174 118.617 115.893 118.617 115.752 118.617H113.711C110.543 118.687 109.699 119.388 109.558 125.132V159.667C109.769 165.201 110.825 166.041 113.007 166.181H116.385C129.477 166.181 135.952 154.273 135.952 142.364C135.952 130.526 129.477 118.617 116.385 118.617Z" fill="#838383"/>
<path d="M164.023 142.529C164.023 130.27 155.858 118.082 139.388 118.152L136.432 118.852H139.107C152.198 118.852 158.673 130.761 158.673 142.599C158.673 154.508 152.198 166.416 139.107 166.416H135.728L139.388 167.117C155.788 167.117 164.023 154.788 164.023 142.529Z" fill="#838383"/>
<path d="M33.0806 117.612H33.8548L45.6794 157.47L53.7736 132.743C54.9701 129.17 55.4628 126.438 55.4628 124.337C55.4628 119.573 52.9993 118.102 50.6767 117.682H62.5716C61.0231 118.453 59.1932 118.242 54.8294 131.762L43.5679 166.647H43.4975L31.1802 125.878L18.0888 166.647H17.948L6.26419 127.979C4.4342 122.095 2.53383 118.943 0 117.682H11.8949C10.4873 118.312 9.92419 119.433 9.92419 120.974C9.92419 122.726 10.628 125.107 11.543 128.119L20.2707 157.47L33.0806 117.612Z" fill="#838383"/>
<path d="M64.8497 117.612L77.8709 117.682H77.6597H90.4696L93.285 128.75H92.8627C90.3289 121.184 84.3462 118.312 75.8297 118.382H73.8589V141.849H82.0939C85.8243 141.849 87.795 136.035 87.795 133.583H88.0062V150.746H87.795C87.795 147.804 86.3169 142.55 82.0939 142.55H73.8589V165.947H75.8297C85.1204 166.087 93.285 160.833 95.8188 153.267H96.2412L92.1589 166.647H64.9905C67.8763 165.806 68.8617 163.635 68.8617 153.968V130.431C68.8617 120.484 67.8059 118.663 64.8497 117.612Z" fill="#838383"/>
<path d="M182.964 166.647H169.943C172.9 165.596 174.026 163.775 174.026 153.898V130.361C174.026 120.624 173.04 118.523 170.155 117.612H182.824C179.938 118.523 178.953 120.624 178.953 130.361V153.898C178.953 163.775 180.008 165.596 182.964 166.647Z" fill="#838383"/>
<path d="M218.532 128.82V166.647H217.828L192.067 123.006L191.997 155.439C191.997 163.004 196.361 165.876 199.88 166.647H188.196C190.167 165.947 191.363 160.062 191.363 155.439V126.018C191.223 122.375 189.744 118.453 186.648 117.682H194.742L217.828 156.77V128.82C217.828 121.184 213.464 118.382 209.945 117.612H221.699C219.658 118.312 218.532 124.197 218.532 128.82Z" fill="#838383"/>
<path d="M249.497 117.122C257.521 117.122 262.729 121.605 262.729 125.738C262.729 127.909 261.392 129.03 259.914 129.03C258.084 129.03 256.043 127.349 256.043 123.916C256.043 120.834 255.55 117.892 249.497 117.892C237.743 117.892 231.408 129.52 231.408 141.149C231.408 152.567 237.602 163.915 250.764 163.915C254.776 163.915 258.084 162.514 260.477 160.623V151.376C260.477 142.97 259.421 140.658 256.465 140.168H269.556C266.741 140.658 265.404 142.41 265.404 151.376V166.647L260.618 162.164C257.45 165.246 253.579 167.277 248.793 167.277C233.801 167.277 225.988 154.598 225.988 141.989C225.988 129.52 233.66 117.122 249.497 117.122Z" fill="#838383"/>
<path d="M306.473 167.277H293.348C296.328 166.213 297.392 164.44 297.392 154.366V130.53C297.392 120.669 296.399 118.54 293.49 117.689H307.112H306.828H319.952L322.79 128.969H322.364C319.81 121.236 313.78 118.328 305.196 118.399L302.429 118.469V144.576H311.51C315.27 144.576 317.256 138.688 317.256 136.205H317.469V153.515L317.256 153.586C317.256 150.606 315.767 145.285 311.51 145.285H302.429V154.366C302.429 164.369 303.493 166.213 306.473 167.277Z" fill="#838383"/>
<path d="M318.255 167.277C319.815 166.497 321.589 166.639 326.059 153.018L337.906 117.122H338.048L351.102 156.849C353.017 162.737 354.862 166.001 357.416 167.277H345.355C346.845 166.568 347.413 165.433 347.413 163.872C347.413 162.028 346.703 159.687 345.781 156.707L344.859 153.869H326.697C325.846 156.778 325.491 159.048 325.491 160.822C325.491 165.575 327.974 166.852 330.244 167.277H318.255ZM326.91 153.16H344.646L335.778 125.493L327.265 152.025C327.123 152.38 326.981 152.805 326.91 153.16Z" fill="#838383"/>
<path d="M372.773 167.277H359.649C362.628 166.213 363.764 164.369 363.764 154.366V130.53C363.764 120.669 362.77 118.54 359.862 117.618H372.632C369.723 118.54 368.73 120.669 368.73 130.53V154.366C368.73 164.369 369.794 166.213 372.773 167.277Z" fill="#838383"/>
<path d="M389.61 167.277H376.486C379.465 166.213 380.53 164.44 380.53 154.366V130.53C380.53 120.669 379.536 118.54 376.628 117.689H389.468H389.398C398.266 117.973 402.735 124.216 402.735 130.53C402.735 138.262 398.691 141.951 393.37 143.37L402.522 156.849C405.998 161.957 409.333 166.213 412.951 167.277H397.769C399.897 166.994 400.678 166.142 400.678 164.865C400.678 163.021 398.833 160.183 396.847 157.133L388.262 144.009C387.837 144.079 387.482 144.079 387.127 144.079H385.567V154.366C385.567 164.369 386.631 166.213 389.61 167.277ZM385.567 118.399V143.37H387.624C394.222 143.37 397.343 136.843 397.343 130.813C397.343 124.641 394.009 118.399 387.624 118.399H385.567Z" fill="#838383"/>
<path d="M108.906 55.3C116.887 55.3 122.068 59.7833 122.068 63.9162C122.068 66.0878 120.738 67.2086 119.268 67.2086C117.447 67.2086 115.417 65.5274 115.417 62.0949C115.417 59.0127 114.927 56.0706 108.906 56.0706C97.2137 56.0706 90.9125 67.6989 90.9125 79.3272C90.9125 90.7454 97.0737 102.094 110.166 102.094C114.157 102.094 117.447 100.693 119.828 98.8012V89.5546C119.828 81.1485 118.778 78.8369 115.837 78.3465H128.86C126.059 78.8369 124.729 80.5881 124.729 89.5546V104.825L119.968 100.342C116.817 103.424 112.967 105.456 108.206 105.456C93.2929 105.456 85.5215 92.7769 85.5215 80.1678C85.5215 67.6989 93.1529 55.3 108.906 55.3Z" fill="#838383"/>
<path d="M155.648 105.316C141.995 105.316 132.614 94.8083 132.614 80.3079C132.614 65.8076 141.995 55.3 155.648 55.3C169.23 55.3 178.682 65.8076 178.682 80.3079C178.682 94.8083 169.23 105.316 155.648 105.316ZM155.648 104.405C165.94 104.405 173.081 94.2479 173.081 80.3079C173.081 66.368 165.94 56.2808 155.648 56.2808C145.286 56.2808 138.215 66.368 138.215 80.3079C138.215 94.2479 145.286 104.405 155.648 104.405Z" fill="#838383"/>
<path d="M183.006 104.615L183.566 104.545C185.946 103.495 186.716 100.973 186.716 92.1464V68.6096C186.716 58.6625 185.666 56.8411 182.725 55.8604H195.678C192.737 56.8411 191.687 58.6625 191.687 68.6096V104.125H194.628C203.099 104.195 209.05 99.8519 211.781 91.4459H212.201L208.07 104.825H182.305C182.375 104.825 182.515 104.755 182.585 104.755L183.006 104.615Z" fill="#838383"/>
<path d="M214.787 104.825C217.728 103.775 218.778 101.953 218.778 92.0764V68.5395C218.778 58.8026 217.798 56.701 214.927 55.8604H230.82C247.203 55.7904 255.325 67.9791 255.325 80.2379C255.325 92.4967 247.133 104.825 230.82 104.825H214.787ZM230.54 56.561C230.33 56.561 230.05 56.561 229.91 56.561H227.88C224.729 56.631 223.889 57.3315 223.749 63.0756V97.6103C223.959 103.144 225.009 103.985 227.179 104.125H230.54C243.563 104.125 250.004 92.2165 250.004 80.3079C250.004 68.4695 243.563 56.561 230.54 56.561Z" fill="#838383"/>
<path d="M259.231 55.7904L272.183 55.8604H271.973H284.716L287.516 66.9284H287.096C284.576 59.363 278.624 56.4909 270.153 56.561H268.192V80.0277H276.384C280.095 80.0277 282.055 74.2136 282.055 71.7618H282.265V88.9241H282.055C282.055 85.982 280.585 80.7282 276.384 80.7282H268.192V104.125H270.153C279.395 104.265 287.516 99.0113 290.037 91.4459H290.457L286.396 104.825H259.371C262.241 103.985 263.222 101.813 263.222 92.1464V68.6096C263.222 58.6625 262.171 56.8411 259.231 55.7904Z" fill="#838383"/>
<path d="M324.791 66.9984V104.825H324.091L298.466 61.1843L298.396 93.6175C298.396 101.183 302.737 104.055 306.238 104.825H294.615C296.576 104.125 297.766 98.2408 297.766 93.6175V64.1964C297.626 60.5538 296.156 56.631 293.075 55.8604H301.127L324.091 94.9484V66.9984C324.091 59.363 319.75 56.561 316.249 55.7904H327.942C325.911 56.4909 324.791 62.3751 324.791 66.9984Z" fill="#838383"/>
</svg>
