<svg width="535" height="202" viewBox="0 0 535 202" fill="none" xmlns="http://www.w3.org/2000/svg">
<g clip-path="url(#clip0_1622_2267)">
<path d="M280.712 0.0587344C277.832 0.411402 275.96 1.03837 274.54 2.13555C273.364 3.04661 272.826 3.98706 272.669 5.36834C272.62 5.83856 272.306 12.8723 271.983 21.013C271.532 32.5629 271.317 37.0104 271.013 41.2914C269.798 58.4937 269.348 68.0941 269.348 76.5582C269.348 83.3372 269.632 86.9324 270.327 88.784C270.641 89.6264 270.896 89.793 272.022 89.8713C272.541 89.9007 273.923 90.0575 275.098 90.224C276.274 90.3808 277.792 90.5571 278.478 90.6257C280.104 90.7726 282.897 90.6942 283.7 90.4787C286.032 89.8322 287.168 88.4607 287.335 86.0802C287.364 85.6393 287.648 78.684 287.971 70.6314C288.402 59.7183 288.647 54.536 288.941 50.304C289.157 47.179 289.441 42.8392 289.568 40.6547C290.989 17.7215 290.94 5.22139 289.421 2.23352C289.069 1.54777 286.933 0.597532 284.954 0.244864C284.111 0.0881234 281.398 -0.0196361 280.712 0.0587344Z" fill="#838383"/>
<path d="M226.488 1.67537C223.304 1.82232 219.385 2.06722 216.201 2.31213C204.592 3.21339 204.661 3.2036 204.063 3.42891C202.408 4.05588 202.016 5.3098 202.378 8.92464C202.555 10.7761 202.623 12.0301 203.025 21.0133C203.76 37.4613 204.367 48.5311 205.082 58.4842C206.601 79.5659 208.364 90.959 210.314 92.2325C210.539 92.3794 211.009 92.3892 215.241 92.3501C218.984 92.3207 220.12 92.2815 220.904 92.1443C223.49 91.7231 224.95 91.0178 225.626 89.8618C225.822 89.5287 225.89 89.2544 225.92 88.7156C225.959 88.1278 225.401 79.752 224.039 60.1496C223.716 55.5159 223.716 55.6041 224.117 55.2024C224.607 54.7126 225.361 54.5167 226.782 54.5167C228.398 54.5167 228.487 54.5559 228.937 55.6237C229.143 56.0939 230.995 60.3357 233.052 65.0477C237.833 75.9706 237.735 75.7355 238.685 78.5177C241.075 85.5122 242.809 88.7058 244.72 89.6463L245.357 89.9598L249.001 89.901C252.91 89.8422 254.615 89.7344 256.721 89.4308C259.65 89.0193 261.502 88.2748 261.943 87.3441C262.295 86.6094 262.266 86.5408 259.738 81.1235C257.299 75.9118 246.846 53.6938 245.709 51.3133L245.072 49.9712L246.111 49.1973C253.488 43.7016 256.642 33.8857 254.654 22.6297C254.203 20.1022 253.243 16.8695 252.371 14.9298C250.226 10.1786 246.787 6.6519 242.065 4.35956C238.803 2.77256 235.295 1.91048 231.083 1.66557C229.261 1.55782 229.035 1.55782 226.488 1.67537ZM228.908 17.4474C233.316 17.9275 235.687 20.0141 236.52 24.1677C237 26.5384 237.186 30.212 236.931 32.0146C236.285 36.4523 233.757 38.8622 228.976 39.5773C228.575 39.6361 227.438 39.7047 226.439 39.7438C223.794 39.8222 223.108 39.6263 222.628 38.6565C222.403 38.2156 222.383 38.0001 222.305 36.1584C222.256 35.0514 221.972 30.4667 221.678 25.9702C221.266 19.8181 221.159 17.7903 221.247 17.7315C221.306 17.6923 222.158 17.614 223.138 17.5454C224.117 17.4768 225.009 17.4083 225.116 17.3985C225.636 17.3201 228.016 17.3495 228.908 17.4474Z" fill="#838383"/>
<path d="M327.834 3.87935C327.647 3.89894 327.069 3.96751 326.56 4.02629C321.769 4.56509 316.949 6.56354 313.178 9.57101C308.514 13.3034 305.35 18.7502 304.331 24.8533C303.136 31.9752 304.155 38.2154 307.29 42.9862C308.142 44.2793 308.916 45.2198 310.121 46.4052C312.629 48.8934 314.294 49.9122 320.192 52.5768C324.836 54.683 327.128 55.937 328.872 57.3574C331.115 59.1697 331.899 60.8155 332.017 63.9699C332.222 69.5049 329.871 75.1769 326.707 76.8129C325.659 77.3615 325.218 77.4301 323.19 77.3615C320.682 77.2733 319.291 76.9599 318.145 76.2153C317.41 75.7353 316.92 75.0888 316.646 74.2169C316.42 73.4626 316.401 72.9532 316.459 69.3579C316.499 67.0558 316.401 66.3602 315.842 65.1749C315.392 64.2344 314.863 63.6761 313.991 63.2548C312.266 62.4025 309.729 62.0009 304.125 61.6678C302.695 61.5796 301.226 61.4719 300.843 61.4229C300.118 61.3347 299.413 61.4229 298.962 61.658C298.571 61.8637 298.012 62.4809 297.757 62.9707C296.778 64.93 296.797 69.1914 297.816 74.2561C298.384 77.1068 299.07 79.5167 299.648 80.6727C300.403 82.2009 301.804 84.072 303.44 85.7569C307.789 90.2241 313.736 92.9866 320.476 93.6528C321.779 93.7801 324.875 93.7801 326.178 93.6528C333.545 92.9181 340.07 89.4404 343.988 84.1504C346.006 81.427 347.26 78.5665 348.397 74.021C350.778 64.6067 350.17 56.7305 346.663 51.3327C344.939 48.6681 342.284 46.3464 338.61 44.2598C337.993 43.9071 335.808 42.7805 333.761 41.7519C330.028 39.8906 329.136 39.4106 327.06 38.1469C324.013 36.3051 322.269 33.425 321.857 29.5653C321.466 25.8623 323.033 22.316 325.668 20.9249C326.766 20.3567 327.687 20.1412 329.107 20.1412C332.869 20.151 335.23 21.7968 335.965 24.9022C336.2 25.8917 336.357 27.5179 336.357 28.8991C336.357 31.358 336.67 32.9548 337.297 33.6797C337.758 34.2185 338.022 34.3459 339.119 34.5712C339.619 34.679 341.177 35.0512 342.578 35.4039C347.016 36.5109 348.887 36.8342 350.787 36.8342C352.58 36.8342 353.472 36.5109 354.275 35.59C354.765 35.0414 355.402 33.7875 355.607 32.9646C356.479 29.5261 355.539 23.8736 353.188 18.3779C352.492 16.7517 352.286 16.3305 351.512 14.9884C350.797 13.7442 350.386 13.2446 348.799 11.6576C344.596 7.4648 339.599 4.96674 333.565 4.05568C332.634 3.91853 328.598 3.79118 327.834 3.87935Z" fill="#838383"/>
<path d="M158.693 12.2456C144.399 15.7135 139.697 16.8205 138.071 17.0948C134.426 17.7021 132.663 18.2801 131.644 19.2206C130.801 19.9945 130.674 20.6214 131.017 22.3162C131.115 22.8452 131.321 23.9914 131.458 24.8828C132.144 29.3499 132.741 31.1917 133.907 32.377C134.456 32.9452 134.847 33.1803 135.572 33.3664C136.689 33.6701 137.453 33.5428 140.726 32.4848C144.605 31.2406 146.702 30.7606 148.151 30.7606C148.925 30.7606 149.543 30.9565 149.817 31.2798C149.885 31.368 150.277 32.7982 150.679 34.4538C151.071 36.1192 154.549 50.4708 158.399 66.3702C162.239 82.2598 165.482 95.8375 165.599 96.5429C166.138 99.8932 166.991 101.676 168.166 101.96C168.734 102.097 170.625 102.029 171.82 101.843C177.434 100.922 183.018 98.7666 183.978 97.1306C184.194 96.7584 184.233 96.5527 184.282 95.4947C184.321 94.4954 184.292 94.1134 184.115 93.2709C183.919 92.3109 183.175 89.9303 182.117 86.9131C181.784 85.953 179.736 77.6752 174.515 56.1037C170.586 39.8712 167.363 26.509 167.343 26.4013C167.294 26.0976 168.117 25.8723 172.516 24.9808C178.169 23.8346 180.275 23.2762 181.529 22.5905C181.999 22.3358 182.156 22.1888 182.352 21.7872C182.577 21.3366 182.597 21.2092 182.587 19.8867C182.577 15.5861 180.5 9.39485 178.619 8.03316C178.286 7.79805 178.12 7.73928 177.708 7.74907C177.405 7.74907 169.832 9.5418 158.693 12.2456Z" fill="#838383"/>
<path d="M380.589 15.0865C380.001 15.2335 379.747 15.3804 379.335 15.8017C378.189 16.9968 377.258 19.4361 376.239 23.9032C375.965 25.118 375.583 26.7442 375.397 27.5279C375.211 28.341 371.184 41.086 365.992 57.3087C358.537 80.6337 356.754 86.1 355.96 88.1181C354.295 92.3305 353.677 94.5542 353.668 96.4057C353.658 97.3168 353.687 97.5029 353.903 97.9144C354.03 98.1789 354.246 98.4728 354.383 98.5707C354.52 98.6687 359.173 100.197 364.718 101.98C370.273 103.753 375.211 105.36 375.691 105.555C376.181 105.751 377.758 106.427 379.208 107.045C387.084 110.414 391.023 111.61 393.785 111.463C394.853 111.404 395.48 111.179 396.048 110.62C397.253 109.464 398.556 106.614 399.183 103.743C400.094 99.6385 399.595 96.5919 397.861 95.7004C397.361 95.4457 395.911 95.0832 392.051 94.2408C381.089 91.8603 376.563 90.3712 374.995 88.6373C374.642 88.2356 374.633 88.2258 374.691 87.5891C374.927 84.9343 379.218 71.5427 380.57 69.2308C380.942 68.6038 381.461 68.4373 382.882 68.496C384.821 68.594 386.408 69.2406 391.846 72.1795C395.715 74.2661 397.753 75.1379 399.448 75.4416C400.339 75.5984 402.211 75.4808 402.691 75.2359C404.239 74.4424 406.257 70.4357 407.05 66.5662C407.256 65.5865 407.315 64.989 407.324 63.9701C407.334 62.3635 407.178 61.7268 406.619 61.139C406.306 60.8059 406.09 60.708 404.983 60.3651C404.287 60.1496 402.122 59.4736 400.183 58.8761C391.679 56.2311 386.075 54.262 385.791 53.7918C385.723 53.684 388.054 46.2192 389.739 41.1447C390.974 37.4221 391.797 35.1788 392.042 34.8555C392.149 34.6988 393.139 35.0024 403.945 38.4507C410.43 40.5276 415.887 42.2223 416.073 42.2223C417.356 42.2223 418.796 40.5276 420.011 37.5691C421.069 34.9926 421.628 32.3672 421.569 30.2218C421.54 29.0561 421.52 28.8993 421.265 28.3801C421.109 28.0765 420.952 27.8218 420.913 27.8218C420.873 27.8218 420.589 27.6062 420.286 27.3417C419.11 26.3033 417.464 25.4706 414.976 24.6477C412.399 23.7857 410.626 23.3448 402.142 21.4933C399.223 20.8468 398.292 20.5431 394.981 19.1422C388.926 16.5854 386.007 15.5666 383.538 15.1355C382.637 14.9788 381.099 14.9494 380.589 15.0865Z" fill="#838383"/>
<path d="M104.224 28.7915C100.55 30.0552 99.3747 30.5156 97.8758 31.2602C95.9165 32.2398 94.5939 33.288 94.0747 34.297C93.9081 34.6203 93.8591 34.8848 93.8591 35.3648C93.8689 35.982 94.1236 36.6187 104.195 60.3944C113.198 81.6328 114.726 85.1791 116.049 87.8241C118.135 92.0169 118.87 93.8096 119.409 96.0432C119.928 98.1592 119.821 99.4817 119.007 100.99C118.077 102.724 117.009 103.89 115.833 104.448C113.247 105.693 109.945 103.792 106.977 99.3445C106.575 98.7568 106.017 97.7967 105.713 97.2089C105.419 96.631 100.276 84.5521 94.2804 70.3866C88.2848 56.2114 83.2101 44.2697 82.9945 43.8386C81.525 40.9095 80.0359 39.9397 77.7141 40.4099C76.7442 40.6058 75.8527 40.9291 73.8052 41.8598C72.9724 42.232 71.5029 42.8884 70.5428 43.3096C67.692 44.5538 66.4478 45.406 65.9286 46.4542C65.5759 47.1596 65.5759 48.1686 65.9286 49.2756C66.0657 49.7164 69.1027 56.9853 72.6687 65.4199C79.1052 80.6238 79.8596 82.4851 82.2794 89.0486C85.9434 98.9919 88.3632 104.272 91.312 108.778C96.0242 115.979 101.51 119.819 108.388 120.749C109.779 120.936 113.11 120.926 114.658 120.74C122.289 119.789 129.402 115.371 133.703 108.906C137.533 103.155 138.493 96.1803 136.318 90.0184C136.152 89.558 134.134 84.7088 131.822 79.2425C129.51 73.7762 126.982 67.6731 126.218 65.6844C119.213 47.4926 114.952 37.5788 111.768 32.0243C109.975 28.9188 108.848 27.6159 107.957 27.6355C107.722 27.6453 106.134 28.1351 104.224 28.7915Z" fill="#838383"/>
<path d="M443.22 36.8831C442.27 37.1868 441.035 38.666 439.938 40.8016C439.301 42.036 438.498 43.9169 437.411 46.7284C436.637 48.7269 435.314 51.4111 423.078 75.8235C413.849 94.2405 409.274 103.273 408.549 104.487C405.953 108.876 404.895 111.178 404.621 113.059C404.484 113.951 404.621 114.754 404.973 115.136C405.091 115.263 409.509 117.536 414.79 120.191C423.626 124.619 424.577 125.119 426.83 126.529C435.275 131.819 438.87 133.622 441.78 134.014C443.24 134.219 444.014 133.945 445.101 132.848C446.335 131.604 447.638 129.439 448.569 127.068C449.666 124.286 449.921 121.416 449.206 119.985C448.736 119.064 448.344 118.859 443.24 116.87C433.355 113.02 429.554 111.178 427.584 109.297C426.81 108.543 426.644 108.249 426.722 107.73C427.026 105.859 433.257 93.2903 435.226 90.5669C435.755 89.842 435.951 89.7342 436.803 89.7342C438.527 89.7342 440.81 90.9 444.425 93.6332C445.199 94.2111 446.453 95.1614 447.207 95.7296C450.969 98.5705 452.693 99.4326 454.947 99.6383C456.054 99.7461 456.073 99.7363 456.632 99.4914C458.052 98.835 460.257 95.8765 461.55 92.8984C462.784 90.0477 463.147 87.6574 462.529 86.4329C462.245 85.8941 463.176 86.3937 454.163 81.9168C448.638 79.1738 445.728 77.6456 444.141 76.666C442.701 75.7745 442.485 76.6366 445.875 69.8281C449.803 61.9225 451.733 58.3273 452.155 58.0628C452.272 57.9942 455.143 59.395 463.401 63.5193C475.735 69.6812 474.893 69.3285 475.922 68.8191C478.077 67.7415 480.986 62.9413 481.898 58.9248C482.133 57.8766 482.143 56.3876 481.907 55.9663C481.467 55.1434 480.085 53.8307 478.704 52.9099C476.206 51.2543 473.903 50.2257 464.548 46.5815C461.011 45.21 460.756 45.0728 456.612 42.4964C451.439 39.293 448.491 37.7648 446.13 37.079C445.032 36.7656 443.847 36.6872 443.22 36.8831Z" fill="#838383"/>
<path d="M40.054 59.3843C39.7895 59.5508 38.3787 60.3345 36.919 61.128C34.0388 62.7052 32.8632 63.391 31.5602 64.2824C30.4924 65.0172 29.3951 66.0164 29.0816 66.565C28.9445 66.7903 28.7387 67.0646 28.631 67.1626C27.8766 67.8385 27.9452 69.1316 28.8171 70.8754C29.4343 72.1293 30.1789 73.2069 32.1676 75.7245C32.7456 76.4495 36.8602 82.4644 41.3276 89.0965C45.7949 95.7188 49.9487 101.89 50.5659 102.802C51.1831 103.703 51.6044 104.408 51.5064 104.349C51.2027 104.183 35.1654 93.4852 30.8548 90.5757C28.6604 89.0867 26.2993 87.4409 25.6234 86.9119C24.9376 86.3927 23.6542 85.3935 22.7627 84.7078C16.6593 79.9761 13.1325 78.8789 9.20399 80.4464C8.69456 80.6521 7.60712 81.2986 6.06903 82.3174C2.16012 84.9135 0.99431 85.8637 0.377114 87.0001C0.141992 87.4409 0.0832117 87.6662 0.0538214 88.3716C-0.0147559 89.6745 0.416302 90.8598 1.70947 92.966C2.06216 93.5342 11.0066 106.847 21.5969 122.551C43.6788 155.3 42.4738 153.497 43.8747 155.809C45.6381 158.709 46.4219 159.63 47.6465 160.198C48.1853 160.463 48.391 160.502 49.067 160.502C50.4581 160.492 51.7611 159.943 54.1025 158.376C60.9603 153.801 62.2436 151.959 60.8623 148.678C60.4019 147.59 59.6279 146.336 56.7575 142.095C54.4454 138.676 40.9259 118.632 39.4956 116.507L39.0253 115.801L40.5634 116.81C41.4157 117.359 49.3119 122.541 58.1192 128.321C66.9167 134.091 74.3818 138.95 74.6953 139.107C75.8611 139.694 76.831 139.91 78.565 139.969C79.7603 139.998 80.3872 139.969 81.0828 139.851C85.7461 139.058 89.5668 136.207 90.4093 132.886C90.713 131.671 90.5269 129.918 89.9587 128.781C89.8411 128.566 88.5088 126.46 86.9805 124.118C85.462 121.777 82.8266 117.721 81.1318 115.106C56.6105 77.3213 43.4535 59.0512 40.7692 59.0708C40.6418 59.0708 40.3283 59.2177 40.054 59.3843Z" fill="#838383"/>
<path d="M504.342 69.5538C503.558 69.7987 502.627 70.4354 501.902 71.2094C501.559 71.5718 491.821 84.2482 480.251 99.3933C463.822 120.886 458.885 127.283 457.68 128.626C454.28 132.436 452.409 135.091 451.713 137.099C451.488 137.746 451.41 138.882 451.566 139.343C451.733 139.862 452.037 140.185 453.212 141.096C453.79 141.537 455.583 142.977 457.2 144.309C463.293 149.296 465.732 151.167 468.76 153.165C473.217 156.114 476.93 157.858 480.771 158.798C481.77 159.043 482.926 159.219 485.022 159.464C485.718 159.553 489.147 159.415 489.431 159.298C489.539 159.249 489.999 159.141 490.46 159.043C493.212 158.485 496.485 156.868 499.13 154.743C502.519 152.009 505.213 148.904 510.543 141.557C513.325 137.717 514.922 135.679 520.281 129.115C528.383 119.192 532.262 113.353 533.8 108.739C535.289 104.262 535.182 99.746 533.497 95.514C531.165 89.6656 526.58 84.4246 517.704 77.4986C516.529 76.5777 514.814 75.1769 513.913 74.3736C511.483 72.2478 510.464 71.4053 509.612 70.8273C508.74 70.2395 507.486 69.6321 506.8 69.4656C506.125 69.3089 504.998 69.3383 504.342 69.5538ZM511.346 92.0461C512.052 92.4086 512.826 93.1041 514.413 94.8185C516.029 96.5622 516.578 97.3263 516.891 98.2864C517.753 100.902 516.754 103.508 513.159 108.043C512.669 108.67 507.173 115.832 500.962 123.972C493.761 133.406 489.441 138.98 489.039 139.362C487.109 141.194 484.229 141.694 480.712 140.812C478.38 140.215 475.421 138.735 474.51 137.687L474.197 137.334L474.618 136.776C474.853 136.472 478.841 131.261 483.465 125.197C488.098 119.133 495.26 109.768 499.375 104.38C508.221 92.7906 508.143 92.8886 508.828 92.3694C509.759 91.6641 510.416 91.5857 511.346 92.0461Z" fill="#838383"/>
<path d="M308.296 130.693C301.586 131.075 295.394 132.916 290.525 135.983C287.038 138.187 283.756 141.469 281.639 144.888C281.042 145.857 279.631 148.659 279.631 148.875C279.631 149.1 279.484 149.012 278.896 148.404C277.388 146.866 274.498 144.515 272.313 143.046C262.849 136.678 251.034 132.897 237.574 131.917C234.938 131.721 232.215 131.614 232.215 131.712C232.215 131.751 232.646 132.358 233.165 133.073C237.799 139.313 241.257 145.946 243.53 152.94C245.352 158.544 246.42 164.118 247.4 173.179C248.566 184.014 252.729 191.734 259.744 196.054C261.615 197.2 264.593 198.395 266.719 198.855C268.688 199.277 269.57 199.375 272.048 199.424L274.507 199.473L274.615 198.611C274.919 196.181 274.978 195.015 274.978 191.273C274.978 188.755 274.929 186.914 274.85 186.13C274.272 180.566 273.146 176.971 269.834 170.064C268.424 167.145 267.924 166.224 266.866 164.637C265.798 163.021 264.456 161.277 261.85 158.113C260.635 156.633 259.656 155.36 259.665 155.272C259.685 155.193 259.773 155.115 259.871 155.095C260.047 155.056 262.986 156.545 264.789 157.584C265.906 158.23 267.405 159.445 269.511 161.404C270.706 162.521 272.901 165.284 273.929 166.968C276.584 171.318 278.113 177.01 278.465 183.887C278.681 188.001 278.25 193.35 277.319 197.925C277.192 198.571 277.094 199.11 277.113 199.12C277.182 199.189 278.7 198.924 279.7 198.66C286.028 197.033 290.368 192.801 292.318 186.375C293.082 183.838 293.386 181.692 293.386 178.685C293.386 176.784 293.347 176.138 293.17 174.962C292.876 173.081 292.367 170.809 291.867 169.182C291.642 168.458 291.456 167.772 291.446 167.664C291.436 167.488 291.515 167.458 292.279 167.4C297.05 167.037 301.155 164.186 303.525 159.582C304.554 157.574 305.064 156.065 305.789 152.832C307.826 143.8 310.893 137.844 316.604 131.878C317.025 131.437 317.358 131.045 317.329 131.026C317.172 130.869 312.695 130.575 310.785 130.605C310.168 130.605 309.041 130.654 308.296 130.693ZM299.283 142.84C299.323 142.899 298.833 143.477 298.127 144.192C295.002 147.366 294.463 148.022 292.749 150.765C290.172 154.88 289.35 156.81 288.821 159.905L288.605 161.228L288.125 160.336C287.86 159.837 287.42 159.073 287.155 158.622C286.606 157.701 286.606 157.858 287.047 155.859C288.468 149.365 292.083 145.093 297.853 143.124C299.097 142.703 299.185 142.683 299.283 142.84Z" fill="#838383"/>
</g>
<defs>
<clipPath id="clip0_1622_2267">
<rect width="534.876" height="202" fill="white"/>
</clipPath>
</defs>
</svg>
