<svg width="1552" height="760" viewBox="0 0 1552 760" fill="none" xmlns="http://www.w3.org/2000/svg">
<path d="M925.403 539.323C924.07 542.095 922.373 545.408 920.312 549.264C918.373 552.999 916.13 556.915 913.584 561.011C911.039 565.108 908.19 569.205 905.039 573.301C901.887 577.278 898.432 580.892 894.674 584.145C891.038 587.278 887.098 589.808 882.855 591.736C878.734 593.784 874.31 594.809 869.582 594.809C862.309 594.809 856.066 592.58 850.854 588.122C845.641 583.663 841.217 577.82 837.58 570.59C833.944 563.361 830.974 555.168 828.671 546.011C826.489 536.733 824.792 527.335 823.579 517.816C822.367 508.177 821.519 498.839 821.034 489.802C820.67 480.766 820.488 472.753 820.488 465.765C820.488 455.644 820.791 445.161 821.397 434.317C822.125 423.473 823.216 412.87 824.67 402.508C826.125 392.146 827.943 382.326 830.125 373.048C832.428 363.771 835.095 355.638 838.126 348.649C841.277 341.661 844.853 336.119 848.854 332.022C852.854 327.925 857.399 325.877 862.491 325.877C866.491 325.877 870.067 326.841 873.219 328.769C876.491 330.576 879.219 333.588 881.401 337.805C883.583 342.023 885.28 347.505 886.492 354.252C887.704 361 888.31 369.253 888.31 379.013C888.31 391.062 887.038 403.532 884.492 416.425C881.946 429.196 878.492 442.089 874.128 455.102C869.764 468.114 864.612 481.127 858.672 494.14C852.733 507.032 846.369 519.623 839.58 531.913C842.611 547.215 846.672 559.264 851.763 568.06C856.854 576.735 862.976 581.073 870.127 581.073C874.976 581.073 879.643 579.205 884.128 575.47C888.613 571.614 892.735 567.096 896.493 561.915C900.25 556.734 903.523 551.493 906.311 546.191C909.221 540.769 911.463 536.432 913.039 533.178C913.645 531.974 914.494 531.07 915.585 530.467C916.676 529.745 917.888 529.383 919.221 529.383C921.282 529.383 922.918 530.106 924.131 531.552C925.464 532.998 926.131 534.624 926.131 536.432C926.131 537.155 925.888 538.119 925.403 539.323ZM834.307 466.668C834.307 474.38 834.489 481.79 834.853 488.899C835.216 496.008 835.701 502.815 836.307 509.322C841.399 499.562 846.247 489.2 850.854 478.235C855.46 467.15 859.521 456.005 863.036 444.8C866.551 433.474 869.34 422.268 871.4 411.183C873.582 399.978 874.673 389.314 874.673 379.193C874.673 364.976 873.522 354.794 871.218 348.649C868.915 342.504 865.824 339.432 861.945 339.432C859.4 339.432 856.915 341.179 854.49 344.673C852.187 348.167 850.005 352.927 847.944 358.951C845.884 364.976 844.005 372.085 842.308 380.278C840.611 388.471 839.156 397.267 837.944 406.665C836.853 416.063 835.944 425.883 835.216 436.125C834.61 446.366 834.307 456.547 834.307 466.668Z" fill="#9B9EA2"/>
<path d="M973.588 569.144C969.345 576.012 964.375 581.434 958.678 585.411C953.102 589.387 947.465 591.375 941.768 591.375C937.162 591.375 933.04 590.531 929.404 588.844C925.767 587.158 922.615 584.808 919.948 581.796C917.282 578.663 915.221 574.928 913.766 570.59C912.433 566.253 911.766 561.373 911.766 555.951C911.766 547.517 912.554 540.046 914.13 533.54C915.827 527.034 917.645 521.612 919.585 517.274C921.524 512.816 923.343 509.442 925.04 507.153C926.737 504.864 927.585 503.719 927.585 503.719C928.191 502.996 928.919 502.454 929.767 502.092C930.737 501.731 931.707 501.55 932.676 501.55C934.616 501.55 936.192 502.273 937.404 503.719C938.737 505.044 939.404 506.611 939.404 508.418C939.404 509.141 939.222 509.864 938.859 510.587C938.616 511.31 938.313 512.033 937.949 512.756C937.343 513.84 936.374 515.527 935.04 517.816C933.707 519.985 932.313 522.877 930.858 526.491C929.404 530.106 928.131 534.383 927.04 539.323C925.949 544.143 925.403 549.686 925.403 555.951C925.403 563.06 926.797 568.482 929.585 572.217C932.495 575.832 936.555 577.639 941.768 577.639C943.95 577.639 946.435 576.976 949.223 575.651C952.132 574.205 954.92 572.036 957.587 569.144C960.375 566.253 962.799 562.578 964.86 558.12C966.921 553.662 968.254 548.42 968.86 542.396L971.588 511.31C971.83 509.502 972.618 507.996 973.951 506.791C975.285 505.586 976.861 504.984 978.679 504.984C980.74 504.984 982.376 505.767 983.588 507.334C984.801 508.779 985.407 510.466 985.407 512.394L983.043 542.396C982.801 544.926 982.861 548.24 983.225 552.336C983.71 556.433 984.619 560.469 985.952 564.445C987.286 568.422 989.286 571.855 991.953 574.747C994.619 577.518 998.135 578.904 1002.5 578.904C1005.65 578.904 1008.74 578.121 1011.77 576.555C1014.8 574.868 1017.71 572.699 1020.5 570.048C1023.29 567.397 1025.83 564.445 1028.14 561.192C1030.56 557.819 1032.74 554.445 1034.68 551.071C1036.74 547.697 1038.5 544.504 1039.96 541.492C1041.41 538.36 1042.62 535.709 1043.59 533.54C1044.2 532.215 1045.05 531.19 1046.14 530.467C1047.23 529.745 1048.44 529.383 1049.77 529.383C1051.96 529.383 1053.65 530.106 1054.87 531.552C1056.08 532.998 1056.68 534.564 1056.68 536.251C1056.68 537.215 1056.5 538.119 1056.14 538.962C1055.65 539.926 1054.68 541.974 1053.23 545.107C1051.9 548.119 1050.08 551.613 1047.77 555.589C1045.59 559.445 1042.93 563.542 1039.77 567.879C1036.62 572.217 1033.11 576.253 1029.23 579.989C1025.35 583.603 1021.11 586.615 1016.5 589.025C1012.01 591.314 1007.17 592.459 1001.95 592.459C994.801 592.459 988.861 590.471 984.134 586.495C979.406 582.398 975.891 576.615 973.588 569.144Z" fill="#9B9EA2"/>
<path d="M1152.14 487.091C1133.48 509.984 1116.44 534.082 1101.05 559.385C1105.29 565.65 1109.96 570.831 1115.05 574.928C1120.14 579.025 1125.9 581.073 1132.32 581.073C1138.02 581.073 1143.42 579.446 1148.51 576.193C1153.6 572.94 1158.2 568.964 1162.33 564.265C1166.57 559.445 1170.21 554.324 1173.24 548.902C1176.39 543.36 1178.81 538.36 1180.51 533.901C1181.72 530.889 1183.84 529.383 1186.87 529.383C1188.93 529.383 1190.57 530.106 1191.78 531.552C1193.12 532.877 1193.78 534.444 1193.78 536.251C1193.78 536.853 1193.66 537.637 1193.42 538.6C1193.54 538.36 1192.99 539.564 1191.78 542.215C1190.57 544.866 1188.75 548.3 1186.33 552.517C1183.9 556.614 1180.93 561.132 1177.42 566.072C1173.9 571.012 1169.84 575.651 1165.24 579.989C1160.75 584.206 1155.72 587.7 1150.14 590.471C1144.57 593.363 1138.57 594.809 1132.14 594.809C1124.14 594.809 1116.93 592.7 1110.5 588.483C1104.2 584.266 1098.5 578.904 1093.41 572.398C1091.35 576.012 1089.35 579.627 1087.41 583.242C1085.47 586.856 1083.53 590.471 1081.59 594.086C1080.26 596.616 1078.2 597.881 1075.41 597.881C1073.35 597.881 1071.65 597.158 1070.32 595.712C1069.11 594.266 1068.5 592.7 1068.5 591.013C1068.5 590.049 1068.81 588.965 1069.41 587.76C1071.84 583.061 1074.32 578.362 1076.87 573.663C1079.41 568.964 1082.08 564.325 1084.87 559.746C1080.75 552.637 1077.23 545.408 1074.32 538.058C1071.41 530.588 1069.11 523.6 1067.41 517.093L1056.68 539.143C1055.35 541.793 1053.29 543.119 1050.5 543.119C1048.44 543.119 1046.74 542.396 1045.41 540.95C1044.2 539.504 1043.59 537.938 1043.59 536.251C1043.59 535.167 1043.83 534.203 1044.32 533.359L1064.14 492.152C1064.74 491.068 1065.59 490.164 1066.68 489.441C1067.77 488.718 1068.99 488.357 1070.32 488.357C1072.26 488.357 1073.84 489.019 1075.05 490.345C1076.26 491.549 1076.99 493.056 1077.23 494.863C1077.35 496.55 1077.78 499.201 1078.5 502.815C1079.35 506.43 1080.44 510.587 1081.78 515.286C1083.23 519.864 1084.87 524.805 1086.69 530.106C1088.62 535.408 1090.87 540.649 1093.41 545.83C1107.96 522.334 1124.02 499.863 1141.6 478.416C1142.81 476.85 1144.57 476.067 1146.87 476.067C1148.81 476.067 1150.45 476.729 1151.78 478.055C1153.11 479.38 1153.78 480.946 1153.78 482.754C1153.78 484.441 1153.23 485.887 1152.14 487.091Z" fill="#9B9EA2"/>
<path d="M1241.24 569.144C1237 576.012 1232.03 581.434 1226.33 585.411C1220.75 589.387 1215.12 591.375 1209.42 591.375C1204.81 591.375 1200.69 590.531 1197.06 588.844C1193.42 587.158 1190.27 584.808 1187.6 581.796C1184.93 578.663 1182.87 574.928 1181.42 570.59C1180.08 566.253 1179.42 561.373 1179.42 555.951C1179.42 547.517 1180.21 540.046 1181.78 533.54C1183.48 527.034 1185.3 521.612 1187.24 517.274C1189.18 512.816 1190.99 509.442 1192.69 507.153C1194.39 504.864 1195.24 503.719 1195.24 503.719C1195.84 502.996 1196.57 502.454 1197.42 502.092C1198.39 501.731 1199.36 501.55 1200.33 501.55C1202.27 501.55 1203.84 502.273 1205.06 503.719C1206.39 505.044 1207.06 506.611 1207.06 508.418C1207.06 509.141 1206.87 509.864 1206.51 510.587C1206.27 511.31 1205.96 512.033 1205.6 512.756C1204.99 513.84 1204.03 515.527 1202.69 517.816C1201.36 519.985 1199.96 522.877 1198.51 526.491C1197.06 530.106 1195.78 534.383 1194.69 539.323C1193.6 544.143 1193.05 549.686 1193.05 555.951C1193.05 563.06 1194.45 568.482 1197.24 572.217C1200.15 575.832 1204.21 577.639 1209.42 577.639C1211.6 577.639 1214.09 576.976 1216.87 575.651C1219.78 574.205 1222.57 572.036 1225.24 569.144C1228.03 566.253 1230.45 562.578 1232.51 558.12C1234.57 553.662 1235.91 548.42 1236.51 542.396L1239.24 511.31C1239.48 509.502 1240.27 507.996 1241.6 506.791C1242.94 505.586 1244.51 504.984 1246.33 504.984C1248.39 504.984 1250.03 505.767 1251.24 507.334C1252.45 508.779 1253.06 510.466 1253.06 512.394L1250.69 542.396C1250.45 544.926 1250.51 548.24 1250.88 552.336C1251.36 556.433 1252.27 560.469 1253.6 564.445C1254.94 568.422 1256.94 571.855 1259.6 574.747C1262.27 577.518 1265.79 578.904 1270.15 578.904C1273.3 578.904 1276.39 578.121 1279.42 576.555C1282.45 574.868 1285.36 572.699 1288.15 570.048C1290.94 567.397 1293.48 564.445 1295.79 561.192C1298.21 557.819 1300.39 554.445 1302.33 551.071C1304.39 547.697 1306.15 544.504 1307.61 541.492C1309.06 538.36 1310.27 535.709 1311.24 533.54C1311.85 532.215 1312.7 531.19 1313.79 530.467C1314.88 529.745 1316.09 529.383 1317.43 529.383C1319.61 529.383 1321.3 530.106 1322.52 531.552C1323.73 532.998 1324.34 534.564 1324.34 536.251C1324.34 537.215 1324.15 538.119 1323.79 538.962C1323.3 539.926 1322.33 541.974 1320.88 545.107C1319.55 548.119 1317.73 551.613 1315.43 555.589C1313.24 559.445 1310.58 563.542 1307.42 567.879C1304.27 572.217 1300.76 576.253 1296.88 579.989C1293 583.603 1288.76 586.615 1284.15 589.025C1279.67 591.314 1274.82 592.459 1269.6 592.459C1262.45 592.459 1256.51 590.471 1251.79 586.495C1247.06 582.398 1243.54 576.615 1241.24 569.144Z" fill="#9B9EA2"/>
<path d="M1330.52 515.105C1330.03 518.358 1329.43 521.431 1328.7 524.323C1327.97 527.094 1327.24 529.564 1326.52 531.733C1325.91 533.781 1325.37 535.468 1324.88 536.793C1324.4 538.119 1324.09 538.841 1323.97 538.962C1322.76 541.733 1320.64 543.119 1317.61 543.119C1315.91 543.119 1314.33 542.516 1312.88 541.311C1311.43 539.986 1310.7 538.359 1310.7 536.432C1310.7 535.709 1310.82 535.167 1311.06 534.805C1311.3 534.444 1311.67 533.721 1312.15 532.636C1312.64 531.552 1313.24 529.745 1313.97 527.214C1314.7 524.684 1315.61 520.768 1316.7 515.467C1314.64 515.467 1312.52 515.406 1310.33 515.286C1308.15 515.165 1306.15 514.744 1304.33 514.021C1302.39 513.298 1300.82 512.153 1299.61 510.587C1298.39 509.02 1297.79 506.852 1297.79 504.08C1297.79 502.032 1298.39 499.261 1299.61 495.767C1300.7 492.272 1302.21 488.838 1304.15 485.465C1306.09 482.091 1308.27 479.199 1310.7 476.79C1313.12 474.259 1315.55 472.994 1317.97 472.994C1320.76 472.994 1323 474.018 1324.7 476.067C1326.52 478.115 1327.91 480.645 1328.88 483.657C1329.85 486.549 1330.52 489.622 1330.88 492.875C1331.37 496.128 1331.61 498.96 1331.61 501.369C1333.67 501.369 1335.67 501.369 1337.61 501.369C1339.67 501.249 1341.61 501.189 1343.43 501.189C1350.34 501.189 1355.61 502.695 1359.25 505.707C1362.88 508.719 1364.7 513.659 1364.7 520.527C1364.7 523.298 1364.52 526.19 1364.16 529.202C1363.79 532.215 1363.37 535.347 1362.88 538.6C1362.4 541.733 1361.97 544.866 1361.61 547.999C1361.25 551.131 1361.06 554.204 1361.06 557.216C1361.06 561.554 1361.67 565.168 1362.88 568.06C1364.09 570.831 1365.61 573.06 1367.43 574.747C1369.25 576.434 1371.19 577.639 1373.25 578.362C1375.31 578.964 1377.19 579.266 1378.88 579.266C1384.1 579.266 1389.01 577.579 1393.61 574.205C1398.22 570.831 1402.46 566.795 1406.34 562.096C1410.22 557.276 1413.67 552.216 1416.7 546.914C1419.86 541.613 1422.46 536.974 1424.52 532.998C1425.13 531.913 1425.98 531.07 1427.07 530.467C1428.16 529.865 1429.31 529.564 1430.52 529.564C1432.7 529.564 1434.4 530.287 1435.61 531.733C1436.83 533.058 1437.43 534.564 1437.43 536.251C1437.43 537.456 1437.19 538.54 1436.71 539.504C1433.92 544.444 1430.64 550.047 1426.89 556.312C1423.25 562.457 1419.07 568.241 1414.34 573.663C1409.61 579.085 1404.28 583.663 1398.34 587.399C1392.52 591.134 1386.1 593.001 1379.07 593.001C1374.7 593.001 1370.58 592.158 1366.7 590.471C1362.82 588.905 1359.43 586.615 1356.52 583.603C1353.73 580.47 1351.49 576.675 1349.79 572.217C1348.09 567.638 1347.25 562.518 1347.25 556.855C1347.25 550.83 1347.85 544.866 1349.06 538.962C1350.28 532.937 1350.88 527.214 1350.88 521.792C1350.88 519.503 1350.34 517.816 1349.25 516.732C1348.28 515.527 1346.03 514.924 1342.52 514.924C1340.82 514.924 1338.94 514.924 1336.88 514.924C1334.94 514.924 1332.82 514.985 1330.52 515.105ZM1318.33 501.731C1318.33 500.887 1318.27 499.803 1318.15 498.478C1318.15 497.032 1318.03 495.646 1317.79 494.321C1317.67 492.995 1317.43 491.851 1317.06 490.887C1316.82 489.923 1316.52 489.441 1316.15 489.441C1315.79 489.441 1315.3 489.923 1314.7 490.887C1314.21 491.73 1313.67 492.815 1313.06 494.14C1312.46 495.345 1311.91 496.67 1311.43 498.116C1310.94 499.562 1310.58 500.767 1310.33 501.731H1318.33Z" fill="#9B9EA2"/>
<path d="M1492.16 591.917C1496.41 587.7 1500.71 583.422 1505.07 579.085C1509.44 574.627 1513.68 569.988 1517.8 565.168C1521.92 560.349 1525.74 555.348 1529.26 550.167C1532.89 544.866 1536.1 539.263 1538.89 533.359C1539.5 532.034 1540.35 531.07 1541.44 530.467C1542.53 529.745 1543.74 529.383 1545.07 529.383C1547.14 529.383 1548.77 530.106 1549.98 531.552C1551.32 532.998 1551.98 534.624 1551.98 536.432C1551.98 537.396 1551.8 538.299 1551.44 539.143C1547.68 546.974 1543.38 554.144 1538.53 560.65C1533.68 567.156 1528.59 573.362 1523.26 579.266C1517.92 585.049 1512.53 590.652 1507.07 596.074C1501.62 601.616 1496.41 607.159 1491.44 612.701C1490.95 621.015 1490.95 629.329 1491.44 637.643C1491.92 646.077 1492.16 654.993 1492.16 664.391C1492.16 672.102 1491.92 679.814 1491.44 687.525C1490.95 695.236 1490.16 702.586 1489.07 709.575C1487.98 716.683 1486.47 723.31 1484.53 729.455C1482.71 735.6 1480.34 740.902 1477.43 745.36C1474.53 749.938 1471.13 753.493 1467.25 756.023C1463.37 758.674 1458.83 759.999 1453.62 759.999C1445.01 759.999 1438.4 757.047 1433.8 751.143C1429.19 745.239 1426.89 736.986 1426.89 726.383C1426.89 720.599 1427.49 714.394 1428.7 707.767C1430.04 701.14 1431.86 694.272 1434.16 687.164C1436.46 680.175 1439.19 673.066 1442.34 665.837C1445.61 658.608 1449.13 651.559 1452.89 644.691C1456.65 637.823 1460.65 631.257 1464.89 624.991C1469.13 618.846 1473.43 613.243 1477.8 608.183C1478.04 602.399 1478.28 596.375 1478.53 590.11C1478.89 583.965 1479.25 578.241 1479.62 572.94C1476.46 578.482 1472.53 582.94 1467.8 586.314C1463.19 589.688 1458.1 591.375 1452.52 591.375C1443.31 591.375 1436.1 588.302 1430.89 582.157C1425.67 576.012 1423.07 567.578 1423.07 556.855C1423.07 549.023 1423.8 541.914 1425.25 535.528C1426.83 529.022 1428.46 523.479 1430.16 518.901C1431.98 514.201 1433.61 510.647 1435.07 508.237C1436.52 505.707 1437.25 504.502 1437.25 504.623C1438.58 502.574 1440.46 501.55 1442.89 501.55C1444.95 501.55 1446.58 502.273 1447.8 503.719C1449.13 505.044 1449.8 506.611 1449.8 508.418C1449.8 509.743 1449.43 510.948 1448.71 512.033C1448.83 511.912 1448.22 512.936 1446.89 515.105C1445.68 517.153 1444.28 520.166 1442.71 524.142C1441.25 528.118 1439.86 532.877 1438.52 538.42C1437.31 543.962 1436.71 550.047 1436.71 556.674C1436.71 563.301 1437.92 568.482 1440.34 572.217C1442.77 575.952 1446.71 577.82 1452.16 577.82C1459.07 577.82 1465.31 572.759 1470.89 562.638C1476.46 552.396 1481.19 537.576 1485.07 518.178C1485.31 516.611 1486.04 515.346 1487.25 514.382C1488.47 513.298 1489.92 512.756 1491.62 512.756C1493.56 512.756 1495.19 513.418 1496.53 514.744C1497.86 516.069 1498.53 517.696 1498.53 519.623C1498.53 519.985 1498.28 522.154 1497.8 526.13C1497.31 529.986 1496.71 535.167 1495.98 541.673C1495.37 548.179 1494.71 555.77 1493.98 564.445C1493.25 573 1492.65 582.157 1492.16 591.917ZM1477.62 630.232C1472.16 638.064 1467.13 646.318 1462.52 654.993C1458.04 663.668 1454.16 672.283 1450.89 680.838C1447.61 689.393 1445.07 697.586 1443.25 705.418C1441.43 713.249 1440.52 720.238 1440.52 726.383C1440.52 732.648 1441.55 737.528 1443.61 741.022C1445.68 744.637 1448.95 746.444 1453.43 746.444C1457.43 746.444 1460.95 744.456 1463.98 740.48C1467.13 736.624 1469.74 731.082 1471.8 723.853C1473.98 716.623 1475.62 707.827 1476.71 697.465C1477.8 687.224 1478.34 675.717 1478.34 662.945C1478.34 657.764 1478.22 652.523 1477.98 647.221C1477.86 641.92 1477.74 636.257 1477.62 630.232Z" fill="#9B9EA2"/>
<path d="M925.403 539.323C924.07 542.095 922.373 545.408 920.312 549.264C918.373 552.999 916.13 556.915 913.584 561.011C911.039 565.108 908.19 569.205 905.039 573.301C901.887 577.277 898.432 580.892 894.674 584.145C891.038 587.278 887.098 589.808 882.855 591.736C878.734 593.784 874.31 594.809 869.582 594.809C862.309 594.809 856.066 592.58 850.854 588.122C845.641 583.663 841.217 577.82 837.58 570.59C833.944 563.361 830.974 555.168 828.671 546.011C826.489 536.733 824.792 527.335 823.579 517.816C822.367 508.177 821.519 498.839 821.034 489.802C820.67 480.766 820.488 472.753 820.488 465.765C820.488 455.644 820.791 445.161 821.397 434.317C822.125 423.473 823.216 412.87 824.67 402.508C826.125 392.146 827.943 382.326 830.125 373.048C832.428 363.771 835.095 355.638 838.126 348.649C841.277 341.661 844.853 336.119 848.854 332.022C852.854 327.925 857.399 325.877 862.491 325.877C866.491 325.877 870.067 326.841 873.219 328.769C876.491 330.576 879.219 333.588 881.401 337.805C883.583 342.023 885.28 347.505 886.492 354.252C887.704 361 888.31 369.253 888.31 379.013C888.31 391.062 887.038 403.532 884.492 416.425C881.946 429.196 878.492 442.089 874.128 455.102C869.764 468.114 864.612 481.127 858.672 494.14C852.733 507.032 846.369 519.623 839.58 531.913C842.611 547.215 846.672 559.264 851.763 568.06C856.854 576.735 862.976 581.073 870.127 581.073C874.976 581.073 879.643 579.205 884.128 575.47C888.613 571.614 892.735 567.096 896.493 561.915C900.25 556.734 903.523 551.493 906.311 546.191C909.221 540.769 911.463 536.432 913.039 533.178C913.645 531.974 914.494 531.07 915.585 530.467C916.676 529.745 917.888 529.383 919.221 529.383C921.282 529.383 922.918 530.106 924.131 531.552C925.464 532.998 926.131 534.624 926.131 536.432C926.131 537.155 925.888 538.119 925.403 539.323ZM834.307 466.668C834.307 474.38 834.489 481.79 834.853 488.899C835.216 496.008 835.701 502.815 836.307 509.322C841.399 499.562 846.247 489.2 850.854 478.235C855.46 467.15 859.521 456.005 863.036 444.8C866.551 433.474 869.34 422.268 871.4 411.183C873.582 399.978 874.673 389.314 874.673 379.193C874.673 364.976 873.522 354.794 871.218 348.649C868.915 342.504 865.824 339.432 861.945 339.432C859.4 339.432 856.915 341.179 854.49 344.673C852.187 348.167 850.005 352.927 847.944 358.951C845.884 364.976 844.005 372.085 842.308 380.278C840.611 388.471 839.156 397.267 837.944 406.665C836.853 416.063 835.944 425.883 835.216 436.125C834.61 446.366 834.307 456.547 834.307 466.668Z" fill="#9B9EA2"/>
<path d="M973.588 569.144C969.345 576.012 964.375 581.434 958.678 585.411C953.102 589.387 947.465 591.375 941.768 591.375C937.162 591.375 933.04 590.531 929.404 588.844C925.767 587.158 922.615 584.808 919.948 581.796C917.282 578.663 915.221 574.928 913.766 570.59C912.433 566.253 911.766 561.373 911.766 555.951C911.766 547.517 912.554 540.046 914.13 533.54C915.827 527.034 917.645 521.612 919.585 517.274C921.524 512.816 923.343 509.442 925.04 507.153C926.737 504.864 927.585 503.719 927.585 503.719C928.191 502.996 928.919 502.454 929.767 502.092C930.737 501.731 931.707 501.55 932.676 501.55C934.616 501.55 936.192 502.273 937.404 503.719C938.737 505.044 939.404 506.611 939.404 508.418C939.404 509.141 939.222 509.864 938.859 510.587C938.616 511.31 938.313 512.033 937.949 512.756C937.343 513.84 936.374 515.527 935.04 517.816C933.707 519.985 932.313 522.877 930.858 526.491C929.404 530.106 928.131 534.383 927.04 539.323C925.949 544.143 925.403 549.685 925.403 555.951C925.403 563.06 926.797 568.482 929.585 572.217C932.495 575.832 936.555 577.639 941.768 577.639C943.95 577.639 946.435 576.976 949.223 575.651C952.132 574.205 954.92 572.036 957.587 569.144C960.375 566.253 962.799 562.578 964.86 558.12C966.921 553.662 968.254 548.42 968.86 542.396L971.588 511.31C971.83 509.502 972.618 507.996 973.951 506.791C975.285 505.586 976.861 504.984 978.679 504.984C980.74 504.984 982.376 505.767 983.588 507.334C984.801 508.779 985.407 510.466 985.407 512.394L983.043 542.396C982.8 544.926 982.861 548.24 983.225 552.336C983.71 556.433 984.619 560.469 985.952 564.445C987.286 568.422 989.286 571.855 991.953 574.747C994.619 577.518 998.135 578.904 1002.5 578.904C1005.65 578.904 1008.74 578.121 1011.77 576.555C1014.8 574.868 1017.71 572.699 1020.5 570.048C1023.29 567.397 1025.83 564.445 1028.14 561.192C1030.56 557.818 1032.74 554.445 1034.68 551.071C1036.74 547.697 1038.5 544.504 1039.96 541.492C1041.41 538.359 1042.62 535.709 1043.59 533.54C1044.2 532.215 1045.05 531.19 1046.14 530.467C1047.23 529.745 1048.44 529.383 1049.77 529.383C1051.96 529.383 1053.65 530.106 1054.87 531.552C1056.08 532.998 1056.68 534.564 1056.68 536.251C1056.68 537.215 1056.5 538.119 1056.14 538.962C1055.65 539.926 1054.68 541.974 1053.23 545.107C1051.9 548.119 1050.08 551.613 1047.77 555.589C1045.59 559.445 1042.93 563.542 1039.77 567.879C1036.62 572.217 1033.11 576.253 1029.23 579.989C1025.35 583.603 1021.11 586.615 1016.5 589.025C1012.01 591.314 1007.17 592.459 1001.95 592.459C994.801 592.459 988.861 590.471 984.134 586.495C979.406 582.398 975.891 576.615 973.588 569.144Z" fill="#9B9EA2"/>
<path d="M1152.14 487.091C1133.48 509.984 1116.44 534.082 1101.05 559.385C1105.29 565.65 1109.96 570.831 1115.05 574.928C1120.14 579.025 1125.9 581.073 1132.32 581.073C1138.02 581.073 1143.42 579.446 1148.51 576.193C1153.6 572.94 1158.2 568.964 1162.33 564.265C1166.57 559.445 1170.21 554.324 1173.24 548.902C1176.39 543.36 1178.81 538.36 1180.51 533.901C1181.72 530.889 1183.84 529.383 1186.87 529.383C1188.93 529.383 1190.57 530.106 1191.78 531.552C1193.12 532.877 1193.78 534.444 1193.78 536.251C1193.78 536.853 1193.66 537.637 1193.42 538.6C1193.54 538.36 1192.99 539.564 1191.78 542.215C1190.57 544.866 1188.75 548.3 1186.33 552.517C1183.9 556.614 1180.93 561.132 1177.42 566.072C1173.9 571.012 1169.84 575.651 1165.24 579.989C1160.75 584.206 1155.72 587.7 1150.14 590.471C1144.57 593.363 1138.57 594.809 1132.14 594.809C1124.14 594.809 1116.93 592.7 1110.5 588.483C1104.2 584.266 1098.5 578.904 1093.41 572.398C1091.35 576.012 1089.35 579.627 1087.41 583.242C1085.47 586.856 1083.53 590.471 1081.59 594.086C1080.26 596.616 1078.2 597.881 1075.41 597.881C1073.35 597.881 1071.65 597.158 1070.32 595.712C1069.11 594.266 1068.5 592.7 1068.5 591.013C1068.5 590.049 1068.81 588.965 1069.41 587.76C1071.84 583.061 1074.32 578.362 1076.87 573.663C1079.41 568.964 1082.08 564.325 1084.87 559.746C1080.75 552.637 1077.23 545.408 1074.32 538.058C1071.41 530.588 1069.11 523.6 1067.41 517.093L1056.68 539.143C1055.35 541.793 1053.29 543.119 1050.5 543.119C1048.44 543.119 1046.74 542.396 1045.41 540.95C1044.2 539.504 1043.59 537.938 1043.59 536.251C1043.59 535.167 1043.83 534.203 1044.32 533.359L1064.14 492.152C1064.74 491.068 1065.59 490.164 1066.68 489.441C1067.77 488.718 1068.99 488.357 1070.32 488.357C1072.26 488.357 1073.84 489.019 1075.05 490.345C1076.26 491.549 1076.99 493.056 1077.23 494.863C1077.35 496.55 1077.78 499.201 1078.5 502.815C1079.35 506.43 1080.44 510.587 1081.78 515.286C1083.23 519.864 1084.87 524.804 1086.69 530.106C1088.62 535.408 1090.87 540.649 1093.41 545.83C1107.96 522.334 1124.02 499.863 1141.6 478.416C1142.81 476.85 1144.57 476.067 1146.87 476.067C1148.81 476.067 1150.45 476.729 1151.78 478.055C1153.11 479.38 1153.78 480.946 1153.78 482.754C1153.78 484.441 1153.23 485.886 1152.14 487.091Z" fill="#9B9EA2"/>
<path d="M1241.24 569.144C1237 576.012 1232.03 581.434 1226.33 585.411C1220.75 589.387 1215.12 591.375 1209.42 591.375C1204.81 591.375 1200.69 590.531 1197.06 588.844C1193.42 587.158 1190.27 584.808 1187.6 581.796C1184.93 578.663 1182.87 574.928 1181.42 570.59C1180.08 566.253 1179.42 561.373 1179.42 555.951C1179.42 547.517 1180.21 540.046 1181.78 533.54C1183.48 527.034 1185.3 521.612 1187.24 517.274C1189.18 512.816 1190.99 509.442 1192.69 507.153C1194.39 504.864 1195.24 503.719 1195.24 503.719C1195.84 502.996 1196.57 502.454 1197.42 502.092C1198.39 501.731 1199.36 501.55 1200.33 501.55C1202.27 501.55 1203.84 502.273 1205.06 503.719C1206.39 505.044 1207.06 506.611 1207.06 508.418C1207.06 509.141 1206.87 509.864 1206.51 510.587C1206.27 511.31 1205.96 512.033 1205.6 512.756C1204.99 513.84 1204.03 515.527 1202.69 517.816C1201.36 519.985 1199.96 522.877 1198.51 526.491C1197.06 530.106 1195.78 534.383 1194.69 539.323C1193.6 544.143 1193.05 549.685 1193.05 555.951C1193.05 563.06 1194.45 568.482 1197.24 572.217C1200.15 575.832 1204.21 577.639 1209.42 577.639C1211.6 577.639 1214.09 576.976 1216.87 575.651C1219.78 574.205 1222.57 572.036 1225.24 569.144C1228.03 566.253 1230.45 562.578 1232.51 558.12C1234.57 553.662 1235.91 548.42 1236.51 542.396L1239.24 511.31C1239.48 509.502 1240.27 507.996 1241.6 506.791C1242.94 505.586 1244.51 504.984 1246.33 504.984C1248.39 504.984 1250.03 505.767 1251.24 507.334C1252.45 508.779 1253.06 510.466 1253.06 512.394L1250.69 542.396C1250.45 544.926 1250.51 548.24 1250.88 552.336C1251.36 556.433 1252.27 560.469 1253.6 564.445C1254.94 568.422 1256.94 571.855 1259.6 574.747C1262.27 577.518 1265.79 578.904 1270.15 578.904C1273.3 578.904 1276.39 578.121 1279.42 576.555C1282.45 574.868 1285.36 572.699 1288.15 570.048C1290.94 567.397 1293.48 564.445 1295.79 561.192C1298.21 557.818 1300.39 554.445 1302.33 551.071C1304.39 547.697 1306.15 544.504 1307.61 541.492C1309.06 538.359 1310.27 535.709 1311.24 533.54C1311.85 532.215 1312.7 531.19 1313.79 530.467C1314.88 529.745 1316.09 529.383 1317.43 529.383C1319.61 529.383 1321.3 530.106 1322.52 531.552C1323.73 532.998 1324.33 534.564 1324.33 536.251C1324.33 537.215 1324.15 538.119 1323.79 538.962C1323.3 539.926 1322.33 541.974 1320.88 545.107C1319.55 548.119 1317.73 551.613 1315.43 555.589C1313.24 559.445 1310.58 563.542 1307.42 567.879C1304.27 572.217 1300.76 576.253 1296.88 579.989C1293 583.603 1288.76 586.615 1284.15 589.025C1279.67 591.314 1274.82 592.459 1269.6 592.459C1262.45 592.459 1256.51 590.471 1251.79 586.495C1247.06 582.398 1243.54 576.615 1241.24 569.144Z" fill="#9B9EA2"/>
<path d="M1330.52 515.105C1330.03 518.358 1329.43 521.431 1328.7 524.322C1327.97 527.094 1327.24 529.564 1326.52 531.733C1325.91 533.781 1325.37 535.468 1324.88 536.793C1324.4 538.119 1324.09 538.841 1323.97 538.962C1322.76 541.733 1320.64 543.119 1317.61 543.119C1315.91 543.119 1314.33 542.516 1312.88 541.311C1311.43 539.986 1310.7 538.359 1310.7 536.432C1310.7 535.709 1310.82 535.167 1311.06 534.805C1311.3 534.444 1311.67 533.721 1312.15 532.636C1312.64 531.552 1313.24 529.745 1313.97 527.214C1314.7 524.684 1315.61 520.768 1316.7 515.467C1314.64 515.467 1312.52 515.406 1310.33 515.286C1308.15 515.165 1306.15 514.744 1304.33 514.021C1302.39 513.298 1300.82 512.153 1299.61 510.587C1298.39 509.02 1297.79 506.852 1297.79 504.08C1297.79 502.032 1298.39 499.261 1299.61 495.767C1300.7 492.272 1302.21 488.838 1304.15 485.465C1306.09 482.091 1308.27 479.199 1310.7 476.79C1313.12 474.259 1315.55 472.994 1317.97 472.994C1320.76 472.994 1323 474.018 1324.7 476.067C1326.52 478.115 1327.91 480.645 1328.88 483.657C1329.85 486.549 1330.52 489.622 1330.88 492.875C1331.37 496.128 1331.61 498.96 1331.61 501.369C1333.67 501.369 1335.67 501.369 1337.61 501.369C1339.67 501.249 1341.61 501.189 1343.43 501.189C1350.34 501.189 1355.61 502.695 1359.25 505.707C1362.88 508.719 1364.7 513.659 1364.7 520.527C1364.7 523.298 1364.52 526.19 1364.16 529.202C1363.79 532.215 1363.37 535.347 1362.88 538.6C1362.4 541.733 1361.97 544.866 1361.61 547.999C1361.25 551.131 1361.06 554.204 1361.06 557.216C1361.06 561.554 1361.67 565.168 1362.88 568.06C1364.09 570.831 1365.61 573.06 1367.43 574.747C1369.25 576.434 1371.19 577.639 1373.25 578.362C1375.31 578.964 1377.19 579.266 1378.88 579.266C1384.1 579.266 1389.01 577.579 1393.61 574.205C1398.22 570.831 1402.46 566.795 1406.34 562.096C1410.22 557.276 1413.67 552.216 1416.7 546.914C1419.86 541.613 1422.46 536.974 1424.52 532.998C1425.13 531.913 1425.98 531.07 1427.07 530.467C1428.16 529.865 1429.31 529.564 1430.52 529.564C1432.7 529.564 1434.4 530.287 1435.61 531.733C1436.83 533.058 1437.43 534.564 1437.43 536.251C1437.43 537.456 1437.19 538.54 1436.7 539.504C1433.92 544.444 1430.64 550.047 1426.89 556.312C1423.25 562.457 1419.07 568.241 1414.34 573.663C1409.61 579.085 1404.28 583.663 1398.34 587.399C1392.52 591.134 1386.1 593.001 1379.07 593.001C1374.7 593.001 1370.58 592.158 1366.7 590.471C1362.82 588.905 1359.43 586.615 1356.52 583.603C1353.73 580.47 1351.49 576.675 1349.79 572.217C1348.09 567.638 1347.25 562.518 1347.25 556.855C1347.25 550.83 1347.85 544.866 1349.06 538.962C1350.28 532.937 1350.88 527.214 1350.88 521.792C1350.88 519.503 1350.34 517.816 1349.25 516.732C1348.28 515.527 1346.03 514.924 1342.52 514.924C1340.82 514.924 1338.94 514.924 1336.88 514.924C1334.94 514.924 1332.82 514.985 1330.52 515.105ZM1318.33 501.731C1318.33 500.887 1318.27 499.803 1318.15 498.478C1318.15 497.032 1318.03 495.646 1317.79 494.321C1317.67 492.995 1317.43 491.851 1317.06 490.887C1316.82 489.923 1316.52 489.441 1316.15 489.441C1315.79 489.441 1315.3 489.923 1314.7 490.887C1314.21 491.73 1313.67 492.815 1313.06 494.14C1312.46 495.345 1311.91 496.67 1311.43 498.116C1310.94 499.562 1310.58 500.767 1310.33 501.731H1318.33Z" fill="#9B9EA2"/>
<path d="M1492.16 591.917C1496.41 587.7 1500.71 583.422 1505.07 579.085C1509.44 574.627 1513.68 569.988 1517.8 565.168C1521.92 560.349 1525.74 555.348 1529.26 550.167C1532.89 544.866 1536.1 539.263 1538.89 533.359C1539.5 532.034 1540.35 531.07 1541.44 530.467C1542.53 529.745 1543.74 529.383 1545.07 529.383C1547.14 529.383 1548.77 530.106 1549.98 531.552C1551.32 532.998 1551.98 534.624 1551.98 536.432C1551.98 537.396 1551.8 538.299 1551.44 539.143C1547.68 546.974 1543.38 554.144 1538.53 560.65C1533.68 567.156 1528.59 573.362 1523.26 579.266C1517.92 585.049 1512.53 590.652 1507.07 596.074C1501.62 601.616 1496.41 607.159 1491.44 612.701C1490.95 621.015 1490.95 629.329 1491.44 637.643C1491.92 646.077 1492.16 654.993 1492.16 664.391C1492.16 672.102 1491.92 679.814 1491.44 687.525C1490.95 695.236 1490.16 702.586 1489.07 709.575C1487.98 716.683 1486.47 723.31 1484.53 729.455C1482.71 735.6 1480.34 740.902 1477.43 745.36C1474.53 749.938 1471.13 753.493 1467.25 756.023C1463.37 758.674 1458.83 759.999 1453.61 759.999C1445.01 759.999 1438.4 757.047 1433.8 751.143C1429.19 745.239 1426.89 736.986 1426.89 726.383C1426.89 720.599 1427.49 714.394 1428.7 707.767C1430.04 701.14 1431.86 694.272 1434.16 687.164C1436.46 680.175 1439.19 673.066 1442.34 665.837C1445.61 658.608 1449.13 651.559 1452.89 644.691C1456.65 637.823 1460.65 631.257 1464.89 624.991C1469.13 618.846 1473.43 613.243 1477.8 608.183C1478.04 602.399 1478.28 596.375 1478.53 590.11C1478.89 583.965 1479.25 578.241 1479.62 572.94C1476.46 578.482 1472.53 582.94 1467.8 586.314C1463.19 589.688 1458.1 591.375 1452.52 591.375C1443.31 591.375 1436.1 588.302 1430.89 582.157C1425.67 576.012 1423.07 567.578 1423.07 556.855C1423.07 549.023 1423.8 541.914 1425.25 535.528C1426.83 529.022 1428.46 523.479 1430.16 518.9C1431.98 514.201 1433.61 510.647 1435.07 508.237C1436.52 505.707 1437.25 504.502 1437.25 504.623C1438.58 502.574 1440.46 501.55 1442.89 501.55C1444.95 501.55 1446.58 502.273 1447.8 503.719C1449.13 505.044 1449.8 506.611 1449.8 508.418C1449.8 509.743 1449.43 510.948 1448.71 512.033C1448.83 511.912 1448.22 512.936 1446.89 515.105C1445.68 517.153 1444.28 520.166 1442.71 524.142C1441.25 528.118 1439.86 532.877 1438.52 538.42C1437.31 543.962 1436.7 550.047 1436.7 556.674C1436.7 563.301 1437.92 568.482 1440.34 572.217C1442.77 575.952 1446.71 577.82 1452.16 577.82C1459.07 577.82 1465.31 572.759 1470.89 562.638C1476.46 552.396 1481.19 537.576 1485.07 518.178C1485.31 516.611 1486.04 515.346 1487.25 514.382C1488.47 513.298 1489.92 512.756 1491.62 512.756C1493.56 512.756 1495.19 513.418 1496.53 514.744C1497.86 516.069 1498.53 517.696 1498.53 519.623C1498.53 519.985 1498.28 522.154 1497.8 526.13C1497.31 529.986 1496.71 535.167 1495.98 541.673C1495.37 548.179 1494.71 555.77 1493.98 564.445C1493.25 573 1492.65 582.157 1492.16 591.917ZM1477.62 630.232C1472.16 638.064 1467.13 646.318 1462.52 654.993C1458.04 663.668 1454.16 672.283 1450.89 680.838C1447.61 689.393 1445.07 697.586 1443.25 705.418C1441.43 713.249 1440.52 720.238 1440.52 726.383C1440.52 732.648 1441.55 737.528 1443.61 741.022C1445.68 744.637 1448.95 746.444 1453.43 746.444C1457.43 746.444 1460.95 744.456 1463.98 740.48C1467.13 736.624 1469.74 731.082 1471.8 723.853C1473.98 716.623 1475.62 707.827 1476.71 697.465C1477.8 687.224 1478.34 675.717 1478.34 662.945C1478.34 657.764 1478.22 652.523 1477.98 647.221C1477.86 641.92 1477.74 636.257 1477.62 630.232Z" fill="#9B9EA2"/>
<path d="M175.34 427.61C153.826 427.61 132.624 423.555 112.045 415.131C91.4667 407.019 73.0705 394.539 56.5452 378.003C40.0199 361.468 26.9244 340.876 17.2586 316.229C7.59285 291.581 0 262.566 0 229.494C0 196.423 7.59285 138.745 17.2586 114.097C26.9244 89.4497 40.0199 68.5462 56.5452 52.0105C73.0705 35.4748 91.4667 23.307 112.045 14.8832C132.624 6.77137 153.826 2.71545 175.34 2.71545C196.855 2.71545 217.745 6.77137 238.324 14.8832C258.902 23.307 277.299 35.4748 293.824 52.0105C310.349 68.5462 323.445 89.4497 333.111 114.097C342.776 138.745 347.765 196.423 347.765 229.494C347.765 262.566 342.776 291.581 333.111 316.229C323.445 340.876 310.349 361.468 293.824 378.003C277.299 394.539 258.902 407.019 238.324 415.131C217.745 423.555 196.855 427.61 175.34 427.61ZM175.34 393.573C193.113 393.573 209.717 392.253 226.554 384.453C243.391 376.653 258.718 365.188 272.125 349.276C280.076 339.841 287.214 329.666 293.398 318.003C297.642 309.997 301.437 301.29 304.737 291.639C312.532 267.928 316.395 259.098 316.395 227.587C316.395 196.076 312.341 165.702 304.546 141.991C296.439 118.279 285.838 98.6237 272.431 82.712C259.024 66.8003 243.746 54.9446 226.908 47.1447C210.071 39.3449 192.922 35.2889 175.15 35.2889C157.377 35.2889 139.917 39.3449 123.08 47.1447C106.242 54.9446 91.276 66.8003 77.8687 82.712C64.4614 98.6237 53.5484 118.279 45.7535 141.991C37.6467 165.702 33.5933 206.498 33.5933 238.01C37.759 268.495 37.8373 267.928 45.9441 291.639C49.1167 301.29 52.8163 309.997 56.9923 318.003C63.0764 329.666 70.1717 339.841 78.1221 349.276C91.5295 365.188 105.554 374.048 122.391 381.847C139.228 389.647 157.568 393.573 175.34 393.573Z" fill="#9B9EA2"/>
<path d="M656.117 414.692H361.374L611.841 30.6272H432.557C407.925 30.6272 391.088 41.547 381.734 63.0746C375.81 76.8023 372.692 91.778 372.38 108.314L372.068 111.122H365.832L366.456 98.0179C367.391 80.8582 368.015 63.0745 368.015 44.6669L367.703 0H521.399H682.908L422.227 391.882H591.262C615.895 391.882 632.732 380.962 642.086 359.434C648.01 345.707 651.128 330.731 651.44 314.507L651.751 311.699L665.8 327.333L665.176 340.437C664.241 357.597 655.805 375.38 655.805 393.788L656.117 414.692Z" fill="#9B9EA2"/>
<path d="M1369.66 414.692C1346.58 414.38 1328.5 414.599 1315.4 405.239C1302 395.88 1292.02 384.024 1284.85 369.672C1277.68 355.32 1271.44 334.821 1266.45 318.91C1261.77 304.87 1256.78 296.666 1250.86 283.874C1244.94 271.394 1236.83 261.098 1226.85 252.674C1216.56 244.563 1203.16 239.883 1186.01 238.635L1130.01 238.323V392.54C1130.01 397.844 1133.44 402.212 1139.99 405.02C1146.54 407.828 1152.46 409.388 1158.38 409.7V414.692C1138.12 413.444 1113.36 412.82 1105.25 412.82C1096.83 412.82 1082.49 413.444 1062.22 414.692V409.7C1068.77 409.388 1075.01 407.516 1081.24 404.396C1087.48 401.276 1090.6 397.22 1090.6 391.916V238.323H959.254L1019.12 382.556C1022.55 391.604 1028.16 397.844 1035.33 401.9C1042.5 405.956 1051.86 408.452 1063.39 409.7V414.692C1044.37 413.444 1015.14 412.82 1002.05 412.82C988.95 412.82 973.048 413.444 954.34 414.692V409.7C962.759 408.764 968.683 406.892 972.113 404.084C975.542 401.276 977.101 398.156 977.101 394.1C977.101 389.732 975.542 384.428 972.736 378.5L915.677 238.635C878.573 238.635 844.275 243.407 812.16 263.375C780.045 283.654 772.065 310.936 755.54 345.256L742.352 378.5C739.545 384.428 738.298 389.732 738.298 394.412C738.298 398.468 739.857 401.588 743.287 404.084C746.717 406.892 752.329 408.764 760.748 409.7V414.692C739.234 413.444 711.449 412.82 708.331 412.82C705.525 412.82 687.845 413.444 665.707 414.692V409.7C676.932 408.452 686.286 405.956 693.457 401.9C700.629 397.844 706.241 391.604 709.983 382.556L837.196 21.7298C831.584 8.93807 831.18 7.5976 825.879 7.5976V0H875.068L953.09 216.273H1161.42C1198.52 215.961 1222.66 212.385 1246.05 198.033C1273.8 181.186 1287.96 162.856 1290.32 125.074C1290.32 109.162 1288.37 93.8256 1281.2 79.4739C1271.62 63.3365 1270.79 62.1894 1255.16 52.114C1241.13 43.0662 1219.99 41.05 1199.1 41.05H1130.01V207.822H1090.6V32.8864C1090.6 27.5825 1087.48 23.2146 1081.24 20.0946C1075.01 17.2867 1068.77 15.7267 1062.22 15.4147V0H1207.52C1232.78 0 1255.16 3.90855 1274.69 18.2399C1303.34 41.05 1305.94 46.9026 1315.06 67.7483C1324.97 90.4348 1324.13 105.818 1324.13 122.665C1324.13 147.001 1319.14 166.657 1308.86 181.632C1298.57 196.608 1285.16 207.84 1268.63 215.64C1252.11 223.439 1234.34 228.431 1215.32 230.927C1234.96 234.983 1250.24 242.471 1261.77 252.767C1273 263.063 1281.73 275.23 1287.96 288.646C1293.89 302.374 1299.19 316.414 1303.55 330.765C1309.17 350.421 1316.65 367.581 1325.69 382.244C1334.73 397.22 1349.39 406.58 1369.66 410.012V414.692ZM795.544 254.056C820.282 238.223 794.242 255.359 826.792 237.119C854.854 222.767 879.309 216.897 911.425 216.273L859.343 59.9312L795.544 254.056Z" fill="#9B9EA2"/>
<path d="M326.548 309.146L307.28 330.924L156.243 173.387L176.17 153.844L326.548 309.146Z" fill="#9B9EA2"/>
<path d="M156.243 173.387L179.681 197.834L42.9672 318.003L20.8322 295.856L156.243 173.387Z" fill="#9B9EA2"/>
<rect x="143.261" y="264.818" width="23.8767" height="21.7061" fill="#9B9EA2"/>
<rect x="143.261" y="293.031" width="23.8767" height="21.7061" fill="#9B9EA2"/>
<rect x="173.643" y="264.818" width="21.7061" height="21.7061" fill="#9B9EA2"/>
<rect x="173.643" y="293.031" width="21.7061" height="21.7061" fill="#9B9EA2"/>
</svg>
