<?xml version="1.0" encoding="UTF-8"?>
<!-- Generator: Adobe Illustrator 25.2.0, SVG Export Plug-In . SVG Version: 6.00 Build 0)  -->
<svg xmlns="http://www.w3.org/2000/svg" xmlns:xlink="http://www.w3.org/1999/xlink" version="1.1" id="Capa_1" x="0px" y="0px" viewBox="0 0 512 512" style="enable-background:new 0 0 512 512;" xml:space="preserve" width="512" height="512">
<g>
	<g>
		<path style="fill:#241726;" d="M366.963,121.664c-2.32,0-4.48-0.046-5.854-0.075c-0.624-0.013-1.081-0.024-1.31-0.024    c-1.53,0-1.777-0.894-1.909-8.443c-4.193-0.996-8.174-2.661-11.859-4.964c-5.675,5.493-6.151,5.493-6.8,5.493    c-0.356,0-0.748-0.16-0.999-0.411c-0.161-0.16-0.486-0.472-0.932-0.9c-9.538-9.138-11.462-11.903-11.479-13.403    c-0.005-0.481,0.17-0.923,0.492-1.245c0.214-0.214,2.175-2.161,5.274-5.226c-1.56-3.048-2.72-6.31-3.456-9.723    c-4.208,0.024-6.843,0.033-7.139,0.033c-0.455,0-0.89-0.19-1.227-0.532c-1.049-1.071-1.642-4.386-1.363-17.583    c0.013-0.622,0.024-1.079,0.024-1.308c0-1.517,0.343-1.84,10.884-1.944c1.204-3.54,2.939-6.922,5.169-10.083l-6.453-6.814    c-0.48-0.507-0.489-1.298-0.021-1.816c1.378-1.527,8.397-9.195,11.19-10.126c0.137-0.046,0.34-0.078,0.484-0.078    c0.671,0,1.428,0.001,8.706,6.507c3.353-1.787,6.941-3.078,10.692-3.847c0.179-6.848,0.303-11.202,0.303-11.202    c0.021-0.698,0.573-1.263,1.271-1.3c0,0,3.021-0.154,6.351-0.154c6.19,0,7.941,0.518,8.72,0.907    c0.854,0.426,1.427,0.711,2.027,12.361c3.124,0.856,6.125,2.091,8.947,3.678c7.742-6.95,8.518-6.95,9.204-6.95    c0.144,0,0.348,0.033,0.484,0.078c2.793,0.931,9.811,8.599,11.189,10.126c0.468,0.518,0.459,1.309-0.02,1.816    c0,0-2.77,2.933-7.181,7.581c2.173,3.252,3.846,6.793,4.985,10.551c6.551,0.171,10.686,0.289,10.686,0.289    c0.698,0.021,1.263,0.573,1.3,1.271c0.105,2.054,0.562,12.439-0.753,15.073c-0.401,0.802-0.671,1.342-10.125,1.901    c-0.634,3.642-1.756,7.139-3.344,10.427c3.613,3.571,5.912,5.854,6.146,6.088c0.322,0.322,0.497,0.764,0.492,1.245    c-0.017,1.5-1.942,4.265-11.479,13.403c-0.446,0.428-0.771,0.74-0.932,0.9c-0.251,0.251-0.643,0.411-0.999,0.411l0,0    c-0.668-0.001-1.157-0.001-7.309-5.989c-3.048,1.999-6.351,3.566-9.846,4.668c0.022,3.932,0.03,6.384,0.03,6.67    C379.221,120.843,377.451,121.664,366.963,121.664z M360.825,118.905c0.107,0.001,0.221,0.004,0.341,0.007    c1.36,0.029,3.499,0.075,5.797,0.075c6.538,0,8.811-0.379,9.579-0.599c-0.004-1.105-0.014-3.582-0.034-7.04    c-0.004-0.6,0.392-1.128,0.969-1.295c3.931-1.132,7.614-2.885,10.95-5.208c0.527-0.367,1.241-0.309,1.701,0.141    c3.621,3.546,5.294,5.029,6.062,5.649c0.075-0.071,0.153-0.146,0.235-0.225c7.767-7.443,9.974-10.216,10.52-11.247    c-0.919-0.913-3.204-3.179-6.397-6.334c-0.416-0.411-0.516-1.045-0.25-1.564c1.852-3.599,3.092-7.486,3.69-11.555    c0.093-0.629,0.615-1.108,1.25-1.142c6.284-0.349,8.391-0.683,9.09-0.855c0.544-1.896,0.569-7.714,0.394-12.136    c-1.811-0.051-5.5-0.152-10.415-0.28c-0.588-0.016-1.098-0.415-1.255-0.982c-1.152-4.171-3-8.068-5.491-11.581    c-0.37-0.522-0.319-1.232,0.12-1.696c3.336-3.514,5.837-6.156,7.069-7.46c-3.044-3.295-7.247-7.461-8.928-8.341    c-0.369,0.279-2.194,1.552-8.057,6.845c-0.435,0.394-1.076,0.46-1.582,0.157c-3.129-1.863-6.508-3.252-10.044-4.128    c-0.574-0.143-0.987-0.643-1.016-1.234c-0.388-7.92-0.771-10.422-0.965-11.207c-0.719-0.199-2.565-0.496-7.156-0.496    c-1.964,0-3.817,0.055-4.979,0.098c-0.054,1.887-0.162,5.81-0.297,11.028c-0.017,0.635-0.479,1.173-1.106,1.283    c-4.162,0.737-8.12,2.155-11.763,4.213c-0.501,0.28-1.126,0.216-1.555-0.171c-5.131-4.615-6.973-5.96-7.617-6.35    c-1.727,0.957-5.855,5.053-8.859,8.302l6.36,6.715c0.448,0.473,0.492,1.2,0.102,1.722c-2.573,3.449-4.499,7.192-5.726,11.125    c-0.174,0.556-0.686,0.935-1.268,0.94c-5.726,0.047-8.169,0.191-9.208,0.301c-0.001,0.107-0.004,0.22-0.007,0.339    c-0.228,10.746,0.171,14.266,0.515,15.38c1.159-0.004,3.852-0.016,7.622-0.038c0.669-0.031,1.206,0.458,1.323,1.092    c0.727,3.876,2.028,7.553,3.871,10.929c0.286,0.523,0.19,1.174-0.234,1.593c-2.739,2.707-4.706,4.658-5.543,5.489    c0.545,1.03,2.753,3.804,10.52,11.247c0.082,0.078,0.161,0.154,0.235,0.225c0.728-0.588,2.277-1.957,5.538-5.135    c0.45-0.443,1.151-0.506,1.674-0.158c3.954,2.618,8.289,4.433,12.885,5.394c0.613,0.128,1.057,0.664,1.066,1.289    C360.612,116.116,360.732,118.02,360.825,118.905z"/>
		<path style="fill:#241726;" d="M367.912,103.163c-15.868,0-28.778-12.91-28.778-28.778s12.91-28.776,28.778-28.776    s28.776,12.909,28.776,28.776S383.78,103.163,367.912,103.163z M367.912,48.287c-14.391,0-26.1,11.708-26.1,26.098    c0,14.391,11.708,26.1,26.1,26.1c14.39,0,26.098-11.708,26.098-26.1C394.01,59.995,382.302,48.287,367.912,48.287z"/>
		<path style="fill:#241726;" d="M367.912,90.903c-8.939,0-16.212-7.272-16.212-16.21s7.273-16.212,16.212-16.212    s16.21,7.273,16.21,16.212S376.851,90.903,367.912,90.903z M367.912,61.159c-7.462,0-13.534,6.071-13.534,13.534    c0,7.461,6.071,13.532,13.534,13.532c7.461,0,13.532-6.071,13.532-13.532C381.444,67.23,375.373,61.159,367.912,61.159z"/>
	</g>
	<g>
		<path style="fill:#241726;" d="M429.641,247.78c-3.279,0-6.334-0.064-8.277-0.106c-0.889-0.018-1.54-0.033-1.867-0.033    c-1.475,0-1.95,0-2.154-11.846c-6.181-1.416-12.031-3.865-17.419-7.29c-8.172,7.927-8.847,7.927-9.559,7.927    c-0.356,0-0.77-0.166-1.021-0.417c-0.233-0.233-0.707-0.686-1.355-1.308c-13.3-12.749-16.039-16.641-16.06-18.561    c-0.005-0.53,0.183-1.013,0.532-1.363c0.31-0.31,3.201-3.184,7.759-7.689c-2.352-4.507-4.073-9.355-5.128-14.439    c-6.22,0.035-10.13,0.047-10.561,0.047c-0.493,0-0.969-0.208-1.339-0.587c-1.346-1.373-2.161-6.065-1.769-24.497    c0.018-0.889,0.033-1.54,0.033-1.866c0-1.561,0-2.056,15.26-2.201c1.739-5.236,4.305-10.235,7.638-14.884    c-5.829-6.147-9.453-9.984-9.453-9.984c-0.48-0.507-0.489-1.298-0.021-1.816c1.186-1.315,11.706-12.885,15.61-14.186    c0.137-0.046,0.365-0.081,0.509-0.081c0.774,0,1.828,0,12.252,9.332c4.923-2.669,10.218-4.573,15.768-5.666    c0.26-9.952,0.441-16.308,0.441-16.308c0.021-0.698,0.573-1.263,1.271-1.3c0.042-0.001,4.32-0.218,8.967-0.218    c9.649,0,11.495,0.923,12.102,1.227c0.932,0.467,1.74,0.871,2.583,17.439c4.651,1.242,9.111,3.075,13.283,5.461    c11.082-9.968,12.166-9.967,12.962-9.967c0.144,0,0.371,0.035,0.507,0.08c3.904,1.302,14.425,12.872,15.611,14.187    c0.468,0.518,0.459,1.309-0.02,1.816c0,0-4.052,4.29-10.479,11.062c3.243,4.768,5.712,9.989,7.354,15.549    c9.512,0.248,15.536,0.42,15.536,0.42c0.698,0.021,1.263,0.573,1.3,1.271c0.09,1.768,0.833,17.387-1.008,21.069    c-0.435,0.871-0.813,1.625-14.313,2.413c-0.9,5.395-2.558,10.572-4.939,15.414c5.279,5.213,8.647,8.562,8.986,8.9    c0.35,0.35,0.539,0.834,0.533,1.364c-0.021,1.921-2.76,5.812-16.06,18.561c-0.647,0.621-1.122,1.075-1.355,1.308    c-0.251,0.251-0.666,0.417-1.02,0.417h-0.001c-0.732,0-1.425,0-10.287-8.637c-4.49,2.998-9.383,5.319-14.571,6.915    c0.033,5.808,0.044,9.442,0.044,9.857C446.448,246.387,445.211,247.78,429.641,247.78z M420.455,244.976    c0.28,0.007,0.604,0.013,0.966,0.021c1.929,0.041,4.962,0.105,8.22,0.105c10.45,0,13.347-0.686,14.127-1.004    c-0.004-1.296-0.017-4.999-0.048-10.376c-0.004-0.6,0.392-1.128,0.969-1.295c5.624-1.62,10.896-4.128,15.672-7.453    c0.526-0.367,1.242-0.309,1.701,0.141c5.722,5.6,8.057,7.621,9.011,8.341c0.205-0.197,0.443-0.426,0.71-0.681    c11.917-11.423,14.694-15.189,15.163-16.421c-1.059-1.053-4.446-4.416-9.343-9.25c-0.416-0.412-0.516-1.045-0.25-1.565    c2.649-5.152,4.426-10.716,5.283-16.54c0.093-0.629,0.615-1.106,1.25-1.142c9.81-0.547,12.529-1.074,13.279-1.31    c0.947-2.669,0.922-11.962,0.656-18.189c-2.329-0.065-7.8-0.217-15.271-0.411c-0.588-0.016-1.098-0.415-1.255-0.982    c-1.652-5.974-4.295-11.551-7.859-16.576c-0.37-0.522-0.319-1.232,0.12-1.696c5.073-5.344,8.784-9.266,10.371-10.945    c-4.248-4.626-10.869-11.282-13.382-12.425c-0.476,0.272-2.882,1.823-11.812,9.888c-0.437,0.395-1.077,0.459-1.582,0.157    c-4.475-2.666-9.311-4.655-14.377-5.91c-0.574-0.143-0.987-0.643-1.016-1.234c-0.594-12.09-1.172-15.393-1.463-16.286    c-0.921-0.316-3.502-0.819-10.595-0.819c-3.09,0-6.01,0.097-7.596,0.161c-0.068,2.42-0.229,8.229-0.434,16.14    c-0.017,0.635-0.479,1.172-1.105,1.283c-5.964,1.058-11.63,3.086-16.839,6.031c-0.5,0.279-1.126,0.216-1.555-0.171    c-7.978-7.173-10.42-8.833-11.146-9.211c-2.556,1.217-9.109,7.806-13.323,12.397c1.479,1.565,4.807,5.083,9.365,9.887    c0.449,0.473,0.492,1.2,0.102,1.722c-3.682,4.936-6.439,10.293-8.195,15.924c-0.174,0.556-0.686,0.935-1.267,0.94    c-8.983,0.075-12.337,0.311-13.585,0.485c-0.005,0.281-0.013,0.605-0.021,0.969c-0.35,16.518,0.35,21.145,0.889,22.348    c1.348-0.003,5.364-0.018,11.196-0.052c0.628,0.092,1.206,0.456,1.323,1.092c1.04,5.548,2.904,10.81,5.54,15.64    c0.286,0.524,0.191,1.176-0.234,1.594c-4.231,4.18-7.162,7.089-8.133,8.056c0.468,1.232,3.244,4.996,15.163,16.421    c0.265,0.255,0.503,0.483,0.707,0.68c0.889-0.675,3.053-2.528,8.271-7.613c0.451-0.441,1.145-0.506,1.675-0.158    c5.651,3.746,11.856,6.343,18.442,7.72c0.612,0.128,1.055,0.664,1.064,1.291C420.104,241.281,420.31,243.921,420.455,244.976z"/>
		<path style="fill:#241726;" d="M430.987,221.577c-22.166,0-40.2-18.033-40.2-40.2s18.033-40.2,40.2-40.2s40.2,18.033,40.2,40.2    S453.153,221.577,430.987,221.577z M430.987,143.856c-20.689,0-37.522,16.833-37.522,37.522s16.833,37.522,37.522,37.522    s37.522-16.833,37.522-37.522S451.676,143.856,430.987,143.856z"/>
		<path style="fill:#241726;" d="M430.987,204.213c-12.353,0-22.402-10.049-22.402-22.402c0-12.353,10.049-22.403,22.402-22.403    s22.402,10.05,22.402,22.403C453.388,194.164,443.34,204.213,430.987,204.213z M430.987,162.086    c-10.875,0-19.724,8.849-19.724,19.725c0,10.875,8.849,19.724,19.724,19.724s19.724-8.849,19.724-19.724    C450.711,170.935,441.862,162.086,430.987,162.086z"/>
	</g>
	<g>
		<g>
			<path style="fill:#FFFFFF;" d="M227.785,231.996c0,0-40.097,186.3-40.469,191.333c-0.372,5.033,20.671,84.386,26.724,77.318     c18.647-21.772,51.513-60.903,51.513-60.903L310.28,248.29C310.28,248.29,233.171,220.755,227.785,231.996z"/>
			<path style="fill:#241726;" d="M213.189,502.431h-0.001c-0.851-0.001-1.678-0.446-2.528-1.361     c-8.016-8.635-25.061-72.666-24.678-77.84c0.374-5.067,38.857-183.905,40.495-191.515c0.022-0.103,0.056-0.203,0.102-0.297     c1.114-2.326,4.19-3.457,9.403-3.457c21.107,0,72.569,18.291,74.749,19.07c0.642,0.229,1.009,0.902,0.854,1.565l-44.728,191.452     c-0.047,0.205-0.143,0.395-0.279,0.557c-0.328,0.391-33.084,39.385-51.521,60.912     C214.411,502.271,213.684,502.431,213.189,502.431z M229.055,232.458c-13.871,64.453-40.115,187.064-40.404,190.968     c-0.144,1.942,4.04,19.726,9.895,39.38c8.145,27.341,12.888,35.966,14.544,36.885c17.711-20.677,48.417-57.214,51.232-60.564     l44.381-189.972c-7.792-2.726-53.763-18.517-72.722-18.517C230.982,230.638,229.492,231.729,229.055,232.458z"/>
		</g>
		<path style="fill:#EC7E96;" d="M267.135,441.726c-4.174,1.47-12.374-16.653-17.245-21.205    c-4.872-4.553-21.478,17.631-24.005,17.444s-16.166-18.892-19.386-23.45s-21.376,8.465-21.376,8.465    s20.419-126.757,28.453-125.864c8.034,0.893,85.377,14.907,84.484,17.585C297.167,317.378,267.135,441.726,267.135,441.726z"/>
		<path style="fill:#648F9F;" d="M195.165,460.471c0,0,47.01,6.069,44.521,11.047c-8.034,16.068-23.432,31.801-29.792,32.47    C205.871,504.412,195.165,460.471,195.165,460.471z"/>
		<path style="fill:#F7D76F;" d="M212.746,293.787c0,0,79.288,22.572,84.739,10.588c5.45-11.984,13.628-39.42,13.628-39.42    s103.172-11.648,105.71-110.209c1.806-70.156-160.543-168.754-234.549-67.305s34.967,161.931,34.967,161.931L212.746,293.787z"/>
		<g>
			<path style="fill:#FFFFFF;" d="M216.097,264.837c0,0,93.076,14.66,92.688,17.569c-0.388,2.908-5.725,30.675-10.077,33.463     c-4.353,2.788-89.512-16.124-89.512-16.124L216.097,264.837z"/>
			<path style="fill:#241726;" d="M296.721,317.488c-13.65,0-84.794-15.766-87.816-16.437c-0.71-0.158-1.164-0.854-1.024-1.568     l6.902-34.908c0.141-0.705,0.813-1.159,1.522-1.063c0.233,0.038,23.546,3.714,46.51,7.698     c47.71,8.277,47.536,9.576,47.297,11.372c-0.041,0.301-5.362,31.006-10.683,34.412     C298.892,317.34,298.081,317.488,296.721,317.488z M210.763,298.719c9.862,2.171,73.579,16.091,85.958,16.091     c1.038,0,1.327-0.106,1.339-0.11c3.168-2.036,8.237-24.984,9.29-31.734c-6.137-2.69-57.388-11.423-90.189-16.607L210.763,298.719     z"/>
		</g>
		<path style="fill:#241726;" d="M300.499,310.154c-0.101,0-0.203-0.01-0.305-0.035l-89.79-20.842c-0.719-0.166-1.168-0.887-1-1.607    s0.892-1.173,1.607-1l89.79,20.842c0.719,0.166,1.168,0.887,1,1.607C301.658,309.736,301.108,310.154,300.499,310.154z"/>
		<path style="fill:#241726;" d="M303.54,295.21c-0.09,0-0.183-0.009-0.275-0.029l-87.561-18.257    c-0.724-0.15-1.189-0.859-1.037-1.583c0.149-0.723,0.862-1.2,1.584-1.037l87.561,18.257c0.724,0.15,1.189,0.859,1.037,1.583    C304.718,294.776,304.161,295.21,303.54,295.21z"/>
		<path style="fill:#241726;" d="M280.184,274.501c-0.214,0-0.433-0.051-0.634-0.161c-0.651-0.352-0.894-1.164-0.543-1.814    c11.724-21.717,38.857-79.93,23.818-88.403c-4.145-2.334-8.01-2.228-11.479,0.318c-0.753,0.553-1.465,1.195-2.134,1.909    c1.607,8.604,0.645,18.319-1.536,24.107c-1.947,5.169-4.273,5.835-5.891,5.474c-1.038-0.228-2.402-1.092-3.001-3.915    c-1.336-6.31,1.581-19.049,7.576-26.431c-1.23-5.612-3.699-10.486-7.869-12.792c-3.085-1.708-6.168-1.136-9.43,1.742    c-2.847,2.513-5.43,6.491-7.536,11.003c0.494,2.388,0.803,5.084,0.918,8.069c0.336,8.748-1.291,21.854-5.114,22.666    c-0.881,0.197-2.134-0.069-3.06-2.384c-2.266-5.667-0.145-18.225,4.448-28.575c-0.01-0.048-0.022-0.095-0.034-0.144    c-1.449-6.072-4.061-9.402-7.765-9.896c-0.904-0.123-1.756,0.187-2.623,0.94c-9.832,8.548-12.79,62.843-12.981,90.359    c-0.005,0.736-0.604,1.33-1.339,1.33c-0.003,0-0.007,0-0.009,0c-0.74-0.005-1.335-0.609-1.33-1.348    c0.022-3.298,0.711-80.895,13.902-92.362c1.458-1.267,3.053-1.801,4.732-1.573c4.209,0.561,7.338,3.697,9.208,9.071    c1.976-3.71,4.282-6.934,6.809-9.164c4.099-3.614,8.422-4.332,12.499-2.078c4.439,2.456,7.209,7.257,8.728,12.848    c0.404-0.364,0.82-0.703,1.245-1.016c4.332-3.183,9.304-3.35,14.38-0.492c8.75,4.93,7.487,22.046-3.754,50.871    c-8.195,21.013-18.916,40.937-19.023,41.137C281.121,274.246,280.66,274.501,280.184,274.501z M259.538,190.324    c-3.201,8.705-4.564,18.121-2.783,22.572c0.077,0.195,0.149,0.347,0.211,0.464C258.597,211.074,260.555,200.19,259.538,190.324z     M286.977,189.21c-4.675,7.082-6.548,17.645-5.573,22.25c0.252,1.193,0.66,1.791,0.953,1.855c0.629,0.135,1.756-0.998,2.813-3.804    C286.985,204.697,287.909,196.664,286.977,189.21z"/>
		<path style="fill:#241726;" d="M248.056,421.306c-0.111,0-0.224-0.013-0.336-0.042c-0.715-0.186-1.147-0.915-0.962-1.632    l27.114-105.11c0.187-0.715,0.915-1.144,1.632-0.962c0.715,0.186,1.147,0.915,0.962,1.632l-27.114,105.11    C249.195,420.906,248.652,421.306,248.056,421.306z"/>
		<path style="fill:#241726;" d="M205.543,414.946c-0.111,0-0.224-0.013-0.336-0.043c-0.717-0.184-1.147-0.915-0.961-1.631    l27.784-107.453c0.184-0.718,0.911-1.155,1.631-0.961c0.717,0.184,1.147,0.915,0.961,1.631l-27.784,107.453    C206.682,414.546,206.138,414.946,205.543,414.946z"/>
	</g>
	<g>
		<path style="fill:#FFFFFF;" d="M414.844,323.506c0,0-2.999-21.172,17.473-14.512s14.013,26.135,6.169,19.569    s6.532-29.235,22.245-19.357c15.712,9.878,12.41,29.376,1.348,30.921c-11.062,1.544,6.484-22.728,20.581-7.981    s-16.1,42.179-28.656,32.324s-2.963-26.052,0.121-16.268c3.084,9.784-4.881,19.486-26.98,19.322    c-22.099-0.165-12.374-34.257-4.554-24.437c7.82,9.82-4.893,21.113-20.594,9.608C386.297,341.189,403.843,316.916,414.844,323.506    z"/>
		<path style="fill:#241726;" d="M427.698,368.865l-0.564-0.003c-7.226-0.054-12.341-3.714-14.178-10.084    c-3.818-0.434-7.859-2.152-11.75-5.004c-6.158-4.513-8.272-11.431-5.802-18.982c2.521-7.704,9.285-13.74,15.398-13.74    c0.88,0,1.733,0.119,2.552,0.354c-0.068-2.933,0.314-8.042,3.321-11.506c3.289-3.788,8.745-4.558,16.055-2.18    c2.857,0.93,5.362,2.151,7.464,3.639c3.506-3.796,8.016-5.95,12.542-5.95c2.967,0,5.896,0.896,8.706,2.662    c6.792,4.271,10.946,10.904,11.325,17.963c3.969,0.055,7.621,1.798,10.858,5.185c4.394,4.596,5.233,10.824,2.364,17.538    c-4.358,10.195-16.286,19.139-25.526,19.139c-2.83,0-5.281-0.798-7.287-2.373c-0.999-0.783-1.9-1.633-2.694-2.538    C445.536,366.837,437.704,368.864,427.698,368.865z M415.792,358.859c1.284,3.616,4.326,7.273,11.363,7.325l0.543,0.003    c11.617-0.001,17.867-2.753,21.177-5.343c-3.2-5.019-3.007-10.535-1.289-13.957c0.973-1.94,2.393-3.053,3.894-3.053    c0.998,0,2.835,0.515,3.923,3.966c1.543,4.896,0.469,9.705-2.94,13.381c0.693,0.795,1.485,1.544,2.368,2.236    c1.523,1.196,3.419,1.802,5.634,1.802c8.153,0,19.146-8.348,23.063-17.514c1.713-4.008,2.784-9.799-1.837-14.633    c-2.722-2.848-5.736-4.314-8.962-4.358c-0.574,6.783-4.749,11.942-10.465,12.74c-0.411,0.058-0.79,0.084-1.136,0.084h-0.001    c-2.746,0-3.8-1.685-3.872-3.264c-0.18-3.97,5.523-10.709,12.843-12.017c-0.307-6.215-4.009-12.099-10.08-15.916    c-5.984-3.763-12.792-2.545-17.736,2.707c4.91,4.545,5.859,10.191,4.531,13.969c-0.915,2.602-2.894,4.218-5.165,4.22h-0.001    c-1.364,0-2.716-0.554-4.02-1.646c-4.312-3.609-2.968-10.777,0.871-16.149c-1.85-1.284-4.063-2.348-6.596-3.172    c-6.205-2.019-10.632-1.57-13.204,1.389c-3.553,4.09-2.538,11.587-2.528,11.661c0.072,0.511-0.156,1.019-0.586,1.304    c-0.429,0.285-0.987,0.297-1.428,0.034c-1.025-0.615-2.154-0.926-3.354-0.926c-4.941,0-10.707,5.336-12.852,11.895    c-0.987,3.018-2.492,10.616,4.838,15.989c3.217,2.356,6.503,3.851,9.604,4.38c-0.607-4.949,0.625-10.569,3.126-13.705    c1.21-1.517,2.627-2.318,4.097-2.318c1.006,0,2.521,0.396,4.022,2.28c2.772,3.482,3.425,7.425,1.789,10.819    C423.811,356.423,420.17,358.588,415.792,358.859z M451.479,346.511c-0.285,0-0.921,0.42-1.501,1.577    c-1.278,2.546-1.451,6.865,0.883,10.866c2.481-2.913,3.189-6.535,1.986-10.35C452.325,346.949,451.724,346.511,451.479,346.511z     M419.616,342.649c-0.617,0-1.329,0.466-2.003,1.31c-1.897,2.379-3.253,7.466-2.488,12.248c3.633-0.076,6.641-1.709,7.89-4.299    c1.172-2.431,0.635-5.343-1.471-7.988C421.082,343.339,420.372,342.649,419.616,342.649z M470.008,329.003    c-5.994,1.346-10.178,6.929-10.078,9.149c0.013,0.298,0.031,0.706,1.195,0.706c0.203-0.052,0.49-0.02,0.768-0.058    C466.199,338.199,469.386,334.266,470.008,329.003z M440.583,315.124c-3.367,4.744-3.971,10.125-1.238,12.412    c2.061,1.723,4.068,1.075,4.941-1.408C445.307,323.222,444.501,318.82,440.583,315.124z"/>
	</g>
	<g>
		<path style="fill:#FFFFFF;" d="M116.753,466.641c0,0-2.999-21.172,17.473-14.512s14.013,26.135,6.169,19.569    c-7.844-6.566,6.532-29.235,22.245-19.357c15.712,9.878,12.41,29.376,1.348,30.921c-11.062,1.544,6.484-22.728,20.581-7.981    c14.098,14.747-16.1,42.179-28.656,32.324c-12.555-9.855-2.963-26.052,0.121-16.268s-4.881,19.486-26.98,19.322    s-12.374-34.257-4.554-24.437s-4.893,21.113-20.594,9.608C88.206,484.324,105.752,460.051,116.753,466.641z"/>
		<path style="fill:#241726;" d="M129.607,512l-0.564-0.003c-7.226-0.054-12.341-3.714-14.178-10.084    c-3.818-0.434-7.859-2.152-11.75-5.004c-6.157-4.513-8.272-11.431-5.802-18.982c2.521-7.704,9.285-13.74,15.398-13.74    c0.88,0,1.733,0.119,2.552,0.354c-0.068-2.933,0.314-8.042,3.321-11.506c3.289-3.788,8.745-4.558,16.055-2.18    c2.857,0.93,5.362,2.151,7.464,3.639c3.506-3.796,8.016-5.95,12.542-5.95c2.967,0,5.896,0.896,8.706,2.662    c6.792,4.271,10.946,10.904,11.325,17.962c3.969,0.055,7.621,1.798,10.858,5.185c4.394,4.596,5.233,10.824,2.364,17.538    c-4.358,10.195-16.286,19.139-25.526,19.139c-2.83,0-5.281-0.798-7.287-2.373c-0.999-0.783-1.9-1.633-2.694-2.538    C147.445,509.972,139.613,511.999,129.607,512z M117.701,501.994c1.284,3.616,4.326,7.273,11.363,7.325l0.543,0.003    c11.617-0.001,17.867-2.752,21.177-5.343c-3.2-5.019-3.007-10.535-1.289-13.957c0.973-1.94,2.393-3.053,3.894-3.053    c0.998,0,2.835,0.515,3.923,3.966c1.543,4.896,0.469,9.705-2.939,13.381c0.693,0.795,1.485,1.544,2.368,2.236    c1.523,1.196,3.419,1.802,5.634,1.802c8.153,0,19.146-8.348,23.063-17.514c1.713-4.008,2.784-9.799-1.837-14.633    c-2.722-2.848-5.736-4.314-8.962-4.358c-0.574,6.783-4.749,11.942-10.465,12.74c-0.411,0.058-0.79,0.084-1.136,0.084h-0.001    c-2.746,0-3.8-1.685-3.872-3.264c-0.18-3.97,5.523-10.709,12.843-12.017c-0.307-6.215-4.009-12.099-10.08-15.916    c-5.984-3.763-12.792-2.545-17.736,2.707c4.91,4.545,5.859,10.191,4.531,13.969c-0.915,2.602-2.894,4.218-5.165,4.22h-0.001    c-1.364,0-2.716-0.554-4.02-1.646c-4.312-3.609-2.968-10.777,0.871-16.149c-1.85-1.284-4.063-2.348-6.596-3.172    c-6.205-2.019-10.632-1.57-13.204,1.389c-3.553,4.09-2.538,11.587-2.528,11.661c0.072,0.511-0.156,1.019-0.586,1.304    c-0.429,0.285-0.987,0.297-1.428,0.034c-1.025-0.615-2.154-0.926-3.354-0.926c-4.941,0-10.707,5.336-12.852,11.895    c-0.987,3.018-2.492,10.616,4.838,15.989c3.217,2.356,6.503,3.851,9.604,4.38c-0.607-4.949,0.625-10.569,3.126-13.705    c1.21-1.517,2.627-2.318,4.097-2.318c1.006,0,2.521,0.396,4.022,2.28c2.772,3.482,3.425,7.425,1.789,10.819    C125.72,499.558,122.079,501.724,117.701,501.994z M153.388,489.647c-0.285,0-0.921,0.42-1.501,1.577    c-1.278,2.546-1.451,6.865,0.883,10.866c2.481-2.913,3.189-6.535,1.986-10.35C154.234,490.085,153.633,489.647,153.388,489.647z     M121.525,485.784c-0.617,0-1.329,0.465-2.003,1.31c-1.897,2.379-3.253,7.466-2.488,12.248c3.633-0.076,6.641-1.709,7.89-4.299    c1.172-2.431,0.635-5.343-1.471-7.988C122.991,486.474,122.281,485.784,121.525,485.784z M171.917,472.138    c-5.994,1.346-10.178,6.929-10.078,9.149c0.013,0.298,0.031,0.706,1.195,0.706c0.203-0.052,0.49-0.02,0.768-0.058    C168.108,481.334,171.295,477.401,171.917,472.138z M142.492,458.259c-3.367,4.744-3.971,10.125-1.238,12.412    c2.061,1.723,4.068,1.075,4.941-1.408C147.217,466.357,146.41,461.956,142.492,458.259z"/>
	</g>
	<g>
		<path style="fill:#FFFFFF;" d="M31.787,266.377c0,0-2.999-21.172,17.473-14.512c20.472,6.66,14.013,26.135,6.169,19.569    s6.532-29.235,22.245-19.357s12.41,29.377,1.348,30.921c-11.062,1.544,6.484-22.728,20.581-7.981s-16.1,42.179-28.656,32.324    s-2.963-26.052,0.121-16.268c3.084,9.784-4.881,19.486-26.98,19.322c-22.099-0.165-12.374-34.257-4.554-24.437    s-4.893,21.113-20.594,9.608C3.24,284.06,20.786,259.787,31.787,266.377z"/>
		<path style="fill:#241726;" d="M44.641,311.736l-0.564-0.003c-7.227-0.054-12.342-3.714-14.178-10.084    c-3.817-0.435-7.857-2.152-11.749-5.004c-6.157-4.511-8.272-11.43-5.802-18.981c2.521-7.706,9.284-13.742,15.397-13.742    c0.88,0,1.733,0.119,2.552,0.354c-0.068-2.933,0.314-8.042,3.321-11.506c3.291-3.792,8.741-4.558,16.056-2.18    c2.857,0.93,5.361,2.151,7.462,3.639c3.507-3.796,8.017-5.948,12.544-5.948c2.967,0,5.895,0.894,8.705,2.661    c6.792,4.271,10.946,10.905,11.325,17.963c3.969,0.055,7.622,1.799,10.86,5.186c4.394,4.596,5.233,10.826,2.363,17.539    c-4.358,10.194-16.285,19.138-25.524,19.138c-2.831,0-5.283-0.799-7.289-2.373c-0.999-0.785-1.9-1.635-2.694-2.539    C62.479,309.708,54.645,311.734,44.641,311.736z M32.735,301.73c1.284,3.616,4.324,7.273,11.363,7.325l0.543,0.003    c11.615-0.001,17.867-2.753,21.177-5.343c-3.2-5.017-3.006-10.534-1.289-13.957c0.974-1.94,2.394-3.053,3.895-3.053    c0.998,0,2.835,0.515,3.923,3.966c1.543,4.896,0.468,9.706-2.939,13.381c0.692,0.795,1.484,1.544,2.367,2.237    c1.523,1.195,3.419,1.802,5.636,1.802c8.152,0,19.145-8.348,23.062-17.513c1.713-4.008,2.785-9.8-1.836-14.635    c-2.722-2.848-5.738-4.314-8.964-4.36c-0.574,6.784-4.748,11.942-10.465,12.74c-0.411,0.058-0.79,0.084-1.136,0.084h-0.001    c-2.746,0-3.8-1.685-3.872-3.264c-0.18-3.97,5.523-10.709,12.843-12.016c-0.306-6.216-4.009-12.101-10.08-15.917    c-5.982-3.759-12.795-2.546-17.735,2.708c4.91,4.544,5.858,10.19,4.531,13.968c-0.915,2.602-2.895,4.22-5.166,4.22h-0.001    c-1.364,0-2.716-0.553-4.02-1.645c-4.312-3.609-2.967-10.779,0.872-16.149c-1.85-1.285-4.063-2.35-6.596-3.174    c-6.198-2.019-10.628-1.574-13.2,1.382c-3.544,4.073-2.543,11.594-2.533,11.67c0.071,0.51-0.157,1.017-0.587,1.301    c-0.429,0.286-0.982,0.302-1.427,0.033c-1.025-0.613-2.154-0.924-3.354-0.924c-4.94,0-10.705,5.336-12.851,11.897    c-0.987,3.018-2.492,10.616,4.838,15.988c3.217,2.356,6.501,3.851,9.603,4.38c-0.607-4.949,0.626-10.569,3.128-13.705    c1.21-1.516,2.626-2.317,4.095-2.317c1.007,0,2.522,0.395,4.023,2.28c2.772,3.481,3.425,7.425,1.787,10.818    C40.754,299.294,37.113,301.461,32.735,301.73z M68.423,289.382c-0.286,0-0.921,0.42-1.501,1.577    c-1.279,2.546-1.451,6.866,0.881,10.867c2.482-2.915,3.191-6.535,1.988-10.351C69.269,289.82,68.668,289.382,68.423,289.382z     M36.558,285.521c-0.617,0-1.329,0.464-2.002,1.309c-1.897,2.379-3.255,7.466-2.49,12.248c3.633-0.076,6.643-1.708,7.891-4.299    c1.172-2.431,0.635-5.342-1.471-7.987C38.025,286.211,37.315,285.521,36.558,285.521z M86.952,271.875    c-5.995,1.344-10.18,6.928-10.079,9.148c0.013,0.298,0.031,0.706,1.195,0.706c0.103-0.034,0.489-0.02,0.768-0.058    C83.141,281.07,86.329,277.137,86.952,271.875z M57.526,257.995c-3.367,4.744-3.97,10.125-1.238,12.413    c0.798,0.667,1.594,1.02,2.301,1.02l0,0c1.119,0,2.107-0.909,2.641-2.43C62.25,266.094,61.443,261.691,57.526,257.995z"/>
	</g>
	<path style="fill:#241726;" d="M368.51,117.781c-0.625,0-1.185-0.439-1.312-1.076c-1.041-5.199-5.654-8.059-5.7-8.086   c-0.632-0.384-0.833-1.208-0.448-1.84c0.384-0.632,1.207-0.832,1.84-0.449c0.231,0.141,5.666,3.511,6.934,9.849   c0.145,0.726-0.326,1.431-1.05,1.576C368.685,117.773,368.597,117.781,368.51,117.781z"/>
	<path style="fill:#241726;" d="M366.935,132.392c-0.625,0-1.185-0.439-1.312-1.076c-1.041-5.199-5.654-8.06-5.7-8.088   c-0.633-0.384-0.833-1.208-0.449-1.84c0.383-0.632,1.21-0.834,1.84-0.449c0.231,0.141,5.666,3.512,6.934,9.85   c0.145,0.726-0.326,1.431-1.05,1.576C367.11,132.384,367.023,132.392,366.935,132.392z"/>
	<path style="fill:#241726;" d="M383.743,129.633c-0.625,0-1.185-0.439-1.312-1.076c-1.041-5.199-5.654-8.06-5.7-8.088   c-0.633-0.384-0.833-1.208-0.449-1.84c0.384-0.633,1.207-0.832,1.84-0.449c0.231,0.141,5.666,3.512,6.934,9.85   c0.145,0.726-0.326,1.431-1.05,1.576C383.918,129.625,383.831,129.633,383.743,129.633z"/>
	<path style="fill:#241726;" d="M350.554,117.173c-0.625,0-1.185-0.439-1.312-1.076c-1.041-5.199-5.653-8.06-5.7-8.088   c-0.632-0.384-0.832-1.208-0.447-1.841c0.384-0.629,1.203-0.83,1.841-0.447c0.23,0.141,5.663,3.514,6.932,9.85   c0.145,0.726-0.326,1.431-1.05,1.576C350.729,117.165,350.641,117.173,350.554,117.173z"/>
	<path style="fill:#241726;" d="M352.816,101.14c-0.625,0-1.185-0.439-1.312-1.076c-1.033-5.162-5.655-8.06-5.702-8.089   c-0.628-0.387-0.826-1.21-0.441-1.84c0.383-0.632,1.204-0.83,1.836-0.446c0.231,0.141,5.665,3.511,6.933,9.849   c0.145,0.726-0.326,1.431-1.05,1.576C352.991,101.132,352.903,101.14,352.816,101.14z"/>
	<path style="fill:#241726;" d="M382.386,147.223c-0.625,0-1.185-0.439-1.312-1.076c-1.042-5.198-5.654-8.059-5.701-8.086   c-0.632-0.384-0.832-1.208-0.447-1.841c0.383-0.629,1.204-0.832,1.841-0.447c0.23,0.141,5.663,3.512,6.933,9.849   c0.145,0.724-0.324,1.431-1.05,1.576C382.561,147.215,382.473,147.223,382.386,147.223z"/>
	<path style="fill:#241726;" d="M389.264,167.491c-0.056,0-0.114-0.004-0.171-0.01c-0.734-0.094-1.253-0.765-1.159-1.499   c0.675-5.259-2.783-9.442-2.818-9.484c-0.476-0.566-0.403-1.411,0.163-1.887c0.566-0.477,1.407-0.404,1.887,0.163   c0.174,0.207,4.247,5.136,3.425,11.547C390.503,166.998,389.928,167.491,389.264,167.491z"/>
	<path style="fill:#241726;" d="M373.502,157.74c-0.039,0-0.078-0.001-0.118-0.005c-0.737-0.064-1.281-0.714-1.217-1.45   c0.463-5.281-3.16-9.325-3.197-9.364c-0.498-0.547-0.459-1.394,0.088-1.892c0.552-0.498,1.397-0.458,1.892,0.088   c0.182,0.2,4.448,4.964,3.885,11.401C374.773,157.214,374.188,157.74,373.502,157.74z"/>
	<g>
		<path style="fill:#241726;" d="M129.976,415.172c-2.318,0-4.477-0.046-5.85-0.075c-0.624-0.013-1.08-0.024-1.309-0.024    c-1.533,0-1.78-0.894-1.909-8.444c-4.199-0.996-8.179-2.662-11.859-4.964c-5.675,5.495-6.151,5.495-6.801,5.495    c-0.356,0-0.748-0.16-0.999-0.411c-0.163-0.163-0.498-0.484-0.953-0.921c-9.519-9.126-11.441-11.887-11.459-13.383    c-0.004-0.48,0.17-0.922,0.492-1.244c0.214-0.214,2.175-2.161,5.275-5.228c-1.563-3.049-2.722-6.312-3.456-9.722    c-4.208,0.024-6.843,0.031-7.139,0.031c-0.455,0-0.89-0.19-1.228-0.532c-1.047-1.071-1.641-4.386-1.361-17.581    c0.013-0.624,0.024-1.08,0.024-1.309c0-1.517,0.343-1.84,10.884-1.944c1.204-3.538,2.938-6.921,5.169-10.083    c-3.987-4.203-6.454-6.815-6.454-6.815c-0.479-0.507-0.488-1.298-0.02-1.816c1.378-1.527,8.397-9.194,11.189-10.125    c0.136-0.046,0.34-0.078,0.484-0.078c0.669,0,1.427,0.001,8.707,6.507c3.349-1.786,6.937-3.078,10.692-3.848    c0.178-6.847,0.302-11.201,0.302-11.201c0.021-0.698,0.573-1.263,1.271-1.3c0,0,3.021-0.154,6.351-0.154    c6.19,0,7.942,0.518,8.722,0.907c0.854,0.426,1.425,0.71,2.025,12.359c3.125,0.858,6.127,2.092,8.948,3.68    c7.738-6.95,8.515-6.95,9.204-6.95c0.144,0,0.347,0.033,0.484,0.078c2.793,0.931,9.811,8.597,11.189,10.125    c0.468,0.518,0.459,1.309-0.02,1.816c0,0-2.769,2.934-7.181,7.583c2.172,3.249,3.844,6.79,4.985,10.551    c6.55,0.171,10.684,0.289,10.684,0.289c0.698,0.021,1.263,0.573,1.3,1.271c0.105,2.054,0.564,12.438-0.753,15.073    c-0.4,0.8-0.669,1.339-10.123,1.901c-0.635,3.644-1.757,7.143-3.344,10.427c3.613,3.57,5.912,5.854,6.146,6.088    c0.322,0.322,0.496,0.764,0.492,1.244c-0.017,1.499-1.94,4.261-11.47,13.395c-0.45,0.431-0.779,0.747-0.941,0.909    c-0.251,0.251-0.643,0.411-0.999,0.411l0,0c-0.666,0-1.153,0-7.311-5.989c-3.049,2.001-6.352,3.566-9.845,4.667    c0.022,3.933,0.029,6.385,0.029,6.67C142.238,414.351,140.468,415.172,129.976,415.172z M123.843,412.413    c0.107,0.001,0.22,0.004,0.34,0.007c1.359,0.029,3.497,0.075,5.793,0.075c6.542,0,8.815-0.379,9.583-0.6    c-0.004-1.104-0.013-3.582-0.033-7.04c-0.004-0.6,0.392-1.128,0.969-1.295c3.928-1.131,7.612-2.882,10.949-5.207    c0.527-0.369,1.241-0.309,1.701,0.141c3.622,3.545,5.296,5.029,6.063,5.649c0.077-0.075,0.158-0.153,0.245-0.235    c7.758-7.436,9.965-10.207,10.509-11.238c-0.918-0.913-3.202-3.179-6.395-6.331c-0.416-0.412-0.517-1.046-0.25-1.565    c1.849-3.595,3.091-7.482,3.69-11.555c0.093-0.629,0.615-1.106,1.25-1.142c6.284-0.35,8.39-0.684,9.089-0.856    c0.545-1.896,0.569-7.714,0.394-12.135c-1.81-0.051-5.5-0.153-10.414-0.28c-0.588-0.016-1.098-0.414-1.255-0.982    c-1.155-4.174-3.002-8.071-5.491-11.581c-0.37-0.522-0.319-1.232,0.12-1.696c3.336-3.514,5.837-6.158,7.069-7.461    c-3.044-3.295-7.247-7.461-8.928-8.34c-0.37,0.277-2.197,1.551-8.057,6.845c-0.437,0.395-1.075,0.459-1.582,0.157    c-3.126-1.863-6.507-3.252-10.045-4.129c-0.574-0.143-0.987-0.643-1.016-1.234c-0.388-7.919-0.77-10.422-0.964-11.206    c-0.719-0.199-2.566-0.496-7.158-0.496c-1.963,0-3.817,0.055-4.979,0.098c-0.052,1.887-0.161,5.81-0.296,11.027    c-0.017,0.635-0.479,1.172-1.105,1.283c-4.169,0.739-8.127,2.156-11.764,4.213c-0.499,0.282-1.125,0.218-1.555-0.17    c-5.134-4.616-6.975-5.96-7.618-6.35c-1.726,0.956-5.855,5.053-8.858,8.302c1.143,1.21,3.379,3.572,6.36,6.713    c0.449,0.473,0.492,1.2,0.102,1.722c-2.573,3.451-4.501,7.194-5.726,11.126c-0.174,0.556-0.686,0.935-1.268,0.94    c-5.726,0.047-8.169,0.191-9.208,0.301c-0.001,0.107-0.004,0.221-0.007,0.341c-0.229,10.743,0.171,14.262,0.515,15.376    c1.157-0.004,3.852-0.014,7.622-0.037c0.753-0.005,1.206,0.458,1.325,1.093c0.723,3.871,2.025,7.547,3.868,10.926    c0.286,0.523,0.191,1.173-0.234,1.593c-2.738,2.707-4.705,4.658-5.542,5.489c0.545,1.03,2.75,3.799,10.499,11.227    c0.09,0.086,0.175,0.169,0.256,0.246c0.728-0.588,2.277-1.957,5.538-5.136c0.451-0.439,1.147-0.507,1.675-0.158    c3.948,2.617,8.282,4.431,12.885,5.395c0.613,0.128,1.055,0.664,1.064,1.291C123.63,409.624,123.749,411.528,123.843,412.413z"/>
		<path style="fill:#241726;" d="M130.929,396.671c-15.868,0-28.776-12.91-28.776-28.778s12.909-28.778,28.776-28.778    s28.778,12.91,28.778,28.778S146.797,396.671,130.929,396.671z M130.929,341.794c-14.39,0-26.098,11.708-26.098,26.1    s11.708,26.1,26.098,26.1c14.391,0,26.1-11.708,26.1-26.1S145.32,341.794,130.929,341.794z"/>
		<path style="fill:#241726;" d="M130.929,384.411c-8.939,0-16.21-7.273-16.21-16.212s7.272-16.21,16.21-16.21    s16.212,7.272,16.212,16.21S139.868,384.411,130.929,384.411z M130.929,354.667c-7.461,0-13.532,6.071-13.532,13.532    c0,7.462,6.071,13.534,13.532,13.534c7.462,0,13.534-6.071,13.534-13.534C144.463,360.738,138.392,354.667,130.929,354.667z"/>
	</g>
	<path style="fill:#241726;" d="M44.09,419.719c-0.989,0-2.011,0-4.905-11.333c-9.671-1.812-10.503-2.919-10.781-3.289   c-0.25-0.332-0.362-0.961-0.25-1.363c0.166-0.602,0.556-1.997,11.538-6.474c3.898-10.307,5.242-10.307,6.052-10.307   c0.42,0,1.017,0.31,1.27,0.647c0.698,0.928,1.347,3.381,2.33,7.309c0.319,1.272,0.705,2.814,0.919,3.449   c0.561,0.254,1.882,0.72,2.975,1.108c5.532,1.956,7.068,2.668,7.324,3.946c0.093,0.463-0.146,1.159-0.497,1.475   c-1.138,1.028-6.641,3.094-9.484,4.119c-4.605,10.606-5.603,10.662-6.407,10.708C44.149,419.717,44.116,419.719,44.09,419.719z    M31.717,403.928c1.884,0.565,5.578,1.394,8.795,1.98c0.518,0.093,0.931,0.481,1.059,0.991c0.833,3.315,1.927,7.096,2.681,9.111   c1.059-1.882,2.743-5.449,4.101-8.596c0.146-0.341,0.429-0.607,0.779-0.731c2.749-0.981,5.859-2.192,7.676-3.013   c-1.314-0.565-3.24-1.246-4.463-1.678c-3.159-1.118-3.813-1.382-4.208-1.908c-0.349-0.463-0.59-1.326-1.391-4.523   c-0.33-1.317-0.846-3.38-1.287-4.819c-0.965,1.799-2.376,5.094-3.465,8.006c-0.131,0.35-0.404,0.632-0.752,0.771   C37.695,400.955,33.667,402.789,31.717,403.928z"/>
	<path style="fill:#241726;" d="M283.539,32.765c-0.989,0-2.011-0.001-4.905-11.333c-9.672-1.814-10.503-2.92-10.781-3.29   c-0.25-0.332-0.362-0.961-0.25-1.363c0.166-0.601,0.556-1.997,11.538-6.473C283.04,0,284.384,0,285.192,0   c0.422,0,1.019,0.31,1.272,0.647c0.697,0.928,1.346,3.383,2.331,7.316c0.318,1.27,0.703,2.807,0.917,3.442   c0.562,0.255,1.886,0.723,2.98,1.11c5.529,1.956,7.062,2.666,7.319,3.945c0.093,0.463-0.148,1.159-0.497,1.474   c-1.138,1.028-6.641,3.095-9.484,4.12c-4.605,10.606-5.603,10.662-6.407,10.708C283.598,32.763,283.565,32.765,283.539,32.765z    M271.167,16.974c1.884,0.565,5.578,1.394,8.795,1.98c0.518,0.094,0.931,0.481,1.059,0.991c0.833,3.315,1.927,7.095,2.681,9.111   c1.06-1.882,2.743-5.449,4.101-8.596c0.146-0.341,0.429-0.607,0.779-0.731c2.749-0.982,5.859-2.192,7.674-3.013   c-1.312-0.565-3.235-1.245-4.456-1.676c-3.164-1.119-3.818-1.385-4.213-1.912c-0.348-0.463-0.588-1.323-1.389-4.515   c-0.33-1.318-0.847-3.385-1.289-4.824c-0.965,1.798-2.376,5.093-3.465,8.005c-0.131,0.352-0.404,0.633-0.752,0.773   C277.144,14,273.116,15.835,271.167,16.974z"/>
	<path style="fill:#241726;" d="M380.579,286.84c-0.989,0-2.011-0.001-4.905-11.333c-9.672-1.812-10.503-2.919-10.781-3.289   c-0.25-0.332-0.362-0.961-0.25-1.363c0.166-0.602,0.556-1.997,11.538-6.474c3.898-10.307,5.242-10.307,6.05-10.307   c0.422,0,1.019,0.31,1.272,0.647c0.697,0.928,1.346,3.383,2.331,7.316c0.318,1.27,0.703,2.807,0.917,3.443   c0.562,0.254,1.883,0.72,2.975,1.108c5.532,1.956,7.068,2.668,7.324,3.946c0.093,0.462-0.148,1.159-0.497,1.474   c-1.136,1.029-6.64,3.095-9.484,4.12c-4.605,10.606-5.603,10.662-6.407,10.708C380.638,286.839,380.605,286.84,380.579,286.84z    M368.206,271.05c1.884,0.565,5.578,1.394,8.795,1.98c0.518,0.093,0.931,0.481,1.059,0.991c0.833,3.315,1.927,7.095,2.681,9.111   c1.06-1.882,2.743-5.449,4.101-8.596c0.146-0.341,0.429-0.607,0.779-0.731c2.749-0.981,5.861-2.192,7.676-3.013   c-1.313-0.565-3.24-1.246-4.463-1.678c-3.158-1.117-3.812-1.382-4.207-1.906c-0.349-0.466-0.59-1.326-1.39-4.518   c-0.33-1.318-0.847-3.387-1.289-4.825c-0.965,1.798-2.376,5.093-3.465,8.005c-0.131,0.352-0.404,0.633-0.752,0.773   C374.183,268.078,370.156,269.911,368.206,271.05z"/>
	<path style="fill:#241726;" d="M452.244,413.267c-5.535,0-10.037-4.502-10.037-10.037s4.502-10.037,10.037-10.037   s10.037,4.502,10.037,10.037S457.779,413.267,452.244,413.267z M452.244,395.871c-4.057,0-7.359,3.302-7.359,7.359   c0,4.057,3.302,7.359,7.359,7.359s7.359-3.302,7.359-7.359C459.603,399.172,456.302,395.871,452.244,395.871z"/>
	<path style="fill:#241726;" d="M66.677,123.719c-5.535,0-10.037-4.502-10.037-10.037s4.502-10.037,10.037-10.037   s10.037,4.502,10.037,10.037S72.213,123.719,66.677,123.719z M66.677,106.322c-4.057,0-7.359,3.302-7.359,7.359   c0,4.057,3.302,7.359,7.359,7.359s7.359-3.302,7.359-7.359C74.037,109.624,70.735,106.322,66.677,106.322z"/>
	<path style="fill:#241726;" d="M292.816,500.252c-5.535,0-10.037-4.502-10.037-10.037s4.502-10.037,10.037-10.037   c5.535,0,10.037,4.502,10.037,10.037S298.352,500.252,292.816,500.252z M292.816,482.856c-4.057,0-7.359,3.302-7.359,7.359   c0,4.057,3.302,7.359,7.359,7.359c4.057,0,7.359-3.302,7.359-7.359C300.176,486.157,296.874,482.856,292.816,482.856z"/>
	<path style="fill:#241726;" d="M367.59,479.327c-0.941,0-3.103-0.044-6.352-12.195c-13.896-3.638-14.356-5.349-14.53-6.001   c-0.152-0.564,0.009-1.147,0.43-1.561c0.082-0.08,0.173-0.149,0.272-0.205c0.052-0.03,5.024-2.882,11.03-6.049   c-1.206-9.075,0.144-10.633,0.598-11.156c0.676-0.783,1.72-1.009,2.737-0.553c1.717,0.768,4.409,2.811,8.006,6.08   c4.947-2.243,8.237-3.336,10.042-3.336c1.986,0,2.406,1.296,2.487,1.693c0.43,2.096-1.128,7.223-2.63,11.443   c2.054,2.188,7.443,8.03,8.234,9.957c0.309,0.751,0.252,1.501-0.157,2.113c-1.221,1.819-5.378,1.832-13.284,0.481   c-2.462,5.136-4.439,8.167-5.88,9.015c-0.305,0.178-0.647,0.273-0.994,0.273C367.597,479.327,367.593,479.327,367.59,479.327z    M364.226,467.888c1.544,5.421,2.773,7.774,3.374,8.543c0.588-0.604,1.895-2.297,4.141-6.891   C369.34,469.074,366.795,468.514,364.226,467.888z M375.642,467.519c5.024,0.819,8.71,0.828,9.604,0.595   c-0.713-1.148-3.045-3.983-6.605-7.817C377.71,462.734,376.682,465.209,375.642,467.519z M363.433,464.932   c3.252,0.823,6.497,1.543,9.487,2.107c1.287-2.817,2.568-5.921,3.677-8.91c-2.477-2.589-5.032-5.123-7.317-7.26   c-2.337,1.098-4.994,2.419-7.919,3.941C361.862,458.043,362.585,461.576,363.433,464.932z M350.317,460.796   c1.641,0.754,4.938,1.94,10.169,3.363c-0.642-2.683-1.199-5.437-1.627-8.035C355.254,458.038,352.107,459.788,350.317,460.796z    M371.912,449.668c1.815,1.722,3.763,3.655,5.691,5.644c1.581-4.626,2.069-7.164,2.108-8.252   C378.624,447.131,376.517,447.637,371.912,449.668z M360.94,444.176c-0.218,0.624-0.598,2.555,0.033,7.818   c2.224-1.147,4.289-2.177,6.171-3.077C364.427,446.502,362.268,444.851,360.94,444.176z"/>
	<path style="fill:#241726;" d="M165.183,61.561c-0.864,0-2.856,0-9.539-8.752c-3.808,1.493-8.408,3.038-10.445,2.597   c-0.62-0.137-1.11-0.539-1.382-1.131c-0.298-0.651-1.193-2.605,4.115-12.608c-7.698-12.127-6.87-13.693-6.554-14.289   c0.273-0.515,0.788-0.833,1.378-0.85c0.109,0,0.228,0.009,0.339,0.034c0.059,0.014,5.641,1.312,12.196,3.083   c5.515-7.779,7.532-7.779,8.307-7.779c0.943,0,1.712,0.537,2.11,1.475c0.735,1.731,1.313,5.06,1.721,9.905   c8.401,2.814,10.003,4.34,10.457,5.569c0.221,0.599,0.163,1.225-0.162,1.761c-1.114,1.828-5.747,4.52-9.719,6.588   c0.014,3.001-0.018,10.949-0.751,12.898C166.901,61.001,166.127,61.561,165.183,61.561z M158.216,51.76   c4.007,5.172,5.909,6.59,6.628,6.979c0.26-1.326,0.482-4.99,0.486-10.225C162.99,49.663,160.551,50.775,158.216,51.76z    M149.604,44.254c-2.562,5.022-3.264,7.584-3.347,8.554c1.411-0.064,4.162-0.86,7.725-2.228   C152.542,48.606,151.06,46.463,149.604,44.254z M151.037,41.549c1.821,2.818,3.707,5.556,5.513,8.005   c2.861-1.187,5.913-2.588,8.761-4.021c-0.051-3.583-0.195-7.177-0.413-10.299c-2.46-0.788-5.306-1.629-8.485-2.508   C154.578,35.436,152.702,38.515,151.037,41.549z M167.641,36.147c0.157,2.498,0.268,5.24,0.324,8.008   c4.35-2.333,6.435-3.867,7.185-4.629C174.608,39.061,172.9,37.973,167.641,36.147z M144.25,29.59   c0.688,1.668,2.294,4.783,5.156,9.387c1.357-2.402,2.824-4.798,4.281-6.992C149.743,30.933,146.248,30.071,144.25,29.59z    M158.045,30.4c2.411,0.675,4.625,1.327,6.616,1.951c-0.345-3.623-0.802-6.303-1.314-7.702   C162.776,24.95,161.182,26.098,158.045,30.4z"/>
	<g>
		<path style="fill:#241726;" d="M132.356,142.552c-2.431,0-6.733-6.75-12.786-20.063c-0.204-0.449-0.145-0.973,0.153-1.365    c7.604-9.985,18.73-24.906,24.019-32.63c-7.419,6.395-22.47,20.349-32.479,29.813c-0.272,0.256-0.647,0.377-1.011,0.364    c-2.236-0.152-13.511-1.087-15.868-4.586c-0.179-0.265-0.54-0.992-0.014-1.982c2.854-5.366,49.096-29.689,53.414-29.689    c0.094,0,0.327,0.022,0.418,0.042c0.001,0,0.001,0,0.001,0c0.09,0.02,0.175,0.047,0.256,0.082c0.008,0.004,0.016,0.007,0.024,0.01    c0.009,0.003,0.018,0.007,0.027,0.01c0.114,0.044,0.224,0.106,0.326,0.183c0.001,0.001,0.004,0.003,0.007,0.005    c0.778,0.599,1.177,1.355-0.371,8.948c-1.213,5.953-11.772,49.793-15.642,50.796C132.72,142.521,132.469,142.552,132.356,142.552z     M122.339,122.108c3.456,7.508,7.851,15.674,9.768,17.476c2.828-5.075,11.678-37.055,14.133-50.052    C142.883,94.622,136.046,104.099,122.339,122.108z M96.986,112.981c1.765,1.382,7.665,2.568,12.865,2.976    c10.632-10.049,22.713-21.286,30.386-27.865C126.828,94.462,100.202,109.019,96.986,112.981z"/>
		<path style="fill:#241726;" d="M117.977,137.761c-0.403,0-0.724-0.116-0.952-0.238c-1.943-1.038-5.294-11.116-7.765-19.386    c-0.212-0.709,0.191-1.454,0.9-1.666c0.71-0.214,1.454,0.19,1.666,0.9c2.171,7.266,5.079,15.623,6.333,17.553    c1.008-0.775,3.069-3.791,4.711-6.949c0.341-0.658,1.148-0.913,1.806-0.571c0.656,0.341,0.911,1.149,0.571,1.806    c-1.193,2.295-4.222,7.712-6.588,8.444C118.413,137.73,118.185,137.761,117.977,137.761z"/>
	</g>
	<path style="fill:#241726;" d="M305.549,425.781c-0.014,0-0.029,0-0.043,0c-1.852-0.058-3.697-0.218-5.484-0.479   c-0.732-0.106-1.24-0.785-1.132-1.517c0.105-0.732,0.783-1.255,1.517-1.132c1.688,0.245,3.432,0.396,5.183,0.45   c0.739,0.024,1.319,0.642,1.297,1.381C306.863,425.208,306.268,425.781,305.549,425.781z M310.897,425.658   c-0.693,0-1.28-0.535-1.334-1.238c-0.056-0.736,0.497-1.38,1.234-1.436c1.714-0.131,3.456-0.35,5.177-0.656   c0.732-0.128,1.424,0.358,1.552,1.084c0.129,0.728-0.356,1.423-1.084,1.552c-1.808,0.322-3.639,0.553-5.444,0.69   C310.965,425.657,310.931,425.658,310.897,425.658z M294.975,424.223c-0.119,0-0.239-0.016-0.358-0.048   c-3.342-0.926-5.217-1.908-5.296-1.95c-0.652-0.345-0.901-1.153-0.557-1.807c0.345-0.655,1.155-0.904,1.807-0.561   c0.017,0.009,1.726,0.897,4.76,1.737c0.713,0.197,1.131,0.935,0.934,1.648C296.1,423.835,295.561,424.223,294.975,424.223z    M321.429,423.798c-0.587,0-1.125-0.388-1.289-0.982c-0.197-0.713,0.221-1.45,0.934-1.648c1.648-0.455,3.324-0.999,4.983-1.615   c0.693-0.254,1.465,0.097,1.721,0.79c0.258,0.693-0.095,1.463-0.79,1.721c-1.73,0.642-3.48,1.21-5.2,1.685   C321.669,423.783,321.548,423.798,321.429,423.798z M331.46,420.081c-0.505,0-0.989-0.286-1.215-0.774   c-0.313-0.671-0.022-1.467,0.649-1.778c1.56-0.726,3.133-1.531,4.679-2.392c0.643-0.36,1.461-0.131,1.822,0.517   c0.361,0.646,0.129,1.462-0.517,1.821c-1.603,0.893-3.236,1.729-4.854,2.481C331.84,420.04,331.648,420.081,331.46,420.081z    M340.813,414.883c-0.439,0-0.87-0.216-1.126-0.612c-0.401-0.621-0.224-1.45,0.398-1.852c1.428-0.923,2.874-1.921,4.339-2.997   c0.596-0.439,1.434-0.313,1.872,0.285c0.438,0.596,0.31,1.434-0.285,1.872c-1.509,1.11-3,2.137-4.472,3.089   C341.314,414.814,341.062,414.883,340.813,414.883z M349.443,408.552c-0.387,0-0.771-0.167-1.036-0.489   c-0.469-0.571-0.387-1.415,0.184-1.884c1.322-1.087,2.656-2.237,4-3.459c0.547-0.494,1.395-0.456,1.892,0.09   c0.497,0.548,0.456,1.394-0.09,1.892c-1.378,1.253-2.746,2.432-4.102,3.545C350.042,408.452,349.742,408.552,349.443,408.552z    M357.378,401.367c-0.345,0-0.689-0.132-0.952-0.396c-0.52-0.526-0.515-1.374,0.009-1.895l0.401-0.4   c1.123-1.122,2.186-2.275,3.167-3.432c0.475-0.562,1.318-0.635,1.887-0.156c0.564,0.477,0.634,1.322,0.156,1.887   c-1.028,1.213-2.142,2.422-3.311,3.591l-0.415,0.415C358.059,401.237,357.718,401.367,357.378,401.367z M364.272,393.194   c-0.26,0-0.522-0.076-0.753-0.233c-0.611-0.417-0.769-1.25-0.352-1.861c0.99-1.453,1.889-2.951,2.671-4.454   c0.34-0.656,1.148-0.917,1.806-0.569c0.655,0.341,0.91,1.149,0.569,1.806c-0.83,1.595-1.784,3.185-2.834,4.726   C365.12,392.99,364.699,393.194,364.272,393.194z M369.188,383.709c-0.153,0-0.307-0.026-0.459-0.081   c-0.694-0.254-1.053-1.023-0.799-1.717c0.592-1.623,1.076-3.293,1.437-4.962c0.157-0.723,0.872-1.178,1.591-1.026   c0.723,0.157,1.182,0.87,1.026,1.591c-0.387,1.79-0.905,3.579-1.539,5.315C370.247,383.373,369.735,383.709,369.188,383.709z    M371.437,373.271c-0.033,0-0.065-0.001-0.098-0.004c-0.737-0.054-1.292-0.694-1.238-1.432c0.065-0.905,0.097-1.808,0.097-2.708   c0-0.824-0.026-1.645-0.08-2.462c-0.047-0.737,0.511-1.374,1.25-1.423c0.717-0.014,1.376,0.513,1.423,1.25   c0.056,0.875,0.085,1.754,0.085,2.635c0,0.965-0.034,1.931-0.105,2.902C372.72,372.734,372.133,373.271,371.437,373.271z    M370.763,362.613c-0.628,0-1.189-0.443-1.313-1.083c-0.326-1.667-0.762-3.358-1.3-5.025c-0.226-0.703,0.161-1.458,0.864-1.686   c0.702-0.22,1.458,0.161,1.686,0.864c0.569,1.768,1.033,3.562,1.378,5.334c0.141,0.726-0.332,1.429-1.058,1.57   C370.934,362.605,370.848,362.613,370.763,362.613z M367.509,352.436c-0.513,0-1.002-0.296-1.224-0.794   c-0.697-1.563-1.492-3.129-2.363-4.656c-0.366-0.642-0.141-1.461,0.501-1.827c0.639-0.367,1.459-0.144,1.827,0.501   c0.913,1.603,1.748,3.248,2.481,4.892c0.302,0.675-0.001,1.467-0.677,1.768C367.877,352.4,367.691,352.436,367.509,352.436z    M362.224,343.135c-0.424,0-0.839-0.2-1.1-0.573c-0.989-1.417-2.058-2.82-3.181-4.169c-0.473-0.568-0.396-1.412,0.173-1.886   c0.569-0.472,1.412-0.398,1.886,0.173c1.172,1.406,2.288,2.87,3.32,4.349c0.422,0.607,0.273,1.442-0.332,1.865   C362.755,343.057,362.488,343.135,362.224,343.135z M355.379,334.904c-0.346,0-0.693-0.133-0.956-0.401   c-1.22-1.244-2.508-2.452-3.826-3.593c-0.56-0.484-0.62-1.329-0.136-1.888c0.485-0.561,1.33-0.618,1.888-0.136   c1.373,1.187,2.715,2.447,3.986,3.742c0.518,0.527,0.51,1.376-0.018,1.893C356.056,334.776,355.717,334.904,355.379,334.904z    M347.278,327.903c-0.273,0-0.549-0.084-0.787-0.256c-1.427-1.041-2.895-2.015-4.363-2.896c-0.634-0.38-0.839-1.203-0.459-1.837   c0.38-0.634,1.202-0.838,1.837-0.459c1.536,0.922,3.072,1.94,4.562,3.027c0.598,0.437,0.73,1.274,0.294,1.871   C348.099,327.712,347.691,327.903,347.278,327.903z M338.093,322.41c-0.191,0-0.386-0.041-0.57-0.128   c-1.611-0.76-3.232-1.415-4.818-1.946c-0.701-0.235-1.08-0.994-0.845-1.695c0.235-0.702,0.998-1.077,1.695-0.845   c1.687,0.565,3.406,1.259,5.111,2.063c0.668,0.315,0.955,1.113,0.639,1.782C339.077,322.126,338.596,322.41,338.093,322.41z    M327.946,319.078c-0.076,0-0.154-0.007-0.233-0.02c-1.557-0.273-3.075-0.412-4.513-0.413l-0.549,0.008   c-0.656,0.012-1.353-0.564-1.374-1.304c-0.02-0.739,0.564-1.353,1.304-1.374l0.621-0.008c1.591,0.001,3.264,0.154,4.974,0.452   c0.728,0.128,1.215,0.821,1.088,1.551C329.151,318.62,328.585,319.078,327.946,319.078z"/>
	<path style="fill:#241726;" d="M182.83,286.698c-0.024,0-0.047,0-0.071-0.001c-0.084-0.005-2.093-0.111-5.471-0.536   c-0.734-0.093-1.254-0.762-1.161-1.496c0.092-0.732,0.737-1.242,1.496-1.161c3.269,0.412,5.255,0.518,5.275,0.518   c0.739,0.039,1.306,0.668,1.268,1.407C184.129,286.143,183.538,286.698,182.83,286.698z M172.143,285.384   c-0.075,0-0.149-0.007-0.225-0.018c-1.644-0.28-3.431-0.615-5.328-1.017c-0.723-0.154-1.185-0.866-1.032-1.589   c0.156-0.72,0.868-1.182,1.589-1.032c1.858,0.395,3.609,0.724,5.219,0.996c0.73,0.124,1.22,0.816,1.097,1.544   C173.352,284.922,172.785,285.384,172.143,285.384z M161.642,283.156c-0.11,0-0.221-0.013-0.332-0.042   c-1.692-0.432-3.439-0.915-5.226-1.455c-0.707-0.213-1.109-0.96-0.894-1.668c0.213-0.709,0.96-1.11,1.668-0.894   c1.748,0.527,3.459,1,5.114,1.424c0.717,0.183,1.149,0.913,0.966,1.628C162.783,282.753,162.238,283.156,161.642,283.156z    M151.372,280.045c-0.148,0-0.299-0.025-0.447-0.077c-1.675-0.592-3.37-1.237-5.071-1.937c-0.684-0.281-1.011-1.063-0.73-1.747   c0.28-0.685,1.068-1.006,1.747-0.73c1.659,0.681,3.312,1.31,4.948,1.889c0.697,0.246,1.062,1.011,0.815,1.709   C152.44,279.702,151.924,280.045,151.372,280.045z M141.46,275.955c-0.194,0-0.39-0.042-0.577-0.131   c-1.621-0.775-3.238-1.606-4.838-2.495c-0.646-0.36-0.879-1.174-0.519-1.821c0.36-0.645,1.174-0.88,1.821-0.519   c1.551,0.863,3.117,1.667,4.692,2.419c0.667,0.319,0.949,1.118,0.63,1.786C142.44,275.673,141.96,275.955,141.46,275.955z    M132.102,270.74c-0.25,0-0.502-0.069-0.727-0.216c-1.543-1-3.045-2.056-4.465-3.136c-0.588-0.449-0.702-1.288-0.255-1.876   c0.45-0.59,1.288-0.705,1.876-0.255c1.366,1.041,2.814,2.057,4.301,3.021c0.621,0.401,0.798,1.23,0.395,1.852   C132.97,270.524,132.541,270.74,132.102,270.74z M123.593,264.252c-0.319,0-0.639-0.114-0.896-0.344   c-1.369-1.232-2.681-2.522-3.901-3.838c-0.502-0.541-0.471-1.389,0.072-1.892c0.541-0.505,1.387-0.473,1.892,0.072   c1.164,1.255,2.419,2.49,3.728,3.668c0.549,0.494,0.594,1.342,0.099,1.891C124.324,264.103,123.96,264.252,123.593,264.252z    M116.339,256.409c-0.404,0-0.803-0.182-1.067-0.528c-1.111-1.459-2.152-2.98-3.095-4.522c-0.387-0.63-0.188-1.454,0.443-1.84   c0.63-0.39,1.454-0.188,1.84,0.443c0.896,1.463,1.887,2.909,2.943,4.297c0.447,0.587,0.333,1.428-0.255,1.876   C116.906,256.32,116.621,256.409,116.339,256.409z M110.772,247.304c-0.501,0-0.979-0.281-1.21-0.762   c-0.785-1.642-1.491-3.346-2.1-5.062c-0.247-0.697,0.116-1.463,0.813-1.71c0.701-0.246,1.462,0.116,1.71,0.813   c0.578,1.629,1.249,3.247,1.993,4.805c0.319,0.667,0.035,1.467-0.632,1.785C111.162,247.262,110.966,247.304,110.772,247.304z    M107.187,237.259c-0.601,0-1.148-0.408-1.298-1.019c-0.43-1.742-0.786-3.548-1.059-5.368c-0.109-0.732,0.395-1.414,1.126-1.523   c0.748-0.097,1.415,0.396,1.523,1.126c0.26,1.739,0.6,3.463,1.009,5.124c0.178,0.718-0.262,1.444-0.979,1.62   C107.401,237.247,107.293,237.259,107.187,237.259z M105.517,226.692c-0.684,0-1.267-0.52-1.332-1.215   c-0.178-1.908-0.289-3.716-0.341-5.428c-0.022-0.739,0.56-1.356,1.298-1.38c0.774,0.01,1.357,0.56,1.38,1.298   c0.05,1.659,0.158,3.41,0.331,5.26c0.068,0.736-0.473,1.389-1.21,1.458C105.601,226.691,105.559,226.692,105.517,226.692z    M105.233,215.997c-0.024,0-0.047,0-0.072-0.001c-0.737-0.039-1.305-0.669-1.267-1.408c0.02-0.356,0.041-0.71,0.067-1.06   c-0.245,0.235-0.591,0.422-0.944,0.374c-1.861-0.022-3.703-0.129-5.475-0.319c-0.735-0.078-1.267-0.739-1.189-1.474   c0.078-0.735,0.714-1.279,1.474-1.189c1.688,0.18,3.446,0.282,5.221,0.303c0.439,0.005,0.826,0.221,1.067,0.551   c0.097-0.915,0.216-1.802,0.357-2.654c0.12-0.731,0.802-1.23,1.539-1.102c0.73,0.12,1.224,0.809,1.102,1.539   c-0.265,1.606-0.449,3.346-0.544,5.173C106.532,215.443,105.941,215.997,105.233,215.997z M108.383,213.73   c-0.694,0-1.281-0.536-1.334-1.24c-0.055-0.737,0.498-1.38,1.236-1.434c1.748-0.131,3.499-0.337,5.203-0.617   c0.734-0.118,1.417,0.377,1.538,1.106c0.119,0.73-0.377,1.417-1.106,1.538c-1.781,0.29-3.609,0.507-5.436,0.643   C108.45,213.729,108.416,213.73,108.383,213.73z M92.399,212.73c-0.097,0-0.195-0.01-0.294-0.033   c-1.883-0.421-3.67-0.955-5.315-1.583c-0.69-0.264-1.036-1.038-0.771-1.729c0.265-0.692,1.041-1.034,1.729-0.771   c1.523,0.582,3.187,1.077,4.944,1.471c0.722,0.161,1.176,0.877,1.013,1.599C93.564,212.306,93.013,212.73,92.399,212.73z    M118.941,211.978c-0.59,0-1.131-0.394-1.292-0.991c-0.192-0.714,0.23-1.449,0.945-1.641c1.811-0.488,3.449-1.053,4.868-1.678   c0.68-0.298,1.468,0.01,1.765,0.685c0.298,0.677-0.009,1.467-0.685,1.765c-1.543,0.68-3.31,1.289-5.253,1.814   C119.174,211.963,119.057,211.978,118.941,211.978z M82.465,208.849c-0.242,0-0.485-0.065-0.706-0.201   c-1.674-1.042-3.162-2.239-4.421-3.559c-0.51-0.535-0.49-1.383,0.044-1.893c0.534-0.509,1.383-0.49,1.893,0.044   c1.104,1.157,2.415,2.211,3.898,3.133c0.628,0.391,0.82,1.217,0.43,1.845C83.351,208.625,82.913,208.849,82.465,208.849z    M128.494,207.374c-0.333,0-0.667-0.123-0.926-0.371c-0.535-0.511-0.553-1.359-0.042-1.893c0.246-0.258,0.442-0.511,0.581-0.754   c0.486-0.847,0.732-1.727,0.732-2.617c-0.001-0.158-0.009-0.326-0.026-0.492c-0.073-0.736,0.463-1.393,1.198-1.467   c0.757-0.051,1.394,0.464,1.467,1.198c0.025,0.25,0.038,0.501,0.039,0.753c0,1.369-0.365,2.698-1.085,3.955   c-0.247,0.432-0.574,0.86-0.97,1.275C129.199,207.235,128.846,207.374,128.494,207.374z M107.061,205.482   c-0.143,0-0.288-0.022-0.429-0.071c-0.701-0.238-1.076-0.998-0.839-1.697c0.649-1.917,1.463-3.64,2.422-5.123   c0.403-0.622,1.232-0.8,1.85-0.399c0.622,0.4,0.8,1.229,0.399,1.85c-0.838,1.298-1.556,2.823-2.134,4.53   C108.14,205.13,107.62,205.482,107.061,205.482z M75.231,201.153c-0.49,0-0.962-0.269-1.198-0.737   c-0.838-1.666-1.445-3.489-1.803-5.413c-0.135-0.727,0.345-1.427,1.072-1.561c0.722-0.141,1.425,0.345,1.561,1.072   c0.311,1.676,0.837,3.257,1.563,4.7c0.332,0.66,0.067,1.465-0.595,1.798C75.638,201.108,75.433,201.153,75.231,201.153z    M127.735,197.793c-0.337,0-0.676-0.127-0.936-0.382c-1.084-1.059-2.482-1.874-4.042-2.356c-0.706-0.217-1.102-0.968-0.884-1.674   c0.217-0.707,0.962-1.104,1.674-0.884c1.965,0.607,3.737,1.644,5.124,3c0.528,0.516,0.539,1.364,0.021,1.893   C128.43,197.658,128.082,197.793,127.735,197.793z M112.961,196.759c-0.416,0-0.825-0.192-1.088-0.556   c-0.432-0.6-0.297-1.437,0.303-1.87c1.657-1.194,3.497-1.959,5.468-2.273c0.744-0.118,1.417,0.382,1.533,1.111   c0.116,0.731-0.381,1.416-1.111,1.533c-1.555,0.248-3.009,0.854-4.323,1.802C113.507,196.676,113.232,196.759,112.961,196.759z    M73.188,190.77c-0.018,0-0.035,0-0.052-0.001c-0.74-0.029-1.315-0.65-1.287-1.389c0.067-1.752,0.298-3.609,0.688-5.522   c0.146-0.724,0.86-1.193,1.578-1.045c0.724,0.146,1.193,0.854,1.046,1.578c-0.361,1.77-0.574,3.483-0.637,5.09   C74.497,190.204,73.903,190.77,73.188,190.77z M75.236,180.296c-0.139,0-0.28-0.021-0.418-0.067   c-0.702-0.231-1.084-0.989-0.854-1.691c0.541-1.642,1.195-3.363,1.946-5.113c0.29-0.68,1.079-0.995,1.759-0.702   c0.679,0.292,0.994,1.079,0.702,1.759c-0.719,1.678-1.347,3.324-1.862,4.893C76.322,179.939,75.798,180.296,75.236,180.296z    M79.42,170.451c-0.205,0-0.413-0.047-0.608-0.146c-0.659-0.337-0.919-1.144-0.583-1.802c0.786-1.538,1.652-3.125,2.601-4.761   c0.37-0.641,1.186-0.862,1.831-0.486c0.639,0.371,0.858,1.191,0.486,1.831c-0.926,1.594-1.768,3.14-2.533,4.635   C80.377,170.184,79.908,170.451,79.42,170.451z M84.775,161.181c-0.247,0-0.497-0.068-0.719-0.211   c-0.624-0.399-0.805-1.227-0.408-1.849c0.934-1.462,1.931-2.96,2.993-4.499c0.418-0.609,1.254-0.761,1.863-0.341   c0.608,0.421,0.761,1.254,0.341,1.863c-1.043,1.51-2.023,2.983-2.941,4.418C85.649,160.963,85.217,161.181,84.775,161.181z    M90.854,152.364c-0.276,0-0.553-0.085-0.792-0.26c-0.596-0.439-0.723-1.278-0.285-1.872c1.034-1.403,2.118-2.835,3.255-4.297   c0.454-0.579,1.295-0.69,1.879-0.234c0.583,0.454,0.689,1.295,0.234,1.879c-1.121,1.441-2.192,2.854-3.21,4.239   C91.671,152.176,91.266,152.364,90.854,152.364z M97.422,143.907c-0.297,0-0.596-0.098-0.845-0.301   c-0.573-0.468-0.659-1.312-0.192-1.884l1.504-1.828c0.473-0.569,1.317-0.65,1.886-0.175c0.569,0.473,0.647,1.317,0.175,1.886   l-1.488,1.81C98.196,143.738,97.811,143.907,97.422,143.907z"/>
</g>















</svg>
