<svg width="100" height="89" viewBox="0 0 100 89" fill="none" xmlns="http://www.w3.org/2000/svg">
<path d="M70.1705 4.53988C76.5671 11.1898 74.4349 26.1153 73.3794 39.9641C72.3027 53.8339 72.2816 66.6272 65.885 73.826C59.4884 81.046 46.6951 82.6715 36.1819 80.3915C25.6897 78.1115 17.4776 71.8838 10.9754 64.6639C4.47324 57.465 -0.340061 49.2529 0.0188248 41.4207C0.398822 33.5674 5.951 26.1153 12.4743 19.4653C18.9765 12.8154 26.4286 6.96764 37.6385 3.25211C48.8273 -0.484526 63.7528 -2.11007 70.1705 4.53988Z" fill="#222833"/>
<path d="M73.8856 81.2067C72.826 78.9036 74.7268 75.223 76.2509 71.7246C77.7825 68.2227 78.9429 64.9048 81.2527 63.6142C83.5644 62.3182 87.031 63.0513 89.5533 64.5921C92.0701 66.1309 93.6389 68.4884 94.6743 70.9489C95.7117 73.404 96.2193 75.9696 95.4191 77.9696C94.6115 79.9732 92.498 81.4057 90.2049 82.5424C87.9172 83.681 85.4555 84.5257 82.2112 84.4778C78.9704 84.4374 74.9506 83.5117 73.8856 81.2067Z" fill="#222833"/>
<path d="M20.632 49V31.96H28.312C29.112 31.96 29.848 32.128 30.52 32.464C31.208 32.784 31.8 33.224 32.296 33.784C32.792 34.328 33.176 34.944 33.448 35.632C33.736 36.32 33.88 37.016 33.88 37.72C33.88 38.424 33.768 39.096 33.544 39.736C33.32 40.36 33 40.928 32.584 41.44C32.168 41.936 31.672 42.344 31.096 42.664L34.84 49H30.496L27.232 43.504H24.568V49H20.632ZM24.568 40.072H28.168C28.488 40.072 28.768 39.976 29.008 39.784C29.264 39.576 29.472 39.296 29.632 38.944C29.792 38.592 29.872 38.184 29.872 37.72C29.872 37.256 29.776 36.856 29.584 36.52C29.408 36.168 29.184 35.896 28.912 35.704C28.64 35.512 28.352 35.416 28.048 35.416H24.568V40.072ZM52.8357 36.952C52.7877 36.872 52.6197 36.752 52.3317 36.592C52.0437 36.416 51.6837 36.232 51.2517 36.04C50.8197 35.848 50.3477 35.68 49.8357 35.536C49.3237 35.392 48.8117 35.32 48.2997 35.32C47.6277 35.32 47.1077 35.44 46.7397 35.68C46.3717 35.904 46.1877 36.256 46.1877 36.736C46.1877 37.12 46.3237 37.424 46.5957 37.648C46.8837 37.872 47.2917 38.072 47.8197 38.248C48.3477 38.408 48.9957 38.6 49.7637 38.824C50.8517 39.112 51.7957 39.464 52.5957 39.88C53.3957 40.28 54.0037 40.8 54.4197 41.44C54.8517 42.08 55.0677 42.928 55.0677 43.984C55.0677 44.944 54.8917 45.76 54.5397 46.432C54.1877 47.088 53.7077 47.624 53.0997 48.04C52.5077 48.44 51.8277 48.736 51.0597 48.928C50.2917 49.104 49.4997 49.192 48.6837 49.192C47.8517 49.192 46.9957 49.112 46.1157 48.952C45.2517 48.776 44.4197 48.536 43.6197 48.232C42.8197 47.912 42.0837 47.528 41.4117 47.08L43.1397 43.648C43.2037 43.728 43.4117 43.88 43.7637 44.104C44.1157 44.312 44.5477 44.536 45.0597 44.776C45.5877 45 46.1717 45.2 46.8117 45.376C47.4517 45.552 48.0997 45.64 48.7557 45.64C49.4597 45.64 49.9797 45.528 50.3157 45.304C50.6677 45.08 50.8437 44.768 50.8437 44.368C50.8437 43.936 50.6597 43.6 50.2917 43.36C49.9397 43.12 49.4517 42.904 48.8277 42.712C48.2197 42.52 47.5157 42.304 46.7157 42.064C45.6757 41.744 44.8117 41.384 44.1237 40.984C43.4517 40.584 42.9477 40.096 42.6117 39.52C42.2917 38.944 42.1317 38.224 42.1317 37.36C42.1317 36.16 42.4117 35.152 42.9717 34.336C43.5477 33.504 44.3157 32.88 45.2757 32.464C46.2357 32.032 47.2837 31.816 48.4197 31.816C49.2197 31.816 49.9877 31.912 50.7237 32.104C51.4757 32.296 52.1717 32.536 52.8117 32.824C53.4677 33.112 54.0517 33.4 54.5637 33.688L52.8357 36.952Z" fill="white"/>
</svg>
