<svg width="48" height="48" viewBox="0 0 48 48" fill="none" xmlns="http://www.w3.org/2000/svg">
<path d="M6 8.256L24.009 3L42 8.256V19.034C41.9999 24.5577 40.2617 29.9413 37.0316 34.4222C33.8016 38.903 29.2434 42.2539 24.003 44C18.761 42.2541 14.2013 38.9028 10.9701 34.421C7.73891 29.9392 6.00008 24.5541 6 19.029V8.256Z" stroke="#121117" stroke-width="2.5" stroke-linejoin="round"/>
<path d="M17.7503 28V23.632H20.2623L22.2463 28H24.4863L22.2623 23.2C23.6383 22.64 24.3743 21.52 24.3743 19.952C24.3743 17.648 22.8223 16.304 20.1663 16.304H15.7023V28H17.7503ZM17.7503 18.128H20.1663C21.4623 18.128 22.2303 18.784 22.2303 19.952C22.2303 21.136 21.4623 21.824 20.1663 21.824H17.7503V18.128ZM25.749 19.568C25.749 21.36 26.789 22.496 28.773 22.928L30.629 23.344C31.589 23.552 31.989 24.016 31.989 24.8C31.989 25.776 31.125 26.368 29.765 26.368C28.453 26.368 27.653 25.776 27.637 24.784H25.589C25.637 26.88 27.269 28.208 29.765 28.208C32.341 28.208 34.037 26.8 34.037 24.624C34.037 22.88 33.061 21.856 31.061 21.424L29.221 21.024C28.245 20.8 27.797 20.336 27.797 19.504C27.797 18.528 28.613 17.92 29.877 17.92C31.029 17.92 31.749 18.512 31.797 19.52H33.845C33.781 17.408 32.277 16.096 29.909 16.096C27.445 16.096 25.749 17.52 25.749 19.568Z" fill="#121117"/>
</svg>
