<svg width="24" height="24" viewBox="0 0 24 24" fill="none" xmlns="http://www.w3.org/2000/svg">
<g clip-path="url(#clip0_810_1305)">
<path d="M22 9H15V7H22V9ZM23.726 19C23.284 20.297 21.697 22 18.625 22C15.551 22 13.061 20.271 13.061 16.325C13.061 12.415 15.386 10.405 18.527 10.405C21.609 10.405 23.491 12.187 23.902 14.831C23.98 15.337 24.011 16.019 23.997 16.971H15.97C16.1 20.182 19.453 20.283 20.558 19H23.726ZM16.04 15H21.005C20.9 13.453 19.869 12.781 18.528 12.781C17.062 12.781 16.251 13.549 16.04 15ZM6.466 21.988H0V7.021H6.953C12.429 7.102 12.533 12.465 9.673 13.927C13.134 15.187 13.25 21.988 6.466 21.988V21.988ZM3 13H6.584C9.092 13 9.49 10 6.272 10H3V13ZM6.391 16H3V19.016H6.341C9.396 19.016 9.209 16 6.391 16V16Z" fill="#121117"/>
</g>
<defs>
<clipPath id="clip0_810_1305">
<rect width="24" height="24" fill="white"/>
</clipPath>
</defs>
</svg>
