<svg width="24" height="24" viewBox="0 0 24 24" fill="none" xmlns="http://www.w3.org/2000/svg">
<path d="M11.9991 9.24445C10.2788 9.24445 8.87492 10.6484 8.87492 12.3687C8.87492 14.089 10.2788 15.4929 11.9991 15.4929C13.7194 15.4929 15.1234 14.089 15.1234 12.3687C15.1234 10.6484 13.7194 9.24445 11.9991 9.24445ZM21.3694 12.3687C21.3694 11.0749 21.3812 9.79288 21.3085 8.50148C21.2359 7.00148 20.8937 5.67023 19.7968 4.57335C18.6976 3.47413 17.3687 3.13429 15.8687 3.06163C14.5749 2.98898 13.2929 3.0007 12.0015 3.0007C10.7077 3.0007 9.4257 2.98898 8.13429 3.06163C6.63429 3.13429 5.30304 3.47648 4.20617 4.57335C3.10695 5.67257 2.7671 7.00148 2.69445 8.50148C2.62179 9.79523 2.63351 11.0773 2.63351 12.3687C2.63351 13.6601 2.62179 14.9444 2.69445 16.2359C2.7671 17.7359 3.10929 19.0671 4.20617 20.164C5.30538 21.2632 6.63429 21.603 8.13429 21.6757C9.42804 21.7484 10.7101 21.7366 12.0015 21.7366C13.2952 21.7366 14.5773 21.7484 15.8687 21.6757C17.3687 21.603 18.6999 21.2609 19.7968 20.164C20.896 19.0648 21.2359 17.7359 21.3085 16.2359C21.3835 14.9444 21.3694 13.6624 21.3694 12.3687ZM11.9991 17.1757C9.33898 17.1757 7.1921 15.0288 7.1921 12.3687C7.1921 9.70851 9.33898 7.56163 11.9991 7.56163C14.6593 7.56163 16.8062 9.70851 16.8062 12.3687C16.8062 15.0288 14.6593 17.1757 11.9991 17.1757ZM17.003 8.48742C16.3819 8.48742 15.8804 7.98585 15.8804 7.36476C15.8804 6.74367 16.3819 6.2421 17.003 6.2421C17.6241 6.2421 18.1257 6.74367 18.1257 7.36476C18.1259 7.51224 18.097 7.65831 18.0406 7.7946C17.9843 7.93089 17.9016 8.05473 17.7973 8.15901C17.693 8.2633 17.5692 8.34598 17.4329 8.40234C17.2966 8.45869 17.1505 8.4876 17.003 8.48742Z" fill="#121117"/>
</svg>
