<svg width="400" height="400" viewBox="0 0 400 400" fill="none" xmlns="http://www.w3.org/2000/svg">
<mask id="mask0_1138_980" style="mask-type:luminance" maskUnits="userSpaceOnUse" x="54" y="147" width="292" height="107">
<path d="M346 147H54V254H346V147Z" fill="white"/>
</mask>
<g mask="url(#mask0_1138_980)">
<mask id="mask1_1138_980" style="mask-type:luminance" maskUnits="userSpaceOnUse" x="54" y="147" width="292" height="107">
<path d="M346 147H54V254H346V147Z" fill="white"/>
</mask>
<g mask="url(#mask1_1138_980)">
<path d="M119.681 223.59C119.292 224.297 118.727 224.892 118.042 225.318C117.365 225.739 116.583 225.96 115.786 225.957H106.012V225.649H106.079C106.34 225.549 106.554 225.356 106.681 225.108C106.821 224.883 106.894 224.622 106.891 224.357V212.462C106.889 212.197 106.816 211.938 106.681 211.711C106.544 211.476 106.332 211.293 106.079 211.192H106.012V210.892H115.846C116.244 210.881 116.64 210.952 117.009 211.099C117.379 211.247 117.714 211.468 117.996 211.749C118.277 212.03 118.498 212.366 118.646 212.735C118.793 213.104 118.864 213.5 118.854 213.897C118.857 214.559 118.61 215.198 118.162 215.685C117.797 216.082 117.364 216.411 116.884 216.655C117.448 216.791 117.976 217.048 118.433 217.406C119.019 217.855 119.493 218.434 119.816 219.097C120.146 219.77 120.316 220.511 120.312 221.261C120.319 222.098 120.112 222.923 119.711 223.658M108.388 211.711V216.219H114.854C115.505 216.234 116.136 215.994 116.613 215.55C116.848 215.353 117.036 215.107 117.166 214.829C117.296 214.551 117.364 214.249 117.365 213.942C117.373 213.646 117.321 213.351 117.211 213.076C117.101 212.801 116.936 212.551 116.726 212.342C116.471 212.115 116.174 211.941 115.851 211.831C115.528 211.722 115.186 211.678 114.846 211.703L108.388 211.711ZM108.388 217.136V225.146H114.673C115.444 225.167 116.208 224.983 116.884 224.612C117.471 224.279 117.955 223.79 118.282 223.2C118.591 222.558 118.746 221.853 118.733 221.141C118.74 220.457 118.569 219.784 118.237 219.187C117.888 218.591 117.396 218.091 116.805 217.733C116.215 217.375 115.544 217.17 114.854 217.136H108.388Z" fill="white"/>
<path d="M139.033 223.952L138.852 225.959H126.379V225.65H126.447C126.702 225.547 126.917 225.365 127.063 225.132C127.209 224.898 127.277 224.625 127.259 224.351V212.464C127.283 212.187 127.216 211.91 127.07 211.675C126.924 211.439 126.705 211.257 126.447 211.156H126.379V210.855H129.597V211.156H129.537C129.289 211.267 129.084 211.453 128.949 211.688C128.814 211.923 128.756 212.194 128.785 212.464V225.012H137.431C137.71 225.005 137.977 224.898 138.183 224.711C138.416 224.522 138.603 224.283 138.732 224.013V223.952H139.033Z" fill="white"/>
<path d="M154.176 225.23C153.121 225.754 151.954 226.011 150.777 225.981H150.567C149.343 225.982 148.137 225.691 147.048 225.132C146.048 224.623 145.252 223.788 144.792 222.765C144.546 222.04 144.433 221.276 144.461 220.511V212.464C144.484 212.186 144.416 211.91 144.268 211.674C144.121 211.439 143.901 211.257 143.642 211.156H143.574V210.855H146.792V211.156H146.732C146.485 211.267 146.279 211.453 146.144 211.688C146.009 211.923 145.952 212.194 145.98 212.464V220.586C145.967 221.065 146.007 221.544 146.1 222.014C146.246 222.52 146.494 222.991 146.829 223.398C147.164 223.806 147.579 224.14 148.048 224.381C149.13 224.91 150.338 225.128 151.537 225.012C152.633 225.028 153.7 224.652 154.544 223.952C155.291 223.249 155.765 222.304 155.882 221.285C155.913 220.799 155.913 220.313 155.882 219.827V212.464C155.872 212.184 155.763 211.918 155.574 211.712C155.389 211.478 155.152 211.291 154.882 211.164H154.792V210.863H157.882V211.164H157.822C157.531 211.282 157.272 211.471 157.07 211.712C156.883 211.918 156.777 212.185 156.77 212.464V220.195C156.789 221.25 156.554 222.294 156.085 223.238C155.676 224.093 155.001 224.792 154.161 225.23" fill="white"/>
<path d="M176.627 223.952L176.446 225.959H163.973V225.65H164.04C164.295 225.547 164.511 225.365 164.657 225.132C164.803 224.898 164.871 224.625 164.852 224.351V212.464C164.876 212.187 164.81 211.91 164.664 211.675C164.518 211.439 164.299 211.257 164.04 211.156H163.973V210.855H176.416L176.596 212.854H176.296V212.794C176.177 212.503 175.988 212.245 175.747 212.043C175.54 211.856 175.274 211.749 174.995 211.742H166.341V216.438H170.649C170.833 216.436 171.012 216.384 171.168 216.288C171.345 216.193 171.503 216.065 171.634 215.912C171.763 215.77 171.872 215.611 171.957 215.439V215.349H172.228V218.445H171.957V218.385C171.839 218.093 171.65 217.835 171.409 217.633C171.203 217.444 170.936 217.335 170.657 217.325H166.341V224.997H174.988C175.266 224.99 175.533 224.883 175.739 224.696C175.972 224.507 176.159 224.268 176.288 223.997V223.937L176.627 223.952Z" fill="white"/>
<path d="M226.476 223.59C226.091 224.301 225.525 224.897 224.836 225.318C224.16 225.74 223.378 225.961 222.581 225.957H212.807V225.649H212.867C213.131 225.551 213.348 225.358 213.476 225.108C213.616 224.883 213.69 224.622 213.687 224.357V212.462C213.684 212.197 213.611 211.938 213.476 211.711C213.337 211.474 213.123 211.291 212.867 211.192H212.807V210.892H222.642C223.039 210.881 223.434 210.952 223.804 211.099C224.173 211.247 224.509 211.468 224.791 211.749C225.072 212.03 225.293 212.366 225.44 212.735C225.588 213.104 225.659 213.5 225.649 213.897C225.649 214.558 225.402 215.196 224.957 215.685C224.592 216.082 224.16 216.411 223.679 216.655C224.243 216.791 224.771 217.048 225.227 217.406C225.814 217.855 226.287 218.434 226.611 219.097C226.956 219.811 227.125 220.598 227.106 221.391C227.086 222.184 226.877 222.961 226.499 223.658M215.182 211.711V216.219H221.649C222.3 216.234 222.931 215.994 223.408 215.55C223.643 215.353 223.831 215.107 223.962 214.829C224.091 214.551 224.16 214.249 224.16 213.942C224.169 213.646 224.116 213.351 224.006 213.076C223.897 212.801 223.731 212.551 223.521 212.342C223.267 212.115 222.969 211.941 222.646 211.831C222.323 211.722 221.982 211.678 221.641 211.703L215.182 211.711ZM215.182 217.136V225.146H221.468C222.239 225.167 223.002 224.983 223.679 224.612C224.266 224.279 224.75 223.79 225.077 223.2C225.387 222.558 225.541 221.853 225.528 221.141C225.534 220.457 225.364 219.784 225.033 219.187C224.683 218.591 224.192 218.091 223.6 217.733C223.01 217.375 222.339 217.17 221.649 217.136H215.182Z" fill="white"/>
<path d="M248.463 222.36C247.827 223.564 246.858 224.56 245.673 225.23C244.341 225.963 242.838 226.329 241.319 226.289C239.776 226.333 238.247 225.967 236.89 225.23C235.703 224.577 234.739 223.582 234.124 222.375C233.49 221.149 233.167 219.787 233.184 218.407C233.167 217.022 233.484 215.654 234.109 214.417C234.732 213.205 235.7 212.204 236.89 211.539C238.253 210.828 239.768 210.457 241.304 210.457C242.842 210.457 244.355 210.828 245.717 211.539C246.905 212.207 247.869 213.207 248.493 214.417C249.116 215.654 249.434 217.022 249.418 218.407C249.433 219.784 249.104 221.142 248.463 222.36ZM244.838 212.156C244.076 211.644 243.214 211.304 242.308 211.158C241.401 211.013 240.475 211.066 239.593 211.314C238.709 211.562 237.89 211.999 237.193 212.595C236.495 213.19 235.935 213.93 235.552 214.763C235.052 215.911 234.793 217.151 234.793 218.403C234.793 219.656 235.052 220.895 235.552 222.044C236.043 223.096 236.827 223.985 237.808 224.606C238.881 225.231 240.101 225.561 241.342 225.561C242.583 225.561 243.803 225.231 244.876 224.606C245.839 223.977 246.606 223.089 247.086 222.044C247.587 220.895 247.845 219.656 247.845 218.403C247.845 217.151 247.587 215.911 247.086 214.763C246.607 213.705 245.841 212.802 244.876 212.156" fill="white"/>
<path d="M270.793 222.36C270.157 223.564 269.188 224.56 268.003 225.23C266.671 225.963 265.169 226.329 263.649 226.289C262.106 226.333 260.579 225.967 259.221 225.23C258.036 224.573 257.073 223.579 256.454 222.375C255.82 221.149 255.498 219.787 255.514 218.407C255.498 217.022 255.815 215.654 256.439 214.417C257.067 213.208 258.034 212.208 259.221 211.539C260.583 210.828 262.098 210.457 263.634 210.457C265.172 210.457 266.686 210.828 268.047 211.539C269.235 212.207 270.199 213.207 270.823 214.417C271.447 215.654 271.764 217.022 271.748 218.407C271.763 219.784 271.436 221.142 270.793 222.36ZM267.168 212.156C266.408 211.644 265.544 211.304 264.638 211.158C263.733 211.013 262.805 211.066 261.923 211.314C261.039 211.562 260.221 211.999 259.523 212.595C258.825 213.19 258.265 213.93 257.882 214.763C257.382 215.911 257.123 217.151 257.123 218.403C257.123 219.656 257.382 220.895 257.882 222.044C258.366 223.09 259.135 223.978 260.101 224.606C261.173 225.231 262.393 225.561 263.634 225.561C264.877 225.561 266.096 225.231 267.168 224.606C268.133 223.976 268.901 223.088 269.386 222.044C269.883 220.894 270.139 219.655 270.139 218.403C270.139 217.152 269.883 215.913 269.386 214.763C268.902 213.706 268.134 212.803 267.168 212.156Z" fill="white"/>
<path d="M293.925 225.959H291.347L282.28 218.587C281.771 218.951 281.283 219.345 280.82 219.767C280.626 219.956 280.47 220.182 280.365 220.433C280.261 220.684 280.209 220.953 280.212 221.225V224.321C280.198 224.587 280.267 224.852 280.407 225.079C280.548 225.306 280.756 225.485 281.001 225.59H281.062V225.899H277.852V225.59H277.911C278.166 225.487 278.384 225.306 278.531 225.072C278.677 224.839 278.747 224.566 278.731 224.291V212.464C278.753 212.186 278.685 211.91 278.537 211.674C278.39 211.439 278.171 211.257 277.911 211.156H277.852V210.855H281.062V211.156H281.001C280.747 211.261 280.533 211.444 280.391 211.68C280.248 211.915 280.186 212.19 280.212 212.464V219.106C280.685 218.667 281.188 218.26 281.716 217.889L282.746 217.137L285.001 215.687C287.407 214.086 289.107 212.877 290.099 212.043C290.167 211.988 290.22 211.916 290.252 211.834C290.284 211.752 290.293 211.663 290.28 211.577C290.272 211.487 290.24 211.401 290.187 211.328C290.134 211.255 290.062 211.198 289.979 211.164H289.881V210.863H293.978V211.133L293.889 211.194C292.153 212.013 290.497 212.988 288.941 214.109C288.195 214.65 287.042 215.439 285.483 216.476L285.422 216.536C284.671 217.039 284.031 217.43 283.603 217.716L291.738 224.328C292.395 224.861 293.118 225.308 293.889 225.658H293.948V225.748L293.925 225.959Z" fill="white"/>
<path d="M162.297 163.299L161.665 163.772L160.026 162.855L157.184 164.974L157.598 166.808L156.996 167.259L155.447 160.218L155.996 159.805L162.297 163.299ZM156.229 160.736L157.026 164.283L159.402 162.502L156.229 160.736Z" fill="white"/>
<path d="M171.214 158.587L168.432 157.085L166.755 157.874L167.823 160.128L167.161 160.436L164.387 154.597L166.921 153.418C167.216 153.272 167.533 153.175 167.86 153.132C168.139 153.095 168.421 153.108 168.695 153.17C168.949 153.239 169.184 153.362 169.387 153.53C169.593 153.709 169.759 153.93 169.875 154.177C169.981 154.401 170.044 154.643 170.063 154.891C170.077 155.115 170.043 155.34 169.966 155.552C169.887 155.769 169.773 155.973 169.627 156.153C169.47 156.345 169.285 156.512 169.078 156.649L172.018 158.212L171.214 158.587ZM168.432 153.839C168.001 153.766 167.559 153.84 167.176 154.049L165.357 154.906L166.477 157.303L168.289 156.453C168.495 156.357 168.687 156.233 168.86 156.085C169.009 155.952 169.133 155.794 169.229 155.619C169.315 155.448 169.36 155.259 169.36 155.067C169.36 154.875 169.315 154.686 169.229 154.515C169.158 154.346 169.048 154.197 168.908 154.079C168.768 153.962 168.602 153.879 168.424 153.839" fill="white"/>
<path d="M179.748 155.71L178.996 155.942L177.77 154.522L174.38 155.552L174.146 157.423L173.395 157.641L174.319 150.51L174.973 150.314L179.748 155.71ZM174.913 151.246L174.462 154.853L177.297 153.989L174.913 151.246Z" fill="white"/>
<path d="M186.132 154.643L183.876 152.433L182.034 152.719L182.425 155.221L181.673 155.334L180.703 148.947L183.47 148.511C183.796 148.462 184.128 148.462 184.455 148.511C184.733 148.554 185.001 148.648 185.244 148.789C185.469 148.924 185.661 149.106 185.808 149.323C185.955 149.55 186.053 149.806 186.094 150.074C186.142 150.322 186.142 150.577 186.094 150.825C186.042 151.044 185.947 151.251 185.816 151.434C185.675 151.618 185.508 151.78 185.32 151.915C185.117 152.055 184.893 152.164 184.658 152.238L187.041 154.56L186.132 154.643ZM184.793 149.3C184.398 149.111 183.95 149.061 183.523 149.157L181.538 149.465L181.944 152.08L183.921 151.772C184.147 151.738 184.367 151.672 184.575 151.577C184.755 151.492 184.918 151.375 185.057 151.231C185.186 151.098 185.281 150.935 185.335 150.758C185.393 150.571 185.406 150.372 185.372 150.179C185.354 149.997 185.292 149.822 185.191 149.669C185.09 149.515 184.954 149.389 184.793 149.3Z" fill="white"/>
<path d="M193.649 148.429L189.68 148.519L189.732 150.743L193.281 150.66L193.296 151.329L189.747 151.412L189.8 153.681L193.815 153.591L193.83 154.259L189.078 154.372L188.928 147.872L193.634 147.76L193.649 148.429Z" fill="white"/>
<path d="M201.018 150.45C201.054 150.594 201.126 150.726 201.229 150.833C201.37 150.976 201.533 151.098 201.71 151.194C201.979 151.341 202.258 151.469 202.545 151.577C203.099 151.766 203.601 152.083 204.011 152.501C204.156 152.67 204.261 152.871 204.315 153.088C204.37 153.304 204.374 153.53 204.326 153.748C204.289 154.017 204.192 154.274 204.041 154.5C203.896 154.705 203.709 154.877 203.492 155.003C203.261 155.136 203.005 155.22 202.74 155.251C202.441 155.3 202.137 155.3 201.838 155.251C201.357 155.175 200.896 155.01 200.477 154.763C200.057 154.51 199.687 154.181 199.387 153.793L199.928 153.335C200.182 153.666 200.487 153.955 200.83 154.192C201.179 154.408 201.567 154.552 201.973 154.612C202.34 154.695 202.725 154.65 203.063 154.485C203.206 154.412 203.328 154.306 203.42 154.175C203.512 154.044 203.57 153.892 203.59 153.733C203.616 153.594 203.616 153.451 203.59 153.312C203.554 153.175 203.484 153.048 203.387 152.944C203.252 152.802 203.094 152.682 202.921 152.591C202.664 152.455 202.4 152.332 202.131 152.223C201.814 152.103 201.507 151.957 201.214 151.787C200.984 151.661 200.778 151.496 200.605 151.299C200.458 151.133 200.352 150.935 200.296 150.72C200.242 150.473 200.242 150.216 200.296 149.969C200.335 149.725 200.431 149.493 200.575 149.292C200.713 149.093 200.896 148.929 201.108 148.812C201.34 148.678 201.595 148.592 201.86 148.556C202.146 148.507 202.439 148.507 202.725 148.556C203.147 148.615 203.554 148.75 203.928 148.954C204.274 149.154 204.586 149.408 204.853 149.706L204.334 150.194C204.105 149.921 203.83 149.69 203.522 149.51C203.235 149.35 202.922 149.24 202.597 149.187C202.408 149.158 202.215 149.158 202.026 149.187C201.86 149.21 201.7 149.261 201.552 149.338C201.422 149.408 201.31 149.505 201.221 149.623C201.138 149.742 201.081 149.878 201.056 150.021C201.029 150.16 201.029 150.303 201.056 150.442" fill="white"/>
<path d="M208.438 156.641L207.733 156.431L209.372 150.848L207.273 150.232L207.47 149.578L212.364 151.021L212.177 151.667L210.078 151.051L208.438 156.641Z" fill="white"/>
<path d="M218.522 158.46C218.221 158.761 217.863 159.001 217.469 159.166C217.054 159.342 216.607 159.429 216.157 159.421C215.705 159.413 215.261 159.311 214.854 159.121C214.431 158.947 214.048 158.692 213.725 158.369C213.436 158.049 213.213 157.677 213.064 157.272C212.924 156.872 212.863 156.448 212.883 156.025C212.904 155.586 213.009 155.155 213.191 154.755C213.535 153.951 214.177 153.31 214.981 152.967C215.381 152.8 215.81 152.716 216.244 152.719C216.712 152.723 217.173 152.825 217.597 153.019C218.021 153.188 218.406 153.444 218.726 153.771C219.013 154.088 219.238 154.458 219.387 154.86C219.53 155.26 219.591 155.684 219.567 156.108C219.545 156.548 219.443 156.981 219.267 157.385C219.086 157.787 218.831 158.151 218.514 158.46M218.8 156.055C218.818 155.716 218.77 155.376 218.657 155.056C218.545 154.74 218.371 154.448 218.146 154.199C217.91 153.937 217.62 153.729 217.296 153.59C216.975 153.445 216.627 153.368 216.274 153.365C215.939 153.363 215.609 153.432 215.304 153.568C214.997 153.701 214.718 153.892 214.484 154.131C214.228 154.382 214.023 154.681 213.883 155.011C213.736 155.337 213.651 155.689 213.635 156.048C213.617 156.384 213.666 156.721 213.778 157.039C213.889 157.356 214.063 157.648 214.289 157.896C214.527 158.158 214.816 158.368 215.139 158.512C215.46 158.656 215.809 158.73 216.161 158.73C216.495 158.731 216.825 158.665 217.132 158.535C217.439 158.403 217.717 158.212 217.951 157.971C218.204 157.718 218.408 157.42 218.552 157.092C218.7 156.765 218.783 156.413 218.8 156.055Z" fill="white"/>
<path d="M223.663 163.87L223.415 160.729L221.844 159.737L220.498 161.871L219.873 161.481L223.347 155.98L225.716 157.483C225.996 157.655 226.25 157.868 226.467 158.114C226.653 158.336 226.793 158.591 226.881 158.866C226.959 159.108 226.984 159.364 226.956 159.617C226.878 160.132 226.61 160.598 226.204 160.925C226.022 161.056 225.815 161.151 225.596 161.203C225.369 161.241 225.138 161.241 224.912 161.203C224.652 161.176 224.399 161.11 224.159 161.007L224.437 164.321L223.663 163.87ZM226.166 158.964C225.993 158.564 225.692 158.234 225.31 158.024L223.602 156.95L222.189 159.204L223.888 160.271C224.08 160.393 224.288 160.486 224.505 160.549C224.699 160.602 224.899 160.622 225.099 160.609C225.283 160.589 225.459 160.53 225.617 160.436C225.783 160.332 225.923 160.191 226.023 160.023C226.131 159.874 226.201 159.701 226.226 159.519C226.251 159.336 226.23 159.151 226.166 158.979" fill="white"/>
<path d="M228.01 167.22L227.447 166.754L229.093 164.77L229.529 160.021L230.214 160.593L229.815 164.492L233.598 163.403L234.251 163.951L229.665 165.236L228.01 167.22Z" fill="white"/>
<path d="M194.619 171.354V172.406C194.619 172.406 195.657 172.879 195.739 173.668C195.822 174.457 195.739 189.207 195.739 189.207C195.739 189.207 195.882 194.407 195.739 194.707C195.516 195.191 195.181 195.616 194.762 195.947V196.811H195.98C196.541 195.788 196.839 194.642 196.845 193.475C196.92 191.356 196.845 174.254 196.845 174.254C196.672 173.222 196.293 172.236 195.732 171.354H194.619Z" fill="white"/>
<path d="M200.011 171.504H198.756V196.766H200.011V171.504Z" fill="white"/>
<path d="M199.53 171.43C200.931 171.477 202.326 171.635 203.702 171.903C204.567 172.211 206.612 173.864 206.928 175.743C207.243 177.621 205.823 181.709 202.417 181.942H199.499V181.003C199.499 181.003 202.108 181.393 203.522 180.529C204.936 179.665 206.423 178.275 205.778 175.427C205.131 172.579 202.214 172.474 199.484 172.384L199.53 171.43Z" fill="white"/>
<path d="M199.528 171.43C199.528 171.43 204.957 171.43 206.491 171.505C207.645 171.709 208.694 172.304 209.459 173.192C210.226 174.079 210.661 175.203 210.694 176.374C210.694 179.274 209.671 182.49 202.423 181.942L202.461 181.108C202.461 181.108 208.159 181.784 209.491 178.252C210.822 174.721 207.709 172.181 203.22 172.196L199.506 172.384L199.528 171.43Z" fill="white"/>
<path d="M200.169 171.391H194.598V172.413H200.169V171.391Z" fill="white"/>
<path d="M200.959 195.752H194.598V196.774H200.959V195.752Z" fill="white"/>
<path d="M199.838 195.751C199.838 195.751 202.762 196.066 204.725 195.044C206.687 194.022 209.905 191.287 208.026 186.336C206.146 181.384 201.627 182.12 200.996 181.902L200.958 181.083C203.028 180.921 205.081 181.564 206.687 182.879C208.062 183.99 209.02 185.534 209.405 187.258C209.79 188.983 209.58 190.787 208.807 192.377C207.078 195.984 203.041 196.765 199.529 196.81L199.838 195.751Z" fill="white"/>
<path d="M204.401 181.13C204.401 181.13 207.889 181.055 209.603 182.325C211.317 183.594 214.867 186.833 212.574 192.378C210.28 197.924 201.295 196.766 200.957 196.766V195.752C200.957 195.752 207.077 196.616 210.145 193.791C213.212 190.966 212.656 184.842 209.197 183.121C205.739 181.4 203.566 181.941 203.566 181.941L204.401 181.13Z" fill="white"/>
<path d="M194.972 171.361V172.413C194.972 172.413 193.927 172.887 193.852 173.676C193.777 174.465 193.852 189.215 193.852 189.215C193.852 189.215 193.702 194.414 193.815 194.715C194.038 195.199 194.373 195.624 194.792 195.955V196.819H193.574C193.017 195.794 192.72 194.649 192.709 193.483C192.634 191.364 192.709 174.262 192.709 174.262C192.882 173.23 193.26 172.244 193.822 171.361H194.972Z" fill="white"/>
<path d="M190.822 171.52H189.566V196.782H190.822V171.52Z" fill="white"/>
<path d="M190.065 171.443C188.661 171.487 187.263 171.643 185.884 171.909C185.019 172.225 182.982 173.87 182.666 175.749C182.35 177.627 183.764 181.715 187.14 181.948H190.065V181.009C190.065 181.009 187.456 181.399 186.042 180.535C184.629 179.671 183.14 178.281 183.787 175.441C184.433 172.601 187.358 172.48 190.087 172.39L190.065 171.443Z" fill="white"/>
<path d="M190.064 171.443C190.064 171.443 184.635 171.443 183.101 171.519C181.948 171.721 180.899 172.315 180.133 173.201C179.367 174.087 178.931 175.21 178.898 176.38C178.898 179.28 179.921 182.496 187.169 181.948L187.131 181.114C187.131 181.114 181.44 181.79 180.101 178.266C178.763 174.742 181.883 172.195 186.372 172.21L190.094 172.39L190.064 171.443Z" fill="white"/>
<path d="M194.989 171.398H189.418V172.42H194.989V171.398Z" fill="white"/>
<path d="M194.988 195.758H188.627V196.78H194.988V195.758Z" fill="white"/>
<path d="M189.747 195.76C189.747 195.76 186.822 196.075 184.86 195.053C182.897 194.032 179.679 191.296 181.567 186.345C183.454 181.393 187.965 182.129 188.589 181.911L188.634 181.1C186.561 180.934 184.505 181.577 182.897 182.896C181.525 184.007 180.569 185.549 180.184 187.272C179.799 188.995 180.008 190.797 180.777 192.386C182.506 195.993 186.544 196.782 190.063 196.819L189.747 195.76Z" fill="white"/>
<path d="M185.191 181.136C185.191 181.136 181.702 181.061 179.988 182.33C178.273 183.6 174.725 186.839 176.98 192.384C179.236 197.929 188.258 196.78 188.604 196.78V195.758C188.604 195.758 182.476 196.622 179.416 193.797C176.356 190.972 176.905 184.855 180.356 183.127C183.807 181.399 185.995 181.947 185.995 181.947L185.191 181.136Z" fill="white"/>
<path d="M193.828 188.291H192.686V253.392H193.828V188.291Z" fill="white"/>
<path d="M196.904 188.291H195.762V253.392H196.904V188.291Z" fill="white"/>
<path d="M194.941 172.022C194.241 172.023 193.555 171.817 192.972 171.429C192.389 171.041 191.934 170.489 191.664 169.842C191.395 169.195 191.324 168.484 191.46 167.797C191.595 167.11 191.932 166.478 192.427 165.983C192.922 165.487 193.553 165.149 194.24 165.012C194.927 164.875 195.64 164.944 196.287 165.212C196.935 165.48 197.488 165.933 197.878 166.515C198.267 167.098 198.475 167.782 198.475 168.482C198.475 169.42 198.103 170.319 197.441 170.982C196.778 171.646 195.879 172.02 194.941 172.022ZM194.941 165.913C194.431 165.911 193.931 166.061 193.506 166.344C193.081 166.627 192.749 167.029 192.553 167.5C192.357 167.972 192.305 168.49 192.404 168.991C192.503 169.492 192.749 169.951 193.11 170.312C193.471 170.673 193.932 170.919 194.433 171.018C194.934 171.117 195.453 171.066 195.924 170.87C196.396 170.674 196.799 170.342 197.081 169.917C197.364 169.492 197.514 168.993 197.513 168.482C197.511 167.802 197.239 167.149 196.757 166.668C196.276 166.186 195.623 165.915 194.941 165.913Z" fill="white"/>
<path d="M199.19 198.855H190.318V200.17H199.19V198.855Z" fill="white"/>
<path d="M209.544 251.762H192.717V253.392H209.544V251.762Z" fill="white"/>
<path d="M209.544 250.289H207.912V253.227H209.544V250.289Z" fill="white"/>
<path d="M203.499 242.295H193.537V243.925H203.499V242.295Z" fill="white"/>
<path d="M204.807 241.639H203.176V244.577H204.807V241.639Z" fill="white"/>
</g>
</g>
</svg>
