<svg width="400" height="400" viewBox="0 0 400 400" fill="none" xmlns="http://www.w3.org/2000/svg">
<path d="M124.309 182.969C124.168 184.309 124.062 185.614 123.991 186.883C123.956 188.117 123.938 189.069 123.938 189.739C123.938 190.586 123.956 191.379 123.991 192.12C124.026 192.86 124.062 193.512 124.097 194.077H122.877C122.63 191.608 122.294 189.669 121.869 188.258C121.445 186.812 120.703 185.772 119.642 185.137C118.581 184.503 116.937 184.185 114.709 184.185H111.367C110.165 184.185 109.246 184.291 108.609 184.503C108.008 184.679 107.601 185.085 107.389 185.719C107.177 186.319 107.071 187.271 107.071 188.576V214.812C107.071 216.081 107.195 217.033 107.442 217.668C107.725 218.303 108.256 218.726 109.033 218.937C109.811 219.149 110.943 219.29 112.428 219.361V220.418C111.509 220.348 110.342 220.313 108.927 220.313C107.513 220.277 106.081 220.26 104.631 220.26C103.252 220.26 101.961 220.277 100.759 220.313C99.5568 220.313 98.5844 220.348 97.8418 220.418V219.361C99.0441 219.29 99.9458 219.149 100.547 218.937C101.183 218.726 101.608 218.303 101.82 217.668C102.032 217.033 102.138 216.081 102.138 214.812V188.576C102.138 187.271 102.032 186.319 101.82 185.719C101.608 185.085 101.183 184.661 100.547 184.45C99.9458 184.203 99.0441 184.062 97.8418 184.027V182.969C99.1501 183.004 100.529 183.039 101.979 183.075C103.429 183.075 104.861 183.092 106.275 183.127C107.69 183.127 108.998 183.127 110.2 183.127C111.438 183.127 112.446 183.127 113.224 183.127C114.85 183.127 116.689 183.127 118.74 183.127C120.826 183.092 122.683 183.039 124.309 182.969ZM116.088 201.588C116.088 201.588 116.088 201.764 116.088 202.117C116.088 202.469 116.088 202.646 116.088 202.646H105.48C105.48 202.646 105.48 202.469 105.48 202.117C105.48 201.764 105.48 201.588 105.48 201.588H116.088ZM117.096 194.606C116.954 196.616 116.884 198.15 116.884 199.207C116.919 200.265 116.937 201.235 116.937 202.117C116.937 202.998 116.954 203.968 116.99 205.026C117.025 206.084 117.113 207.618 117.255 209.628H116.035C115.893 208.499 115.717 207.406 115.504 206.348C115.328 205.255 114.903 204.374 114.231 203.704C113.595 202.998 112.499 202.646 110.943 202.646V201.588C112.11 201.588 112.994 201.359 113.595 200.9C114.231 200.407 114.691 199.789 114.974 199.049C115.257 198.308 115.451 197.55 115.557 196.774C115.664 195.963 115.77 195.24 115.876 194.606H117.096Z" fill="white"/>
<path d="M135.422 178.949V215.5C135.422 216.981 135.723 217.986 136.324 218.515C136.96 219.044 138.003 219.308 139.453 219.308V220.419C138.852 220.384 137.933 220.348 136.695 220.313C135.493 220.243 134.273 220.207 133.035 220.207C131.833 220.207 130.613 220.243 129.375 220.313C128.138 220.348 127.218 220.384 126.617 220.419V219.308C128.067 219.308 129.092 219.044 129.694 218.515C130.33 217.986 130.648 216.981 130.648 215.5V185.297C130.648 183.71 130.365 182.546 129.8 181.806C129.234 181.03 128.173 180.642 126.617 180.642V179.531C127.749 179.637 128.845 179.69 129.906 179.69C130.931 179.69 131.904 179.637 132.823 179.531C133.778 179.39 134.644 179.196 135.422 178.949Z" fill="white"/>
<path d="M154.536 192.438C157.648 192.438 160.07 193.39 161.803 195.294C163.571 197.163 164.455 200.09 164.455 204.074H145.731L145.678 203.068H159.363C159.434 201.34 159.292 199.755 158.938 198.309C158.585 196.828 158.019 195.645 157.241 194.764C156.499 193.882 155.526 193.441 154.324 193.441C152.697 193.441 151.248 194.254 149.975 195.876C148.737 197.498 147.994 200.072 147.747 203.598L147.906 203.809C147.835 204.338 147.782 204.92 147.747 205.554C147.711 206.189 147.694 206.825 147.694 207.46C147.694 209.858 148.083 211.919 148.861 213.647C149.639 215.375 150.646 216.698 151.884 217.615C153.157 218.496 154.465 218.938 155.809 218.938C156.87 218.938 157.878 218.779 158.832 218.462C159.787 218.109 160.671 217.544 161.484 216.768C162.298 215.992 163.005 214.952 163.606 213.647L164.667 214.07C164.278 215.234 163.641 216.363 162.757 217.456C161.873 218.549 160.76 219.449 159.416 220.154C158.072 220.824 156.516 221.158 154.748 221.158C152.202 221.158 150.01 220.577 148.171 219.413C146.368 218.249 144.971 216.646 143.981 214.6C143.026 212.52 142.549 210.14 142.549 207.46C142.549 204.356 143.044 201.693 144.034 199.471C145.024 197.215 146.421 195.487 148.224 194.288C150.028 193.054 152.132 192.438 154.536 192.438Z" fill="white"/>
<path d="M192.559 192.596V214.706C192.559 216.293 192.842 217.474 193.408 218.25C194.009 218.99 195.07 219.361 196.59 219.361V220.471C195.494 220.365 194.398 220.313 193.302 220.313C192.276 220.313 191.286 220.365 190.331 220.471C189.412 220.577 188.563 220.771 187.785 221.053V214.812C186.901 217.104 185.646 218.743 184.02 219.731C182.428 220.683 180.784 221.159 179.087 221.159C177.849 221.159 176.771 220.983 175.851 220.63C174.932 220.277 174.172 219.784 173.57 219.149C172.899 218.444 172.439 217.527 172.191 216.398C171.944 215.27 171.82 213.877 171.82 212.22V198.943C171.82 197.356 171.537 196.193 170.971 195.452C170.406 194.676 169.345 194.288 167.789 194.288V193.177C168.921 193.283 170.017 193.336 171.078 193.336C172.103 193.336 173.075 193.283 173.995 193.177C174.95 193.036 175.816 192.842 176.594 192.596V213.383C176.594 214.477 176.665 215.482 176.806 216.398C176.947 217.315 177.301 218.056 177.867 218.62C178.433 219.184 179.352 219.466 180.625 219.466C182.004 219.466 183.224 219.043 184.285 218.197C185.381 217.351 186.23 216.205 186.831 214.759C187.467 213.313 187.785 211.691 187.785 209.892V198.943C187.785 197.356 187.503 196.193 186.937 195.452C186.371 194.676 185.31 194.288 183.754 194.288V193.177C184.886 193.283 185.982 193.336 187.043 193.336C188.068 193.336 189.041 193.283 189.96 193.177C190.915 193.036 191.781 192.842 192.559 192.596Z" fill="white"/>
<path d="M216.495 192C217.451 192 218.282 192.193 218.989 192.581C219.731 192.969 220.297 193.481 220.686 194.115C221.11 194.715 221.323 195.402 221.323 196.178C221.323 197.06 221.04 197.836 220.473 198.506C219.943 199.176 219.219 199.511 218.299 199.511C217.557 199.511 216.903 199.281 216.337 198.823C215.77 198.329 215.488 197.642 215.488 196.76C215.488 196.09 215.664 195.526 216.019 195.067C216.407 194.574 216.831 194.186 217.291 193.904C217.043 193.551 216.673 193.375 216.178 193.375C215.081 193.375 214.074 193.71 213.154 194.38C212.234 195.014 211.457 195.843 210.821 196.866C210.184 197.888 209.689 198.982 209.335 200.145C208.981 201.274 208.805 202.332 208.805 203.319V214.533C208.805 216.261 209.3 217.424 210.29 218.024C211.316 218.588 212.695 218.87 214.427 218.87V219.981C213.614 219.946 212.464 219.91 210.979 219.875C209.495 219.805 207.921 219.769 206.259 219.769C205.056 219.769 203.854 219.805 202.652 219.875C201.485 219.91 200.601 219.946 200 219.981V218.87C201.45 218.87 202.475 218.606 203.076 218.077C203.713 217.548 204.031 216.543 204.031 215.062V198.506C204.031 196.919 203.748 195.755 203.182 195.014C202.617 194.239 201.556 193.851 200 193.851V192.74C201.131 192.846 202.228 192.899 203.288 192.899C204.314 192.899 205.286 192.846 206.206 192.74C207.16 192.599 208.027 192.405 208.805 192.158V198.77C209.194 197.747 209.742 196.725 210.449 195.702C211.191 194.644 212.075 193.763 213.101 193.057C214.126 192.352 215.258 192 216.495 192Z" fill="white"/>
<path d="M234.877 192.438C237.14 192.438 239.173 192.931 240.976 193.919C242.78 194.906 244.212 196.457 245.273 198.572C246.369 200.688 246.917 203.439 246.917 206.824C246.917 210.209 246.369 212.96 245.273 215.076C244.212 217.156 242.78 218.69 240.976 219.677C239.173 220.665 237.14 221.158 234.877 221.158C232.649 221.158 230.615 220.665 228.777 219.677C226.973 218.69 225.524 217.156 224.427 215.076C223.367 212.96 222.836 210.209 222.836 206.824C222.836 203.439 223.367 200.688 224.427 198.572C225.524 196.457 226.973 194.906 228.777 193.919C230.615 192.931 232.649 192.438 234.877 192.438ZM234.877 193.494C232.861 193.494 231.199 194.535 229.891 196.615C228.618 198.696 227.982 202.099 227.982 206.824C227.982 211.549 228.618 214.952 229.891 217.033C231.199 219.078 232.861 220.102 234.877 220.102C236.892 220.102 238.537 219.078 239.81 217.033C241.118 214.952 241.773 211.549 241.773 206.824C241.773 202.099 241.118 198.696 239.81 196.615C238.537 194.535 236.892 193.494 234.877 193.494Z" fill="white"/>
<path d="M268.761 192.438C270.106 192.438 271.219 192.613 272.103 192.965C273.023 193.318 273.783 193.812 274.384 194.447C275.056 195.152 275.533 196.033 275.816 197.091C276.099 198.149 276.241 199.577 276.241 201.376V215.499C276.241 216.98 276.541 217.985 277.142 218.514C277.779 219.043 278.822 219.307 280.272 219.307V220.419C279.671 220.384 278.751 220.348 277.514 220.312C276.276 220.242 275.074 220.206 273.907 220.206C272.739 220.206 271.591 220.242 270.459 220.312C269.363 220.348 268.532 220.384 267.966 220.419V219.307C269.239 219.307 270.14 219.043 270.671 218.514C271.202 217.985 271.466 216.98 271.466 215.499V200.212C271.466 199.119 271.379 198.114 271.202 197.197C271.024 196.28 270.618 195.54 269.981 194.975C269.381 194.411 268.444 194.13 267.171 194.13C265.686 194.13 264.377 194.552 263.245 195.399C262.15 196.245 261.283 197.41 260.646 198.891C260.045 200.336 259.745 201.959 259.745 203.757V215.499C259.745 216.98 260.01 217.985 260.54 218.514C261.071 219.043 261.972 219.307 263.245 219.307V220.419C262.68 220.384 261.831 220.348 260.699 220.312C259.603 220.242 258.472 220.206 257.305 220.206C256.138 220.206 254.936 220.242 253.698 220.312C252.46 220.348 251.541 220.384 250.939 220.419V219.307C252.39 219.307 253.415 219.043 254.016 218.514C254.653 217.985 254.972 216.98 254.972 215.499V198.943C254.972 197.356 254.688 196.192 254.122 195.451C253.557 194.676 252.496 194.288 250.939 194.288V193.177C252.072 193.283 253.168 193.337 254.228 193.337C255.254 193.337 256.226 193.283 257.146 193.177C258.1 193.036 258.967 192.842 259.745 192.595V198.837C260.665 196.439 261.937 194.781 263.564 193.865C265.225 192.912 266.959 192.438 268.761 192.438Z" fill="white"/>
<path d="M292.083 192.438C293.497 192.438 294.699 192.666 295.689 193.124C296.679 193.583 297.404 194.007 297.863 194.395C299.03 195.347 299.738 194.712 299.986 192.49H301.206C301.135 193.478 301.082 194.658 301.046 196.033C301.011 197.373 300.993 199.189 300.993 201.481H299.773C299.561 200.177 299.189 198.907 298.66 197.673C298.165 196.439 297.421 195.434 296.431 194.658C295.441 193.847 294.151 193.441 292.559 193.441C291.322 193.441 290.279 193.794 289.43 194.499C288.617 195.169 288.21 196.174 288.21 197.514C288.21 198.572 288.528 199.49 289.165 200.266C289.801 201.006 290.632 201.712 291.658 202.382C292.683 203.017 293.798 203.721 294.999 204.497C296.344 205.343 297.563 206.208 298.66 207.089C299.756 207.971 300.622 208.94 301.259 209.998C301.93 211.056 302.266 212.307 302.266 213.753C302.266 215.375 301.841 216.733 300.993 217.826C300.145 218.919 299.03 219.748 297.651 220.312C296.308 220.877 294.823 221.158 293.196 221.158C292.419 221.158 291.675 221.088 290.968 220.947C290.296 220.841 289.642 220.666 289.006 220.419C288.652 220.243 288.281 220.03 287.892 219.783C287.538 219.536 287.185 219.272 286.831 218.99C286.478 218.708 286.159 218.726 285.876 219.044C285.594 219.326 285.381 219.907 285.24 220.788H284.02C284.091 219.66 284.144 218.284 284.179 216.662C284.215 215.04 284.232 212.89 284.232 210.21H285.452C285.7 212.185 286.053 213.912 286.513 215.393C286.973 216.874 287.697 218.038 288.688 218.884C289.678 219.695 291.057 220.102 292.825 220.102C293.532 220.102 294.24 219.943 294.946 219.626C295.689 219.308 296.308 218.778 296.803 218.038C297.298 217.297 297.545 216.31 297.545 215.076C297.545 213.524 296.979 212.255 295.848 211.268C294.716 210.281 293.284 209.239 291.552 208.146C290.279 207.335 289.077 206.525 287.946 205.714C286.849 204.903 285.947 203.986 285.24 202.964C284.568 201.941 284.232 200.706 284.232 199.26C284.232 197.673 284.586 196.386 285.294 195.399C286.036 194.376 287.008 193.635 288.21 193.177C289.412 192.683 290.704 192.438 292.083 192.438Z" fill="white"/>
</svg>
