<svg width="400" height="400" viewBox="0 0 400 400" fill="none" xmlns="http://www.w3.org/2000/svg">
<path d="M124.309 182.969C124.168 184.309 124.062 185.614 123.991 186.883C123.956 188.117 123.938 189.069 123.938 189.739C123.938 190.586 123.956 191.379 123.991 192.12C124.026 192.86 124.062 193.512 124.097 194.077H122.877C122.63 191.608 122.294 189.669 121.869 188.258C121.445 186.812 120.703 185.772 119.642 185.137C118.581 184.503 116.937 184.185 114.709 184.185H111.367C110.165 184.185 109.246 184.291 108.609 184.503C108.008 184.679 107.601 185.085 107.389 185.719C107.177 186.319 107.071 187.271 107.071 188.576V214.812C107.071 216.081 107.195 217.033 107.442 217.668C107.725 218.303 108.256 218.726 109.033 218.937C109.811 219.149 110.943 219.29 112.428 219.361V220.418C111.509 220.348 110.342 220.313 108.927 220.313C107.513 220.277 106.081 220.26 104.631 220.26C103.252 220.26 101.961 220.277 100.759 220.313C99.5568 220.313 98.5844 220.348 97.8418 220.418V219.361C99.0441 219.29 99.9458 219.149 100.547 218.937C101.183 218.726 101.608 218.303 101.82 217.668C102.032 217.033 102.138 216.081 102.138 214.812V188.576C102.138 187.271 102.032 186.319 101.82 185.719C101.608 185.085 101.183 184.661 100.547 184.45C99.9458 184.203 99.0441 184.062 97.8418 184.027V182.969C99.1501 183.004 100.529 183.039 101.979 183.075C103.429 183.075 104.861 183.092 106.275 183.127C107.69 183.127 108.998 183.127 110.2 183.127C111.438 183.127 112.446 183.127 113.224 183.127C114.85 183.127 116.689 183.127 118.74 183.127C120.826 183.092 122.683 183.039 124.309 182.969ZM116.088 201.588C116.088 201.588 116.088 201.764 116.088 202.117C116.088 202.469 116.088 202.646 116.088 202.646H105.48C105.48 202.646 105.48 202.469 105.48 202.117C105.48 201.764 105.48 201.588 105.48 201.588H116.088ZM117.096 194.606C116.954 196.616 116.884 198.15 116.884 199.207C116.919 200.265 116.937 201.235 116.937 202.117C116.937 202.998 116.954 203.968 116.99 205.026C117.025 206.084 117.113 207.618 117.255 209.628H116.035C115.893 208.499 115.717 207.406 115.504 206.348C115.328 205.255 114.903 204.374 114.231 203.704C113.595 202.998 112.499 202.646 110.943 202.646V201.588C112.11 201.588 112.994 201.359 113.595 200.9C114.231 200.407 114.691 199.789 114.974 199.049C115.257 198.308 115.451 197.55 115.557 196.774C115.664 195.963 115.77 195.24 115.876 194.606H117.096Z" fill="#696F75"/>
<path d="M135.422 178.949V215.5C135.422 216.981 135.723 217.986 136.324 218.515C136.96 219.044 138.003 219.308 139.453 219.308V220.419C138.852 220.384 137.933 220.348 136.695 220.313C135.493 220.243 134.273 220.207 133.035 220.207C131.833 220.207 130.613 220.243 129.375 220.313C128.138 220.348 127.218 220.384 126.617 220.419V219.308C128.067 219.308 129.092 219.044 129.694 218.515C130.33 217.986 130.648 216.981 130.648 215.5V185.297C130.648 183.71 130.365 182.546 129.8 181.806C129.234 181.03 128.173 180.642 126.617 180.642V179.531C127.749 179.637 128.845 179.69 129.906 179.69C130.931 179.69 131.904 179.637 132.823 179.531C133.778 179.39 134.644 179.196 135.422 178.949Z" fill="#696F75"/>
<path d="M154.536 192.438C157.648 192.438 160.07 193.39 161.803 195.294C163.571 197.163 164.455 200.09 164.455 204.074H145.731L145.678 203.069H159.363C159.434 201.341 159.292 199.755 158.938 198.309C158.585 196.828 158.019 195.646 157.241 194.765C156.499 193.883 155.526 193.442 154.324 193.442C152.697 193.442 151.248 194.254 149.975 195.876C148.737 197.498 147.994 200.072 147.747 203.598L147.906 203.81C147.835 204.339 147.782 204.921 147.747 205.555C147.711 206.19 147.694 206.825 147.694 207.46C147.694 209.858 148.083 211.92 148.861 213.648C149.639 215.376 150.646 216.699 151.884 217.616C153.157 218.497 154.465 218.938 155.809 218.938C156.87 218.938 157.878 218.779 158.832 218.462C159.787 218.109 160.671 217.545 161.484 216.769C162.298 215.993 163.005 214.953 163.606 213.648L164.667 214.071C164.278 215.235 163.641 216.364 162.757 217.457C161.873 218.55 160.76 219.449 159.416 220.154C158.072 220.824 156.516 221.159 154.748 221.159C152.202 221.159 150.01 220.578 148.171 219.414C146.368 218.25 144.971 216.646 143.981 214.6C143.026 212.52 142.549 210.14 142.549 207.46C142.549 204.356 143.044 201.694 144.034 199.472C145.024 197.216 146.421 195.488 148.224 194.289C150.028 193.055 152.132 192.438 154.536 192.438Z" fill="#696F75"/>
<path d="M192.559 192.596V214.706C192.559 216.293 192.842 217.474 193.408 218.25C194.009 218.99 195.07 219.361 196.59 219.361V220.471C195.494 220.365 194.398 220.313 193.302 220.313C192.276 220.313 191.286 220.365 190.331 220.471C189.412 220.577 188.563 220.771 187.785 221.053V214.812C186.901 217.104 185.646 218.743 184.02 219.731C182.428 220.683 180.784 221.159 179.087 221.159C177.849 221.159 176.771 220.983 175.851 220.63C174.932 220.277 174.172 219.784 173.57 219.149C172.899 218.444 172.439 217.527 172.191 216.398C171.944 215.27 171.82 213.877 171.82 212.22V198.943C171.82 197.356 171.537 196.193 170.971 195.452C170.406 194.676 169.345 194.288 167.789 194.288V193.177C168.921 193.283 170.017 193.336 171.078 193.336C172.103 193.336 173.075 193.283 173.995 193.177C174.95 193.036 175.816 192.842 176.594 192.596V213.383C176.594 214.477 176.665 215.482 176.806 216.398C176.947 217.315 177.301 218.056 177.867 218.62C178.433 219.184 179.352 219.466 180.625 219.466C182.004 219.466 183.224 219.043 184.285 218.197C185.381 217.351 186.23 216.205 186.831 214.759C187.467 213.313 187.785 211.691 187.785 209.892V198.943C187.785 197.356 187.503 196.193 186.937 195.452C186.371 194.676 185.31 194.288 183.754 194.288V193.177C184.886 193.283 185.982 193.336 187.043 193.336C188.068 193.336 189.041 193.283 189.96 193.177C190.915 193.036 191.781 192.842 192.559 192.596Z" fill="#696F75"/>
<path d="M215.792 192.438C216.748 192.438 217.579 192.631 218.286 193.019C219.028 193.407 219.594 193.919 219.983 194.553C220.407 195.153 220.62 195.84 220.62 196.616C220.62 197.498 220.337 198.274 219.77 198.944C219.24 199.614 218.516 199.949 217.596 199.949C216.854 199.949 216.2 199.719 215.634 199.261C215.067 198.767 214.785 198.08 214.785 197.198C214.785 196.528 214.961 195.964 215.316 195.505C215.704 195.012 216.128 194.624 216.588 194.342C216.34 193.989 215.97 193.813 215.475 193.813C214.378 193.813 213.371 194.148 212.451 194.818C211.531 195.452 210.754 196.281 210.118 197.304C209.481 198.326 208.986 199.42 208.632 200.583C208.278 201.712 208.102 202.77 208.102 203.757V214.971C208.102 216.699 208.597 217.862 209.587 218.462C210.613 219.026 211.992 219.308 213.724 219.308V220.419C212.911 220.384 211.761 220.348 210.276 220.313C208.792 220.243 207.218 220.207 205.556 220.207C204.353 220.207 203.151 220.243 201.949 220.313C200.782 220.348 199.898 220.384 199.297 220.419V219.308C200.747 219.308 201.772 219.044 202.373 218.515C203.01 217.986 203.328 216.981 203.328 215.5V198.944C203.328 197.357 203.045 196.193 202.479 195.452C201.914 194.677 200.853 194.289 199.297 194.289V193.178C200.428 193.284 201.525 193.337 202.585 193.337C203.611 193.337 204.583 193.284 205.503 193.178C206.457 193.037 207.324 192.843 208.102 192.596V199.208C208.491 198.185 209.039 197.163 209.746 196.14C210.488 195.082 211.372 194.201 212.398 193.495C213.423 192.79 214.555 192.438 215.792 192.438Z" fill="#696F75"/>
<path d="M234.877 192.438C237.14 192.438 239.173 192.931 240.976 193.919C242.78 194.906 244.212 196.458 245.273 198.573C246.369 200.689 246.917 203.44 246.917 206.825C246.917 210.21 246.369 212.961 245.273 215.077C244.212 217.157 242.78 218.691 240.976 219.678C239.173 220.666 237.14 221.159 234.877 221.159C232.649 221.159 230.615 220.666 228.777 219.678C226.973 218.691 225.524 217.157 224.427 215.077C223.367 212.961 222.836 210.21 222.836 206.825C222.836 203.44 223.367 200.689 224.427 198.573C225.524 196.458 226.973 194.906 228.777 193.919C230.615 192.931 232.649 192.438 234.877 192.438ZM234.877 193.495C232.861 193.495 231.199 194.536 229.891 196.616C228.618 198.697 227.982 202.1 227.982 206.825C227.982 211.55 228.618 214.953 229.891 217.034C231.199 219.079 232.861 220.102 234.877 220.102C236.892 220.102 238.537 219.079 239.81 217.034C241.118 214.953 241.773 211.55 241.773 206.825C241.773 202.1 241.118 198.697 239.81 196.616C238.537 194.536 236.892 193.495 234.877 193.495Z" fill="#696F75"/>
<path d="M268.761 192.438C270.106 192.438 271.219 192.614 272.103 192.966C273.023 193.319 273.783 193.813 274.384 194.448C275.056 195.153 275.533 196.034 275.816 197.092C276.099 198.15 276.241 199.578 276.241 201.377V215.5C276.241 216.981 276.541 217.986 277.142 218.515C277.779 219.044 278.822 219.308 280.272 219.308V220.419C279.671 220.384 278.751 220.348 277.514 220.313C276.276 220.243 275.074 220.207 273.907 220.207C272.739 220.207 271.591 220.243 270.459 220.313C269.363 220.348 268.532 220.384 267.966 220.419V219.308C269.239 219.308 270.14 219.044 270.671 218.515C271.202 217.986 271.466 216.981 271.466 215.5V200.213C271.466 199.12 271.379 198.115 271.202 197.198C271.024 196.281 270.618 195.541 269.981 194.976C269.381 194.412 268.444 194.13 267.171 194.13C265.686 194.13 264.377 194.553 263.245 195.4C262.15 196.246 261.283 197.41 260.646 198.891C260.045 200.336 259.745 201.959 259.745 203.757V215.5C259.745 216.981 260.01 217.986 260.54 218.515C261.071 219.044 261.972 219.308 263.245 219.308V220.419C262.68 220.384 261.831 220.348 260.699 220.313C259.603 220.243 258.472 220.207 257.305 220.207C256.138 220.207 254.936 220.243 253.698 220.313C252.46 220.348 251.541 220.384 250.939 220.419V219.308C252.39 219.308 253.415 219.044 254.016 218.515C254.653 217.986 254.972 216.981 254.972 215.5V198.944C254.972 197.357 254.688 196.193 254.122 195.452C253.557 194.677 252.496 194.289 250.939 194.289V193.178C252.072 193.284 253.168 193.337 254.228 193.337C255.254 193.337 256.226 193.284 257.146 193.178C258.1 193.037 258.967 192.843 259.745 192.596V198.838C260.665 196.44 261.937 194.782 263.564 193.866C265.225 192.913 266.959 192.438 268.761 192.438Z" fill="#696F75"/>
<path d="M292.083 192.438C293.497 192.438 294.699 192.667 295.689 193.125C296.679 193.584 297.404 194.007 297.863 194.395C299.03 195.347 299.738 194.712 299.986 192.49H301.206C301.135 193.478 301.082 194.659 301.046 196.034C301.011 197.374 300.993 199.19 300.993 201.482H299.773C299.561 200.178 299.189 198.908 298.66 197.674C298.165 196.44 297.421 195.435 296.431 194.659C295.441 193.848 294.151 193.442 292.559 193.442C291.322 193.442 290.279 193.795 289.43 194.5C288.617 195.17 288.21 196.175 288.21 197.515C288.21 198.573 288.528 199.49 289.165 200.266C289.801 201.006 290.632 201.712 291.658 202.382C292.683 203.017 293.798 203.722 294.999 204.498C296.344 205.344 297.563 206.208 298.66 207.089C299.756 207.971 300.622 208.941 301.259 209.999C301.93 211.057 302.266 212.308 302.266 213.754C302.266 215.376 301.841 216.734 300.993 217.827C300.145 218.92 299.03 219.749 297.651 220.313C296.308 220.877 294.823 221.159 293.196 221.159C292.419 221.159 291.675 221.089 290.968 220.948C290.296 220.842 289.642 220.666 289.006 220.419C288.652 220.243 288.281 220.031 287.892 219.784C287.538 219.537 287.185 219.273 286.831 218.991C286.478 218.709 286.159 218.726 285.876 219.044C285.594 219.326 285.381 219.908 285.24 220.789H284.02C284.091 219.661 284.144 218.285 284.179 216.663C284.215 215.041 284.232 212.89 284.232 210.21H285.452C285.7 212.185 286.053 213.913 286.513 215.394C286.973 216.875 287.697 218.039 288.688 218.885C289.678 219.696 291.057 220.102 292.825 220.102C293.532 220.102 294.24 219.943 294.946 219.626C295.689 219.308 296.308 218.779 296.803 218.039C297.298 217.298 297.545 216.311 297.545 215.077C297.545 213.525 296.979 212.255 295.848 211.268C294.716 210.281 293.284 209.24 291.552 208.147C290.279 207.336 289.077 206.525 287.946 205.714C286.849 204.903 285.947 203.986 285.24 202.964C284.568 201.941 284.232 200.707 284.232 199.261C284.232 197.674 284.586 196.387 285.294 195.4C286.036 194.377 287.008 193.636 288.21 193.178C289.412 192.684 290.704 192.438 292.083 192.438Z" fill="#696F75"/>
</svg>
