<svg width="400" height="400" viewBox="0 0 400 400" fill="none" xmlns="http://www.w3.org/2000/svg">
<g clip-path="url(#clip0_1103_1754)">
<path fill-rule="evenodd" clip-rule="evenodd" d="M190.82 217.781L194.427 227.129C194.573 227.497 194.743 227.746 194.936 227.875C195.119 227.994 195.289 228.059 195.445 228.068V228.372C195.253 228.353 195.014 228.339 194.729 228.33C194.436 228.33 194.147 228.33 193.862 228.33C193.477 228.33 193.119 228.33 192.789 228.33C192.449 228.339 192.178 228.353 191.976 228.372V228.068C192.472 228.05 192.793 227.967 192.94 227.819C193.078 227.663 193.046 227.331 192.844 226.825L191.935 224.395H192.623V224.091H191.825L190.173 219.659L188.466 224.091H188.356L188.205 224.395H188.356L187.751 225.969C187.595 226.365 187.503 226.696 187.475 226.963C187.439 227.239 187.466 227.456 187.558 227.612C187.64 227.769 187.783 227.884 187.985 227.957C188.186 228.022 188.439 228.059 188.742 228.068V228.372C188.466 228.353 188.177 228.339 187.874 228.33C187.572 228.33 187.292 228.33 187.035 228.33C186.796 228.33 186.59 228.33 186.415 228.33C186.241 228.339 186.08 228.353 185.934 228.372V228.068C186.126 228.022 186.328 227.907 186.539 227.723C186.741 227.539 186.929 227.226 187.104 226.784L190.586 217.781C190.623 217.781 190.66 217.781 190.696 217.781C190.733 217.781 190.774 217.781 190.82 217.781ZM190.173 219.659L190.325 219.245L190.091 219.438L190.173 219.659ZM193.298 215.834V216.207H188.081V215.834H193.298ZM191.949 224.395L191.839 224.105H188.48L188.356 224.395H191.949Z" fill="#EFECEA"/>
<path d="M184.379 148.297C200.828 143.575 217.952 153.033 222.632 169.424C227.312 185.814 217.773 202.922 201.324 207.658C184.875 212.38 167.751 202.922 163.071 186.532C158.391 170.142 167.93 153.02 184.379 148.297Z" fill="#EFECEA"/>
<path d="M194.758 207.009C178.749 208.335 164.695 196.322 163.346 180.153C162.011 163.997 173.904 149.816 189.913 148.477C205.922 147.137 219.976 159.164 221.325 175.32C222.66 191.489 210.767 205.67 194.758 207.009Z" fill="#696F75"/>
<g style="mix-blend-mode:screen" opacity="0.2">
<path d="M192.927 150.977C208.041 150.977 220.375 163.197 220.375 178.192C194.813 152.951 164.544 191.683 165.466 178.192C165.466 163.197 177.799 150.977 192.927 150.977Z" fill="#EFECEA"/>
</g>
<path d="M180.016 201.914C184.118 203.336 190.821 204.744 196.96 200.906C204.077 196.446 200.25 185.91 200.25 185.91C201.283 205.172 180.016 201.914 180.016 201.914Z" fill="#EFECEA"/>
<path d="M208.055 194.429C208.073 194.438 208.069 194.434 208.041 194.416C208.041 194.416 208.046 194.42 208.055 194.429Z" fill="#EFECEA"/>
<path d="M208.95 187.292C209.734 182.68 207.587 180.264 207.532 180.305C208.84 185.262 205.137 190.427 205.192 190.661C205.646 192.691 205.426 196.129 205.426 196.129C206.114 191.517 208.33 190.951 208.95 187.292Z" fill="#EFECEA"/>
<path d="M211.069 187.651C206.224 191.752 204.297 197.372 206.664 199.112C210.133 201.321 213.657 196.516 213.423 196.419C211.22 198.311 209.637 198.518 208.66 198.311C207.807 198.132 207.201 197.372 207.187 196.502C207.091 193.05 211.413 187.389 211.069 187.651Z" fill="#EFECEA"/>
<path d="M206.829 175.057C210.807 179.531 210.325 182.9 208.742 189.307C220.553 176.755 198.363 172.585 205.177 159.371C205.177 159.371 198.474 165.654 206.829 175.057Z" fill="#EFECEA"/>
<path d="M179.713 171.469C179.713 171.469 187.022 167.285 191.207 171.551C194.18 174.617 193.781 174.437 195.13 175.777C195.887 176.564 197.222 178.635 202.37 177.986C205.247 178.083 208.289 179.284 209.308 182.501C209.459 183.026 209.886 177.945 206.1 175.169C206.1 175.169 204.16 174.644 201.764 175.183C200.897 175.376 199.961 175.238 199.122 174.976C197.759 174.562 196.547 173.747 195.625 172.67C192.569 169.591 186.774 163.874 179.713 171.469Z" fill="#EFECEA"/>
<path d="M215.846 176.3C215.846 176.079 214.855 172.669 215.254 169.824C215.254 169.824 214.181 171.702 214.924 176.866C215.654 182.031 212.378 183.95 212.378 183.95C212.378 183.95 211.428 186.863 210.561 187.471C214.181 185.911 217.126 180.65 215.846 176.3Z" fill="#EFECEA"/>
<path d="M205.342 153.946C205.026 154.333 202.631 157.371 204.847 158.931C204.874 158.945 204.916 158.931 204.916 158.89L205.164 157.274C205.177 157.219 205.246 157.219 205.246 157.274L205.329 158.917C205.342 158.945 205.37 158.973 205.398 158.959C207.765 157.633 205.7 154.375 205.411 153.946C205.398 153.919 205.356 153.919 205.342 153.946Z" fill="#EFECEA"/>
<path d="M198.791 156.17C198.764 156.156 198.736 156.183 198.736 156.211C198.791 156.722 199.301 160.561 201.971 160.036C201.999 160.036 202.012 159.995 201.985 159.967L201.008 158.655C200.966 158.614 201.021 158.558 201.063 158.6L202.301 159.677C202.329 159.705 202.357 159.691 202.37 159.663C203.072 157.04 199.287 156.253 198.791 156.17Z" fill="#EFECEA"/>
<path d="M194.676 159.496L196.204 160.076C196.245 160.09 196.273 160.076 196.273 160.035C196.025 157.328 192.212 157.908 191.703 157.991C191.675 158.005 191.662 158.033 191.675 158.06C191.909 158.516 193.699 161.94 196.025 160.532C196.053 160.518 196.053 160.477 196.025 160.463L194.635 159.565C194.594 159.538 194.635 159.469 194.676 159.496Z" fill="#EFECEA"/>
<path d="M201.116 163.017L202.354 163.721C202.382 163.749 202.41 163.721 202.41 163.694C202.781 161.098 199.257 161.291 198.789 161.319C198.762 161.319 198.748 161.346 198.748 161.374C198.858 161.83 199.725 165.254 202.093 164.135C202.12 164.122 202.12 164.08 202.107 164.066L201.061 163.1C201.033 163.058 201.074 163.003 201.116 163.017Z" fill="#EFECEA"/>
<path d="M198.116 166.496C198.474 166.8 201.213 169.023 202.439 166.703C202.452 166.676 202.439 166.648 202.397 166.648L200.993 166.482C200.938 166.482 200.938 166.413 200.993 166.4L202.397 166.22C202.425 166.22 202.452 166.179 202.425 166.151C201.172 163.859 198.46 166.123 198.116 166.441C198.089 166.455 198.089 166.482 198.116 166.496Z" fill="#EFECEA"/>
<path d="M199.892 172.904L200.663 174.105C200.676 174.133 200.718 174.133 200.731 174.105C202.259 171.979 199.066 170.488 198.639 170.308C198.612 170.294 198.584 170.308 198.57 170.336C198.446 170.791 197.634 174.23 200.236 174.34C200.263 174.34 200.291 174.312 200.277 174.285L199.823 172.945C199.795 172.89 199.864 172.863 199.892 172.904Z" fill="#EFECEA"/>
<path d="M204.916 165.186C204.902 165.2 204.916 165.242 204.943 165.255C207.449 165.973 207.751 162.452 207.779 161.983C207.779 161.955 207.765 161.928 207.738 161.928C207.27 161.969 203.773 162.37 204.544 164.869C204.558 164.896 204.585 164.91 204.613 164.883L205.714 163.999C205.755 163.958 205.811 164.013 205.783 164.054L204.916 165.186Z" fill="#EFECEA"/>
<path d="M209.858 158.915C209.431 158.736 206.142 157.466 205.687 160.048C205.673 160.075 205.701 160.103 205.729 160.103L207.119 159.813C207.174 159.799 207.201 159.868 207.146 159.896L205.866 160.503C205.839 160.517 205.839 160.545 205.852 160.572C207.752 162.367 209.638 159.385 209.886 158.984C209.899 158.957 209.886 158.929 209.858 158.915Z" fill="#EFECEA"/>
<path d="M205.356 167.796C205.343 167.81 205.329 167.851 205.356 167.865C207.132 169.633 208.798 166.788 209.004 166.402C209.018 166.388 209.004 166.36 208.99 166.346C208.591 166.167 205.563 164.883 205.191 167.354C205.177 167.382 205.205 167.41 205.232 167.41L206.499 167.161C206.54 167.147 206.568 167.216 206.526 167.244L205.356 167.796Z" fill="#EFECEA"/>
<path d="M213.821 164.605C213.794 164.591 213.766 164.605 213.766 164.633C213.643 165.019 212.734 168.029 214.978 168.375C215.005 168.375 215.033 168.361 215.019 168.333L214.702 167.077C214.689 167.035 214.744 167.008 214.771 167.049L215.363 168.195C215.377 168.223 215.404 168.223 215.432 168.209C216.864 166.441 214.179 164.812 213.821 164.605Z" fill="#EFECEA"/>
<path d="M209.102 168.788C209.074 168.788 209.047 168.816 209.06 168.857C209.294 169.368 211.098 173.276 213.713 171.578C213.74 171.55 213.74 171.509 213.713 171.481L212.24 170.501C212.199 170.473 212.24 170.39 212.295 170.418L213.947 171.039C213.974 171.053 214.016 171.025 214.016 170.984C213.878 167.863 209.652 168.664 209.102 168.788Z" fill="#EFECEA"/>
<path d="M212.927 175.128L214.358 175.888C214.386 175.901 214.427 175.874 214.427 175.846C214.647 172.974 210.711 173.223 210.188 173.278C210.16 173.278 210.132 173.305 210.146 173.333C210.298 173.844 211.523 177.614 214.097 176.343C214.124 176.329 214.124 176.288 214.111 176.26L212.872 175.197C212.83 175.17 212.872 175.101 212.927 175.128Z" fill="#EFECEA"/>
<path d="M219.424 171.702C218.983 171.633 215.68 171.191 215.707 173.621C215.707 173.663 215.735 173.677 215.762 173.663L217.015 173.111C217.056 173.083 217.097 173.138 217.056 173.18L215.955 173.994C215.941 174.008 215.941 174.05 215.969 174.063C218.061 175.278 219.3 172.172 219.451 171.757C219.465 171.73 219.451 171.702 219.424 171.702Z" fill="#EFECEA"/>
<path d="M220.333 174.893C219.851 174.92 216.286 175.169 216.837 177.723C216.837 177.751 216.878 177.765 216.892 177.751L218.103 176.895C218.145 176.853 218.186 176.909 218.158 176.95L217.167 178.055C217.154 178.082 217.167 178.124 217.195 178.124C219.659 178.952 220.306 175.417 220.375 174.948C220.375 174.92 220.361 174.893 220.333 174.893Z" fill="#EFECEA"/>
<path d="M216.381 184.434L214.991 184.931C214.963 184.945 214.95 184.973 214.977 185C216.739 186.92 218.997 184.13 219.286 183.744C219.313 183.73 219.299 183.702 219.272 183.689C218.845 183.481 215.597 181.963 214.853 184.476C214.84 184.503 214.867 184.531 214.895 184.531L216.367 184.351C216.409 184.351 216.422 184.42 216.381 184.434Z" fill="#EFECEA"/>
<path d="M190.256 167.78C190.27 167.794 190.311 167.808 190.325 167.78L191.234 166.607C191.261 166.565 191.33 166.607 191.302 166.648L190.683 168.001C190.669 168.029 190.697 168.057 190.724 168.057C193.326 168.126 192.913 164.549 192.844 164.08C192.844 164.052 192.817 164.038 192.789 164.052C192.349 164.204 188.99 165.488 190.256 167.78Z" fill="#EFECEA"/>
<path d="M187.31 167.491C187.337 167.519 187.379 167.505 187.379 167.478L187.695 166.028C187.695 165.973 187.778 165.986 187.778 166.028L187.792 167.519C187.792 167.547 187.833 167.56 187.86 167.547C190.228 166.483 188.328 163.446 188.067 163.045C188.053 163.031 188.012 163.018 187.998 163.045C187.668 163.377 185.19 165.986 187.31 167.491Z" fill="#EFECEA"/>
<path d="M183.896 167.518L183.965 166.04C183.965 165.985 184.034 165.985 184.048 166.027L184.309 167.49C184.309 167.518 184.351 167.532 184.378 167.518C186.539 166.068 184.144 163.389 183.827 163.044C183.8 163.017 183.772 163.017 183.759 163.044C183.483 163.431 181.487 166.413 183.841 167.546C183.869 167.559 183.896 167.546 183.896 167.518Z" fill="#EFECEA"/>
<path d="M177.924 165.53C177.979 166.041 178.488 169.852 181.186 168.913C181.214 168.899 181.227 168.858 181.214 168.83L180.209 167.656C180.181 167.615 180.236 167.56 180.278 167.587L181.53 168.499C181.558 168.512 181.585 168.499 181.599 168.471C182.329 165.682 178.488 165.488 177.979 165.475C177.951 165.475 177.924 165.502 177.924 165.53Z" fill="#EFECEA"/>
<path d="M182.768 170.722L182.603 172.255C182.603 172.31 182.521 172.31 182.507 172.255L182.3 170.722C182.3 170.695 182.259 170.681 182.232 170.695C179.726 172.076 182.218 175.003 182.562 175.39C182.576 175.403 182.617 175.403 182.631 175.39C182.961 175.003 185.384 172.007 182.837 170.681C182.81 170.667 182.768 170.681 182.768 170.722Z" fill="#EFECEA"/>
<path d="M186.306 169.963C186.278 169.949 186.237 169.976 186.237 170.004L186.072 171.537C186.058 171.592 185.976 171.592 185.976 171.537L185.769 170.004C185.769 169.976 185.728 169.963 185.7 169.976C183.195 171.357 185.686 174.285 186.031 174.671C186.044 174.685 186.086 174.685 186.099 174.671C186.43 174.285 188.852 171.288 186.306 169.963Z" fill="#EFECEA"/>
<path d="M180.471 162.865L180.967 164.136C180.967 164.163 181.008 164.163 181.035 164.149C182.88 162.451 180.154 160.463 179.783 160.214C179.755 160.2 179.728 160.2 179.714 160.228C179.521 160.628 178.076 163.68 180.512 164.288C180.54 164.288 180.567 164.26 180.567 164.232L180.388 162.893C180.388 162.851 180.457 162.824 180.471 162.865Z" fill="#EFECEA"/>
<path d="M187.338 177.971C187.833 177.998 191.536 178.081 191.041 175.361C191.027 175.333 190.999 175.306 190.972 175.32L189.706 176.107C189.664 176.134 189.609 176.065 189.65 176.038L190.697 174.974C190.71 174.947 190.697 174.919 190.669 174.905C188.136 173.801 187.379 177.432 187.297 177.915C187.283 177.943 187.31 177.971 187.338 177.971Z" fill="#EFECEA"/>
<path d="M175.83 170.737L177.262 170.364C177.289 170.35 177.303 170.309 177.289 170.281C175.665 168.044 173.173 170.778 172.843 171.151C172.829 171.179 172.829 171.206 172.857 171.22C173.27 171.496 176.408 173.471 177.358 170.861C177.372 170.833 177.358 170.806 177.317 170.806L175.83 170.82C175.789 170.833 175.775 170.751 175.83 170.737Z" fill="#EFECEA"/>
<path d="M168.948 166.76C168.92 166.76 168.906 166.801 168.906 166.815C169.071 167.284 170.407 170.75 172.733 169.245C172.76 169.231 172.76 169.19 172.733 169.176L171.535 168.292C171.494 168.265 171.535 168.196 171.577 168.209L172.953 168.776C172.981 168.789 173.008 168.762 173.008 168.734C173.063 165.959 169.429 166.649 168.948 166.76Z" fill="#EFECEA"/>
<path d="M173.601 179.283L173.037 177.916C173.023 177.874 172.981 177.874 172.968 177.902C170.958 179.808 174 181.92 174.399 182.196C174.427 182.21 174.468 182.196 174.468 182.183C174.688 181.741 176.216 178.358 173.532 177.736C173.491 177.736 173.463 177.764 173.463 177.792L173.683 179.269C173.697 179.31 173.615 179.338 173.601 179.283Z" fill="#EFECEA"/>
<path d="M171.508 174.229L172.361 175.458C172.375 175.472 172.416 175.472 172.444 175.445C173.972 173.152 170.544 171.744 170.09 171.564C170.063 171.564 170.035 171.578 170.035 171.606C169.911 172.075 169.154 175.721 171.921 175.721C171.948 175.721 171.976 175.693 171.962 175.665L171.425 174.271C171.412 174.229 171.48 174.188 171.508 174.229Z" fill="#EFECEA"/>
<path d="M166.359 174.298C166.332 174.298 166.318 174.34 166.332 174.354C166.469 174.823 167.694 178.33 170.062 176.922C170.089 176.894 170.089 176.853 170.076 176.839L168.892 175.928C168.864 175.886 168.892 175.831 168.947 175.845L170.296 176.452C170.323 176.466 170.365 176.439 170.365 176.411C170.502 173.649 166.841 174.216 166.359 174.298Z" fill="#EFECEA"/>
<path d="M170.71 183.454C170.999 183.04 173.036 179.947 170.476 178.925C170.448 178.912 170.407 178.925 170.407 178.953L170.393 180.444C170.393 180.499 170.31 180.513 170.31 180.458L169.966 179.008C169.966 178.981 169.925 178.967 169.898 178.981C167.613 180.541 170.283 183.123 170.641 183.454C170.668 183.482 170.696 183.468 170.71 183.454Z" fill="#EFECEA"/>
<path d="M165.094 178.648C165.356 178.855 167.366 180.36 168.15 178.662C168.164 178.648 168.15 178.62 168.123 178.62L167.132 178.551C167.09 178.551 167.09 178.496 167.118 178.482L168.109 178.316C168.136 178.316 168.136 178.289 168.136 178.261C167.173 176.673 165.328 178.372 165.094 178.593C165.081 178.606 165.081 178.634 165.094 178.648Z" fill="#EFECEA"/>
<path d="M169.279 186.754C167.421 186.892 168.109 189.308 168.206 189.626C168.219 189.64 168.233 189.654 168.261 189.64C168.55 189.502 170.793 188.383 169.637 186.92C169.623 186.892 169.596 186.892 169.582 186.92L169.073 187.776C169.059 187.803 169.004 187.79 169.018 187.762L169.307 186.795C169.321 186.768 169.293 186.754 169.279 186.754Z" fill="#EFECEA"/>
<path d="M161.089 186.325L159.933 187.278C159.891 187.306 159.836 187.251 159.864 187.209L160.772 186.008C160.786 185.98 160.772 185.953 160.745 185.939C158.061 185.166 157.785 188.908 157.758 189.405C157.758 189.432 157.785 189.46 157.813 189.46C158.308 189.418 162.025 189.004 161.158 186.353C161.158 186.312 161.116 186.298 161.089 186.325Z" fill="#EFECEA"/>
<path d="M163.085 187.36C163.058 187.333 163.03 187.346 163.017 187.374L162.604 188.534C162.59 188.575 162.521 188.562 162.521 188.52L162.659 187.291C162.659 187.264 162.631 187.236 162.604 187.25C160.401 187.844 161.778 190.605 161.971 190.964C161.984 190.978 162.012 190.992 162.026 190.978C162.356 190.729 164.806 188.865 163.085 187.36Z" fill="#EFECEA"/>
<path d="M157.164 182.127C157.137 182.127 157.109 182.155 157.123 182.183C157.302 182.652 158.692 186.132 161.005 184.585C161.032 184.571 161.046 184.53 161.018 184.516L159.793 183.646C159.752 183.619 159.793 183.55 159.835 183.563L161.225 184.116C161.252 184.13 161.294 184.102 161.294 184.061C161.307 181.271 157.646 182.017 157.164 182.127Z" fill="#EFECEA"/>
<path d="M218.626 167.643C218.213 167.656 215.075 167.836 215.529 170.073C215.529 170.1 215.57 170.114 215.584 170.1L216.644 169.355C216.685 169.341 216.727 169.382 216.699 169.41L215.832 170.377C215.804 170.39 215.818 170.432 215.846 170.432C217.993 171.191 218.599 168.098 218.668 167.684C218.668 167.656 218.654 167.643 218.626 167.643Z" fill="#EFECEA"/>
<path d="M192.913 147.498C176.133 147.498 162.533 161.154 162.533 177.986C162.533 180.071 162.74 182.115 163.139 184.089L165.396 183.482C165.052 181.701 164.859 179.864 164.859 177.986C164.859 162.438 177.427 149.845 192.913 149.845C208.398 149.845 220.952 162.438 220.952 177.986C220.952 186.34 217.318 193.852 211.537 199.002C210.587 199.692 206.361 201.639 205.218 197.193C205.218 197.193 204.888 201.985 200.263 205.133C199.749 205.271 199.231 205.395 198.708 205.506C201.103 204.415 203.402 202.302 204.516 198.339C205.494 195.467 205.439 191.753 203.842 187.127C203.402 185.774 202.699 184.628 201.653 183.675C200.951 183.04 200.084 182.432 199.272 182.515C199.272 182.515 205.865 195.371 197.372 201.239L195.129 202.454C195.129 202.454 187.462 206.638 177.124 201.225C171.838 197.621 167.86 192.236 166.002 185.94L163.745 186.547C167.434 199.209 179.093 208.461 192.913 208.461C209.692 208.461 223.292 194.818 223.292 177.986C223.292 161.154 209.692 147.498 192.913 147.498Z" fill="#EFECEA"/>
<path d="M202.025 179.215C201.296 179.159 206.816 180.43 206.609 186.257C206.788 185.939 208.729 179.643 202.025 179.215Z" fill="#EFECEA"/>
<path d="M168.701 186.187C173.56 188.327 180.264 185.732 183.815 184.006C184.1 184.263 184.389 184.521 184.683 184.779C188.124 187.775 195.254 183.95 195.254 183.95C195.254 183.95 198.255 182.57 199.618 184.848C197.938 177.474 191.648 184.668 186.293 183.136C186.293 183.136 186.169 183.08 185.949 182.97C188.619 181.782 191.882 180.844 194.621 180.788C199.411 180.678 204.215 182.68 205.069 190.33C205.069 190.339 205.069 190.339 205.069 190.33C206.803 183.757 204.477 180.429 200.815 179.035C197.801 177.833 194.47 177.944 191.345 178.634C191.345 178.634 191.34 178.634 191.331 178.634C189.679 178.993 188.096 179.518 186.651 180.084C185.577 180.512 184.572 180.968 183.692 181.396C183.072 180.871 182.37 180.181 181.627 179.325C177.525 175.141 172.198 173.829 168.151 179.269C174.455 174.34 177.8 178.04 182.04 182.266C181.92 182.33 181.806 182.395 181.696 182.459C181.696 182.459 181.691 182.459 181.682 182.459C181.682 182.459 181.682 182.464 181.682 182.473C181.255 182.708 180.883 182.929 180.581 183.108C178.654 184.116 174.359 185.787 168.564 184.765C168.564 184.765 167.38 184.42 165.935 184.42C164.489 184.42 162.782 184.765 161.736 186.187C161.902 186.132 164.297 184.254 168.701 186.187Z" fill="#EFECEA"/>
<path style="mix-blend-mode:screen" d="M216.012 174.892C216.012 179.448 212.323 183.135 207.78 183.135C203.238 183.135 199.562 179.448 199.562 174.892C199.562 170.335 203.238 166.648 207.78 166.648C212.323 166.648 216.012 170.335 216.012 174.892Z" fill="url(#paint0_radial_1103_1754)"/>
<path style="mix-blend-mode:screen" d="M210.092 174.892C210.092 176.176 209.059 177.212 207.779 177.212C206.513 177.212 205.48 176.176 205.48 174.892C205.48 173.608 206.513 172.572 207.779 172.572C209.059 172.572 210.092 173.608 210.092 174.892Z" fill="url(#paint1_radial_1103_1754)"/>
<path style="mix-blend-mode:screen" d="M208.385 174.892C208.385 179.449 208.11 183.149 207.779 183.149C207.449 183.149 207.188 179.449 207.188 174.892C207.188 170.335 207.449 166.648 207.779 166.648C208.11 166.648 208.385 170.335 208.385 174.892Z" fill="url(#paint2_radial_1103_1754)"/>
<path style="mix-blend-mode:screen" d="M207.78 175.486C203.238 175.486 199.562 175.224 199.562 174.893C199.562 174.561 203.238 174.299 207.78 174.299C212.323 174.299 216.012 174.561 216.012 174.893C216.012 175.224 212.323 175.486 207.78 175.486Z" fill="url(#paint3_radial_1103_1754)"/>
<g style="mix-blend-mode:screen">
<path d="M208.069 175.168C205.922 177.322 204.064 178.938 203.912 178.772C203.761 178.62 205.371 176.756 207.505 174.616C209.638 172.462 211.497 170.86 211.662 171.012C211.813 171.164 210.203 173.028 208.069 175.168Z" fill="#EFECEA"/>
</g>
<g style="mix-blend-mode:screen">
<path d="M207.505 175.168C205.371 173.028 203.761 171.164 203.912 171.012C204.064 170.86 205.922 172.462 208.069 174.616C210.203 176.756 211.813 178.62 211.662 178.772C211.497 178.938 209.638 177.322 207.505 175.168Z" fill="#EFECEA"/>
</g>
<path style="mix-blend-mode:overlay" d="M213.01 174.893C213.01 177.793 210.67 180.14 207.793 180.14C204.903 180.14 202.562 177.793 202.562 174.893C202.562 172.008 204.903 169.66 207.793 169.66C210.67 169.66 213.01 172.008 213.01 174.893Z" fill="url(#paint4_radial_1103_1754)"/>
</g>
<g clip-path="url(#clip1_1103_1754)">
<path fill-rule="evenodd" clip-rule="evenodd" d="M115.246 228.244C117.482 228.244 119.444 228.752 121.132 229.769C122.82 230.763 124.124 232.191 125.045 234.051C125.988 235.932 126.459 238.213 126.459 240.895C126.459 243.49 125.977 245.771 125.012 247.739C124.07 249.686 122.743 251.199 121.033 252.281C119.345 253.384 117.405 253.935 115.213 253.935C112.955 253.935 110.982 253.438 109.294 252.443C107.628 251.426 106.324 249.978 105.381 248.096C104.46 246.215 104 243.955 104 241.317C104 238.7 104.482 236.419 105.447 234.472C106.411 232.504 107.738 230.98 109.426 229.898C111.114 228.796 113.054 228.244 115.246 228.244ZM115.082 228.893C113.547 228.893 112.221 229.412 111.103 230.45C109.963 231.488 109.086 232.926 108.472 234.764C107.836 236.602 107.518 238.732 107.518 241.154C107.518 243.62 107.869 245.771 108.571 247.61C109.272 249.426 110.215 250.832 111.399 251.827C112.582 252.821 113.898 253.319 115.345 253.319C116.879 253.319 118.205 252.789 119.324 251.729C120.463 250.691 121.351 249.242 121.987 247.383C122.601 245.544 122.908 243.425 122.908 241.025C122.908 238.538 122.557 236.386 121.856 234.57C121.176 232.753 120.244 231.347 119.06 230.353C117.877 229.379 116.55 228.893 115.082 228.893Z" fill="#696F75"/>
<path d="M132.18 228.73C132.662 228.752 133.309 228.785 134.12 228.828C134.931 228.849 135.72 228.86 136.487 228.86C137.605 228.86 138.669 228.849 139.677 228.828C140.685 228.785 141.409 228.763 141.847 228.763C143.755 228.763 145.333 229.033 146.582 229.574C147.854 230.115 148.797 230.839 149.41 231.747C150.046 232.677 150.364 233.715 150.364 234.861C150.364 235.553 150.222 236.289 149.937 237.067C149.652 237.867 149.158 238.613 148.457 239.305C147.755 240.019 146.813 240.603 145.629 241.057C144.423 241.511 142.9 241.738 141.058 241.738H137.671V241.024H140.696C142.384 241.024 143.667 240.765 144.544 240.246C145.421 239.727 146.023 239.024 146.352 238.137C146.659 237.272 146.813 236.299 146.813 235.218C146.813 233.38 146.374 231.963 145.497 230.969C144.62 229.952 143.108 229.444 140.959 229.444C139.863 229.444 139.151 229.639 138.822 230.028C138.493 230.417 138.329 231.217 138.329 232.428V249.75C138.329 250.594 138.406 251.221 138.559 251.632C138.691 252.043 138.965 252.324 139.381 252.475C139.798 252.605 140.4 252.691 141.19 252.735V253.448C140.642 253.405 139.962 253.373 139.151 253.351C138.34 253.351 137.529 253.351 136.718 253.351C135.797 253.351 134.931 253.351 134.12 253.351C133.309 253.373 132.662 253.405 132.18 253.448V252.735C132.969 252.691 133.572 252.605 133.988 252.475C134.405 252.324 134.69 252.043 134.843 251.632C134.975 251.221 135.041 250.594 135.041 249.75V232.428C135.041 231.585 134.975 230.958 134.843 230.547C134.69 230.136 134.405 229.855 133.988 229.704C133.572 229.552 132.969 229.466 132.18 229.444V228.73ZM137.803 241.122C139.074 241.165 140.072 241.219 140.795 241.284C141.54 241.327 142.143 241.37 142.604 241.414C143.064 241.479 143.502 241.543 143.919 241.608C145.497 241.868 146.637 242.333 147.339 243.003C148.04 243.695 148.555 244.766 148.884 246.215L149.739 249.75C149.98 250.788 150.232 251.534 150.496 251.988C150.737 252.443 151.109 252.659 151.614 252.637C152.03 252.616 152.37 252.486 152.633 252.248C152.918 252.01 153.214 251.697 153.521 251.307L154.047 251.697C153.543 252.41 153.028 252.962 152.501 253.351C151.975 253.74 151.23 253.924 150.265 253.902C149.388 253.902 148.621 253.654 147.964 253.156C147.306 252.637 146.802 251.632 146.451 250.14L145.695 246.669C145.475 245.674 145.234 244.809 144.971 244.074C144.686 243.338 144.303 242.754 143.82 242.322C143.338 241.911 142.626 241.706 141.683 241.706H137.868L137.803 241.122Z" fill="#696F75"/>
<path d="M169.569 228.244C171.103 228.244 172.342 228.471 173.284 228.925C174.227 229.379 175.104 229.909 175.915 230.515C176.222 230.753 176.463 230.872 176.638 230.872C177.077 230.872 177.373 230.158 177.526 228.731H178.348C178.283 229.596 178.239 230.645 178.217 231.877C178.195 233.11 178.184 234.743 178.184 236.775H177.395C177.219 235.802 177.011 234.861 176.77 233.953C176.551 233.045 176.167 232.266 175.619 231.618C174.94 230.753 174.041 230.082 172.923 229.607C171.805 229.131 170.665 228.893 169.503 228.893C168.319 228.893 167.245 229.174 166.28 229.736C165.338 230.299 164.527 231.12 163.847 232.202C163.145 233.261 162.619 234.548 162.269 236.062C161.896 237.554 161.71 239.241 161.71 241.122C161.71 245.317 162.389 248.388 163.748 250.334C165.129 252.259 167.256 253.221 170.128 253.221C170.983 253.221 171.717 253.102 172.331 252.865C172.967 252.627 173.46 252.389 173.811 252.151C174.249 251.848 174.534 251.567 174.666 251.308C174.775 251.026 174.83 250.67 174.83 250.237V246.896C174.83 245.944 174.742 245.231 174.567 244.755C174.37 244.301 174.019 243.987 173.515 243.814C173.01 243.663 172.254 243.566 171.246 243.522V242.841C171.684 242.863 172.188 242.884 172.758 242.906C173.306 242.906 173.898 242.917 174.534 242.939C175.148 242.939 175.718 242.939 176.244 242.939C177.033 242.939 177.735 242.928 178.348 242.906C178.984 242.884 179.51 242.863 179.927 242.841V243.522C179.401 243.566 179.017 243.652 178.776 243.782C178.513 243.912 178.337 244.193 178.25 244.625C178.162 245.036 178.118 245.674 178.118 246.539V253.448H177.428C177.406 253.059 177.318 252.627 177.165 252.151C177.011 251.697 176.781 251.47 176.474 251.47C176.321 251.47 176.178 251.502 176.047 251.567C175.893 251.632 175.641 251.794 175.29 252.054C174.523 252.637 173.701 253.092 172.824 253.416C171.947 253.762 170.928 253.935 169.766 253.935C167.355 253.935 165.272 253.438 163.518 252.443C161.786 251.47 160.46 250.042 159.539 248.161C158.619 246.301 158.158 244.085 158.158 241.511C158.18 238.786 158.684 236.44 159.671 234.472C160.657 232.483 162.006 230.947 163.715 229.866C165.425 228.785 167.376 228.244 169.569 228.244Z" fill="#696F75"/>
<path fill-rule="evenodd" clip-rule="evenodd" d="M195.218 228.568L203.834 250.528C204.185 251.393 204.59 251.977 205.05 252.28C205.489 252.561 205.894 252.713 206.267 252.734V253.448C205.807 253.405 205.237 253.372 204.557 253.35C203.856 253.35 203.165 253.35 202.486 253.35C201.565 253.35 200.71 253.35 199.921 253.35C199.11 253.372 198.463 253.405 197.981 253.448V252.734C199.164 252.691 199.932 252.496 200.282 252.15C200.611 251.783 200.535 251.004 200.052 249.815L197.882 244.106H199.526V243.392H197.619L193.673 232.979L189.595 243.392H189.332L188.971 244.106H189.332L187.885 247.804C187.513 248.733 187.294 249.512 187.228 250.139C187.14 250.788 187.206 251.296 187.425 251.664C187.622 252.031 187.962 252.302 188.444 252.475C188.927 252.626 189.53 252.713 190.253 252.734V253.448C189.595 253.405 188.905 253.372 188.181 253.35C187.458 253.35 186.789 253.35 186.176 253.35C185.606 253.35 185.112 253.35 184.696 253.35C184.279 253.372 183.896 253.405 183.545 253.448V252.734C184.005 252.626 184.488 252.356 184.992 251.923C185.474 251.491 185.923 250.755 186.34 249.717L194.659 228.568C194.747 228.568 194.835 228.568 194.922 228.568C195.01 228.568 195.109 228.568 195.218 228.568ZM193.673 232.979L194.035 232.006L193.476 232.46L193.673 232.979ZM201.137 223.994V224.87H188.675V223.994H201.137ZM197.915 244.106L197.652 243.424H189.628L189.332 244.106H197.915Z" fill="#696F75"/>
<path d="M231.717 228.73V229.444C230.906 229.466 230.292 229.585 229.876 229.801C229.481 229.996 229.207 230.331 229.054 230.807C228.922 231.261 228.856 231.92 228.856 232.785V253.61C228.703 253.61 228.56 253.61 228.429 253.61C228.297 253.61 228.166 253.61 228.034 253.61L213.171 230.969V249.393C213.171 250.237 213.248 250.896 213.401 251.372C213.555 251.848 213.862 252.183 214.322 252.378C214.782 252.572 215.473 252.691 216.394 252.735V253.448C215.977 253.405 215.429 253.373 214.75 253.351C214.048 253.351 213.39 253.351 212.777 253.351C212.185 253.351 211.593 253.351 211.001 253.351C210.409 253.373 209.905 253.405 209.488 253.448V252.735C210.299 252.691 210.913 252.572 211.33 252.378C211.746 252.183 212.02 251.848 212.152 251.372C212.283 250.896 212.349 250.237 212.349 249.393V232.428C212.349 231.585 212.283 230.958 212.152 230.547C212.02 230.136 211.746 229.855 211.33 229.704C210.913 229.552 210.299 229.466 209.488 229.444V228.73C209.905 228.752 210.409 228.785 211.001 228.828C211.593 228.849 212.185 228.86 212.777 228.86C213.303 228.86 213.807 228.849 214.289 228.828C214.75 228.785 215.166 228.752 215.539 228.73L228.034 247.739V232.785C228.034 231.92 227.958 231.261 227.804 230.807C227.651 230.331 227.344 229.996 226.883 229.801C226.423 229.585 225.733 229.466 224.812 229.444V228.73C225.228 228.752 225.787 228.785 226.489 228.828C227.19 228.849 227.837 228.86 228.429 228.86C229.043 228.86 229.646 228.849 230.238 228.828C230.851 228.785 231.345 228.752 231.717 228.73Z" fill="#696F75"/>
<path d="M246.152 228.73V229.444C245.341 229.466 244.727 229.552 244.311 229.704C243.894 229.855 243.62 230.136 243.489 230.547C243.357 230.958 243.291 231.585 243.291 232.428V249.75C243.291 250.594 243.357 251.221 243.489 251.632C243.62 252.043 243.894 252.324 244.311 252.475C244.727 252.605 245.341 252.691 246.152 252.735V253.448C245.604 253.405 244.925 253.373 244.113 253.351C243.302 253.351 242.48 253.351 241.647 253.351C240.727 253.351 239.872 253.351 239.082 253.351C238.271 253.373 237.614 253.405 237.109 253.448V252.735C237.92 252.691 238.534 252.605 238.951 252.475C239.367 252.324 239.641 252.043 239.773 251.632C239.926 251.221 240.003 250.594 240.003 249.75V232.428C240.003 231.585 239.926 230.958 239.773 230.547C239.641 230.136 239.367 229.855 238.951 229.704C238.534 229.552 237.92 229.466 237.109 229.444V228.73C237.614 228.752 238.271 228.785 239.082 228.828C239.872 228.849 240.727 228.86 241.647 228.86C242.48 228.86 243.302 228.849 244.113 228.828C244.925 228.785 245.604 228.752 246.152 228.73Z" fill="#696F75"/>
<path d="M271.211 228.73C271.123 229.617 271.057 230.471 271.013 231.293C270.991 232.136 270.98 232.774 270.98 233.207C270.98 233.769 270.991 234.288 271.013 234.764C271.035 235.261 271.057 235.694 271.079 236.061H270.257C270.104 234.44 269.884 233.153 269.599 232.201C269.314 231.271 268.821 230.59 268.12 230.158C267.396 229.747 266.3 229.541 264.831 229.541H262.924V249.393C262.924 250.323 263.012 251.026 263.187 251.502C263.363 251.956 263.702 252.27 264.207 252.443C264.733 252.594 265.489 252.691 266.476 252.735V253.448C265.862 253.405 265.083 253.373 264.141 253.351C263.198 253.351 262.245 253.351 261.28 253.351C260.228 253.351 259.23 253.351 258.288 253.351C257.367 253.373 256.622 253.405 256.052 253.448V252.735C257.038 252.691 257.794 252.594 258.32 252.443C258.825 252.27 259.164 251.956 259.34 251.502C259.537 251.026 259.625 250.323 259.603 249.393V229.541H257.696C256.249 229.541 255.164 229.747 254.44 230.158C253.717 230.59 253.213 231.271 252.928 232.201C252.643 233.153 252.423 234.44 252.27 236.061H251.448C251.492 235.694 251.525 235.261 251.547 234.764C251.547 234.288 251.547 233.769 251.547 233.207C251.547 232.774 251.536 232.136 251.514 231.293C251.47 230.471 251.404 229.617 251.316 228.73C252.303 228.752 253.377 228.785 254.539 228.828C255.701 228.849 256.874 228.86 258.057 228.86C259.241 228.86 260.315 228.86 261.28 228.86C262.245 228.86 263.308 228.86 264.47 228.86C265.653 228.86 266.826 228.849 267.988 228.828C269.172 228.785 270.246 228.752 271.211 228.73Z" fill="#696F75"/>
<path d="M295.709 228.73V229.444C295.248 229.531 294.799 229.812 294.36 230.288C293.9 230.763 293.407 231.52 292.881 232.558L285.712 246.506H285.12L276.834 231.423C276.373 230.558 275.979 230.017 275.65 229.801C275.343 229.585 275.058 229.477 274.795 229.477V228.73C275.255 228.752 275.749 228.785 276.275 228.828C276.779 228.849 277.327 228.86 277.919 228.86C278.686 228.86 279.508 228.849 280.385 228.828C281.284 228.828 282.106 228.795 282.851 228.73V229.477C282.259 229.477 281.744 229.541 281.306 229.671C280.845 229.823 280.549 230.082 280.418 230.45C280.286 230.817 280.396 231.336 280.747 232.007L286.699 243.328L286.436 243.522L291.138 234.277C291.795 233.001 292.113 232.018 292.091 231.326C292.091 230.633 291.817 230.147 291.269 229.866C290.721 229.606 289.954 229.466 288.968 229.444V228.73C289.647 228.752 290.349 228.785 291.072 228.828C291.774 228.849 292.431 228.86 293.045 228.86C293.659 228.86 294.163 228.849 294.558 228.828C294.974 228.785 295.358 228.752 295.709 228.73ZM287.323 242.841V249.75C287.323 250.594 287.389 251.221 287.521 251.632C287.674 252.043 287.948 252.324 288.343 252.475C288.759 252.605 289.373 252.691 290.184 252.735V253.448C289.636 253.405 288.957 253.373 288.145 253.351C287.334 253.351 286.512 253.351 285.679 253.351C284.758 253.351 283.904 253.351 283.114 253.351C282.303 253.373 281.657 253.405 281.174 253.448V252.735C281.963 252.691 282.566 252.605 282.983 252.475C283.399 252.324 283.673 252.043 283.805 251.632C283.958 251.221 284.035 250.594 284.035 249.75V242.581L285.942 244.755L287.323 242.841Z" fill="#696F75"/>
</g>
<defs>
<radialGradient id="paint0_radial_1103_1754" cx="0" cy="0" r="1" gradientUnits="userSpaceOnUse" gradientTransform="translate(6789.11 3496.98) scale(982.016 984.263)">
<stop stop-color="#FCC782"/>
<stop offset="1" stop-color="#FCC782" stop-opacity="0"/>
</radialGradient>
<radialGradient id="paint1_radial_1103_1754" cx="0" cy="0" r="1" gradientUnits="userSpaceOnUse" gradientTransform="translate(2052.76 1109.75) scale(77.4695 77.9437)">
<stop stop-color="#FEFEFE"/>
<stop offset="0.14" stop-color="#FCC782"/>
<stop offset="1" stop-color="#050505"/>
</radialGradient>
<radialGradient id="paint2_radial_1103_1754" cx="0" cy="0" r="1" gradientUnits="userSpaceOnUse" gradientTransform="translate(686.929 3499.77) scale(5.1495 70.9527)">
<stop stop-color="#FEFEFE"/>
<stop offset="0.14" stop-color="#FCC782"/>
<stop offset="1" stop-color="#050505"/>
</radialGradient>
<radialGradient id="paint3_radial_1103_1754" cx="0" cy="0" r="1" gradientUnits="userSpaceOnUse" gradientTransform="translate(6789.11 414.172) scale(70.7315 5.10622)">
<stop stop-color="#FEFEFE"/>
<stop offset="0.14" stop-color="#FCC782"/>
<stop offset="1" stop-color="#050505"/>
</radialGradient>
<radialGradient id="paint4_radial_1103_1754" cx="0" cy="0" r="1" gradientUnits="userSpaceOnUse" gradientTransform="translate(4388.93 2286.68) scale(397.01 398.252)">
<stop stop-color="#FCC782"/>
<stop offset="1" stop-color="#FCC782" stop-opacity="0"/>
</radialGradient>
<clipPath id="clip0_1103_1754">
<rect width="80.25" height="70.2188" fill="white" transform="translate(152.637 147)"/>
</clipPath>
<clipPath id="clip1_1103_1754">
<rect width="191.708" height="26.75" fill="white" transform="translate(104 227.25)"/>
</clipPath>
</defs>
</svg>
