<svg width="400" height="400" viewBox="0 0 400 400" fill="none" xmlns="http://www.w3.org/2000/svg">
<mask id="mask0_1138_1057" style="mask-type:luminance" maskUnits="userSpaceOnUse" x="104" y="187" width="192" height="27">
<path d="M295.708 187H104V213.75H295.708V187Z" fill="white"/>
</mask>
<g mask="url(#mask0_1138_1057)">
<path fill-rule="evenodd" clip-rule="evenodd" d="M115.246 187.994C117.482 187.994 119.444 188.502 121.132 189.519C122.82 190.513 124.124 191.941 125.045 193.801C125.988 195.682 126.459 197.963 126.459 200.645C126.459 203.24 125.977 205.521 125.012 207.489C124.07 209.436 122.743 210.949 121.033 212.031C119.345 213.134 117.405 213.685 115.213 213.685C112.955 213.685 110.982 213.188 109.294 212.193C107.628 211.176 106.324 209.728 105.381 207.846C104.46 205.965 104 203.705 104 201.067C104 198.45 104.482 196.169 105.447 194.222C106.411 192.254 107.738 190.73 109.426 189.648C111.114 188.546 113.054 187.994 115.246 187.994ZM115.082 188.643C113.547 188.643 112.221 189.162 111.103 190.2C109.963 191.238 109.086 192.676 108.472 194.514C107.836 196.352 107.518 198.482 107.518 200.904C107.518 203.37 107.869 205.521 108.571 207.36C109.272 209.176 110.215 210.582 111.399 211.577C112.582 212.571 113.898 213.069 115.345 213.069C116.879 213.069 118.205 212.539 119.324 211.479C120.463 210.441 121.351 208.992 121.987 207.133C122.601 205.294 122.908 203.175 122.908 200.775C122.908 198.288 122.557 196.136 121.856 194.32C121.176 192.503 120.244 191.097 119.06 190.103C117.877 189.129 116.55 188.643 115.082 188.643Z" fill="white"/>
<path d="M132.18 188.48C132.662 188.502 133.309 188.535 134.12 188.578C134.931 188.599 135.72 188.61 136.487 188.61C137.605 188.61 138.669 188.599 139.677 188.578C140.685 188.535 141.409 188.513 141.847 188.513C143.755 188.513 145.333 188.783 146.582 189.324C147.854 189.865 148.797 190.589 149.41 191.497C150.046 192.427 150.364 193.465 150.364 194.611C150.364 195.303 150.222 196.039 149.937 196.817C149.652 197.617 149.158 198.363 148.457 199.055C147.755 199.769 146.813 200.353 145.629 200.807C144.423 201.261 142.9 201.488 141.058 201.488H137.671V200.774H140.696C142.384 200.774 143.667 200.515 144.544 199.996C145.421 199.477 146.023 198.774 146.352 197.887C146.659 197.022 146.813 196.049 146.813 194.968C146.813 193.13 146.374 191.713 145.497 190.719C144.62 189.702 143.108 189.194 140.959 189.194C139.863 189.194 139.151 189.389 138.822 189.778C138.493 190.167 138.329 190.967 138.329 192.178V209.5C138.329 210.344 138.406 210.971 138.559 211.382C138.691 211.793 138.965 212.074 139.381 212.225C139.798 212.355 140.4 212.441 141.19 212.485V213.198C140.642 213.155 139.962 213.123 139.151 213.101C138.34 213.101 137.529 213.101 136.718 213.101C135.797 213.101 134.931 213.101 134.12 213.101C133.309 213.123 132.662 213.155 132.18 213.198V212.485C132.969 212.441 133.572 212.355 133.988 212.225C134.405 212.074 134.69 211.793 134.843 211.382C134.975 210.971 135.041 210.344 135.041 209.5V192.178C135.041 191.335 134.975 190.708 134.843 190.297C134.69 189.886 134.405 189.605 133.988 189.454C133.572 189.302 132.969 189.216 132.18 189.194V188.48ZM137.803 200.872C139.074 200.915 140.072 200.969 140.795 201.034C141.54 201.077 142.143 201.12 142.604 201.164C143.064 201.229 143.502 201.293 143.919 201.358C145.497 201.618 146.637 202.083 147.339 202.753C148.04 203.445 148.555 204.516 148.884 205.965L149.739 209.5C149.98 210.538 150.232 211.284 150.496 211.738C150.737 212.193 151.109 212.409 151.614 212.387C152.03 212.366 152.37 212.236 152.633 211.998C152.918 211.76 153.214 211.447 153.521 211.057L154.047 211.447C153.543 212.16 153.028 212.712 152.501 213.101C151.975 213.49 151.23 213.674 150.265 213.652C149.388 213.652 148.621 213.404 147.964 212.906C147.306 212.387 146.802 211.382 146.451 209.89L145.695 206.419C145.475 205.424 145.234 204.559 144.971 203.824C144.686 203.088 144.303 202.504 143.82 202.072C143.338 201.661 142.626 201.456 141.683 201.456H137.868L137.803 200.872Z" fill="white"/>
<path d="M169.569 187.994C171.103 187.994 172.342 188.221 173.284 188.675C174.227 189.129 175.104 189.659 175.915 190.265C176.222 190.503 176.463 190.622 176.638 190.622C177.077 190.622 177.373 189.908 177.526 188.481H178.348C178.283 189.346 178.239 190.395 178.217 191.627C178.195 192.86 178.184 194.493 178.184 196.525H177.395C177.219 195.552 177.011 194.611 176.77 193.703C176.551 192.795 176.167 192.016 175.619 191.368C174.94 190.503 174.041 189.832 172.923 189.357C171.805 188.881 170.665 188.643 169.503 188.643C168.319 188.643 167.245 188.924 166.28 189.486C165.338 190.049 164.527 190.87 163.847 191.952C163.145 193.011 162.619 194.298 162.269 195.812C161.896 197.304 161.71 198.991 161.71 200.872C161.71 205.067 162.389 208.138 163.748 210.084C165.129 212.009 167.256 212.971 170.128 212.971C170.983 212.971 171.717 212.852 172.331 212.615C172.967 212.377 173.46 212.139 173.811 211.901C174.249 211.598 174.534 211.317 174.666 211.058C174.775 210.776 174.83 210.42 174.83 209.987V206.646C174.83 205.694 174.742 204.981 174.567 204.505C174.37 204.051 174.019 203.737 173.515 203.564C173.01 203.413 172.254 203.316 171.246 203.272V202.591C171.684 202.613 172.188 202.634 172.758 202.656C173.306 202.656 173.898 202.667 174.534 202.689C175.148 202.689 175.718 202.689 176.244 202.689C177.033 202.689 177.735 202.678 178.348 202.656C178.984 202.634 179.51 202.613 179.927 202.591V203.272C179.401 203.316 179.017 203.402 178.776 203.532C178.513 203.662 178.337 203.943 178.25 204.375C178.162 204.786 178.118 205.424 178.118 206.289V213.198H177.428C177.406 212.809 177.318 212.377 177.165 211.901C177.011 211.447 176.781 211.22 176.474 211.22C176.321 211.22 176.178 211.252 176.047 211.317C175.893 211.382 175.641 211.544 175.29 211.804C174.523 212.387 173.701 212.842 172.824 213.166C171.947 213.512 170.928 213.685 169.766 213.685C167.355 213.685 165.272 213.188 163.518 212.193C161.786 211.22 160.46 209.792 159.539 207.911C158.619 206.051 158.158 203.835 158.158 201.261C158.18 198.536 158.684 196.19 159.671 194.222C160.657 192.233 162.006 190.697 163.715 189.616C165.425 188.535 167.376 187.994 169.569 187.994Z" fill="white"/>
<path fill-rule="evenodd" clip-rule="evenodd" d="M195.218 188.318L203.834 210.278C204.185 211.143 204.59 211.727 205.05 212.03C205.489 212.311 205.894 212.463 206.267 212.484V213.198C205.807 213.155 205.237 213.122 204.557 213.1C203.856 213.1 203.165 213.1 202.486 213.1C201.565 213.1 200.71 213.1 199.921 213.1C199.11 213.122 198.463 213.155 197.981 213.198V212.484C199.164 212.441 199.932 212.246 200.282 211.9C200.611 211.533 200.535 210.754 200.052 209.565L197.882 203.856H199.526V203.142H197.619L193.673 192.729L189.595 203.142H189.332L188.971 203.856H189.332L187.885 207.554C187.513 208.483 187.294 209.262 187.228 209.889C187.14 210.538 187.206 211.046 187.425 211.414C187.622 211.781 187.962 212.052 188.444 212.225C188.927 212.376 189.53 212.463 190.253 212.484V213.198C189.595 213.155 188.905 213.122 188.181 213.1C187.458 213.1 186.789 213.1 186.176 213.1C185.606 213.1 185.112 213.1 184.696 213.1C184.279 213.122 183.896 213.155 183.545 213.198V212.484C184.005 212.376 184.488 212.106 184.992 211.673C185.474 211.241 185.923 210.505 186.34 209.467L194.659 188.318C194.747 188.318 194.835 188.318 194.922 188.318C195.01 188.318 195.109 188.318 195.218 188.318ZM193.673 192.729L194.035 191.756L193.476 192.21L193.673 192.729ZM201.137 183.744V184.62H188.675V183.744H201.137ZM197.915 203.856L197.652 203.174H189.628L189.332 203.856H197.915Z" fill="white"/>
<path d="M231.717 188.48V189.194C230.906 189.216 230.292 189.335 229.876 189.551C229.481 189.746 229.207 190.081 229.054 190.557C228.922 191.011 228.856 191.67 228.856 192.535V213.36C228.703 213.36 228.56 213.36 228.429 213.36C228.297 213.36 228.166 213.36 228.034 213.36L213.171 190.719V209.143C213.171 209.987 213.248 210.646 213.401 211.122C213.555 211.598 213.862 211.933 214.322 212.128C214.782 212.322 215.473 212.441 216.394 212.485V213.198C215.977 213.155 215.429 213.123 214.75 213.101C214.048 213.101 213.39 213.101 212.777 213.101C212.185 213.101 211.593 213.101 211.001 213.101C210.409 213.123 209.905 213.155 209.488 213.198V212.485C210.299 212.441 210.913 212.322 211.33 212.128C211.746 211.933 212.02 211.598 212.152 211.122C212.283 210.646 212.349 209.987 212.349 209.143V192.178C212.349 191.335 212.283 190.708 212.152 190.297C212.02 189.886 211.746 189.605 211.33 189.454C210.913 189.302 210.299 189.216 209.488 189.194V188.48C209.905 188.502 210.409 188.535 211.001 188.578C211.593 188.599 212.185 188.61 212.777 188.61C213.303 188.61 213.807 188.599 214.289 188.578C214.75 188.535 215.166 188.502 215.539 188.48L228.034 207.489V192.535C228.034 191.67 227.958 191.011 227.804 190.557C227.651 190.081 227.344 189.746 226.883 189.551C226.423 189.335 225.733 189.216 224.812 189.194V188.48C225.228 188.502 225.787 188.535 226.489 188.578C227.19 188.599 227.837 188.61 228.429 188.61C229.043 188.61 229.646 188.599 230.238 188.578C230.851 188.535 231.345 188.502 231.717 188.48Z" fill="white"/>
<path d="M246.152 188.48V189.194C245.341 189.216 244.727 189.302 244.311 189.454C243.894 189.605 243.62 189.886 243.489 190.297C243.357 190.708 243.291 191.335 243.291 192.178V209.5C243.291 210.344 243.357 210.971 243.489 211.382C243.62 211.793 243.894 212.074 244.311 212.225C244.727 212.355 245.341 212.441 246.152 212.485V213.198C245.604 213.155 244.925 213.123 244.113 213.101C243.302 213.101 242.48 213.101 241.647 213.101C240.727 213.101 239.872 213.101 239.082 213.101C238.271 213.123 237.614 213.155 237.109 213.198V212.485C237.92 212.441 238.534 212.355 238.951 212.225C239.367 212.074 239.641 211.793 239.773 211.382C239.926 210.971 240.003 210.344 240.003 209.5V192.178C240.003 191.335 239.926 190.708 239.773 190.297C239.641 189.886 239.367 189.605 238.951 189.454C238.534 189.302 237.92 189.216 237.109 189.194V188.48C237.614 188.502 238.271 188.535 239.082 188.578C239.872 188.599 240.727 188.61 241.647 188.61C242.48 188.61 243.302 188.599 244.113 188.578C244.925 188.535 245.604 188.502 246.152 188.48Z" fill="white"/>
<path d="M271.211 188.48C271.123 189.367 271.057 190.221 271.013 191.043C270.991 191.886 270.98 192.524 270.98 192.957C270.98 193.519 270.991 194.038 271.013 194.514C271.035 195.011 271.057 195.444 271.079 195.811H270.257C270.104 194.19 269.884 192.903 269.599 191.951C269.314 191.021 268.821 190.34 268.12 189.908C267.396 189.497 266.3 189.291 264.831 189.291H262.924V209.143C262.924 210.073 263.012 210.776 263.187 211.252C263.363 211.706 263.702 212.02 264.207 212.193C264.733 212.344 265.489 212.441 266.476 212.485V213.198C265.862 213.155 265.083 213.123 264.141 213.101C263.198 213.101 262.245 213.101 261.28 213.101C260.228 213.101 259.23 213.101 258.288 213.101C257.367 213.123 256.622 213.155 256.052 213.198V212.485C257.038 212.441 257.794 212.344 258.32 212.193C258.825 212.02 259.164 211.706 259.34 211.252C259.537 210.776 259.625 210.073 259.603 209.143V189.291H257.696C256.249 189.291 255.164 189.497 254.44 189.908C253.717 190.34 253.213 191.021 252.928 191.951C252.643 192.903 252.423 194.19 252.27 195.811H251.448C251.492 195.444 251.525 195.011 251.547 194.514C251.547 194.038 251.547 193.519 251.547 192.957C251.547 192.524 251.536 191.886 251.514 191.043C251.47 190.221 251.404 189.367 251.316 188.48C252.303 188.502 253.377 188.535 254.539 188.578C255.701 188.599 256.874 188.61 258.057 188.61C259.241 188.61 260.315 188.61 261.28 188.61C262.245 188.61 263.308 188.61 264.47 188.61C265.653 188.61 266.826 188.599 267.988 188.578C269.172 188.535 270.246 188.502 271.211 188.48Z" fill="white"/>
<path d="M295.709 188.48V189.194C295.248 189.281 294.799 189.562 294.36 190.038C293.9 190.513 293.407 191.27 292.881 192.308L285.712 206.256H285.12L276.834 191.173C276.373 190.308 275.979 189.767 275.65 189.551C275.343 189.335 275.058 189.227 274.795 189.227V188.48C275.255 188.502 275.749 188.535 276.275 188.578C276.779 188.599 277.327 188.61 277.919 188.61C278.686 188.61 279.508 188.599 280.385 188.578C281.284 188.578 282.106 188.545 282.851 188.48V189.227C282.259 189.227 281.744 189.291 281.306 189.421C280.845 189.573 280.549 189.832 280.418 190.2C280.286 190.567 280.396 191.086 280.747 191.757L286.699 203.078L286.436 203.272L291.138 194.027C291.795 192.751 292.113 191.768 292.091 191.076C292.091 190.383 291.817 189.897 291.269 189.616C290.721 189.356 289.954 189.216 288.968 189.194V188.48C289.647 188.502 290.349 188.535 291.072 188.578C291.774 188.599 292.431 188.61 293.045 188.61C293.659 188.61 294.163 188.599 294.558 188.578C294.974 188.535 295.358 188.502 295.709 188.48ZM287.323 202.591V209.5C287.323 210.344 287.389 210.971 287.521 211.382C287.674 211.793 287.948 212.074 288.343 212.225C288.759 212.355 289.373 212.441 290.184 212.485V213.198C289.636 213.155 288.957 213.123 288.145 213.101C287.334 213.101 286.512 213.101 285.679 213.101C284.758 213.101 283.904 213.101 283.114 213.101C282.303 213.123 281.657 213.155 281.174 213.198V212.485C281.963 212.441 282.566 212.355 282.983 212.225C283.399 212.074 283.673 211.793 283.805 211.382C283.958 210.971 284.035 210.344 284.035 209.5V202.331L285.942 204.505L287.323 202.591Z" fill="white"/>
</g>
</svg>
