<svg width="400" height="400" viewBox="0 0 400 400" fill="none" xmlns="http://www.w3.org/2000/svg">
<mask id="mask0_1138_1041" style="mask-type:luminance" maskUnits="userSpaceOnUse" x="80" y="156" width="240" height="88">
<path d="M320 156H80V244H320V156Z" fill="white"/>
</mask>
<g mask="url(#mask0_1138_1041)">
<mask id="mask1_1138_1041" style="mask-type:luminance" maskUnits="userSpaceOnUse" x="80" y="156" width="240" height="88">
<path d="M320 156H80V244H320V156Z" fill="white"/>
</mask>
<g mask="url(#mask1_1138_1041)">
<path d="M159.105 206.165C159.115 205.791 159.138 205.416 159.131 205.042C159.037 200.478 158.907 195.914 158.861 191.35C158.848 190.009 158.575 188.831 157.741 187.766C157.5 187.46 157.448 187.011 157.308 186.624C157.693 186.5 158.077 186.282 158.467 186.269C160.499 186.191 162.53 186.152 164.564 186.139C164.922 186.139 165.443 186.227 165.59 186.461C165.726 186.679 165.564 187.219 165.362 187.49C164.496 188.639 164.317 189.905 164.356 191.315C164.538 197.623 164.672 203.935 164.76 210.247C164.779 211.657 165.007 212.913 165.925 214.026C166.14 214.287 166.325 214.818 166.198 215.049C166.068 215.283 165.547 215.387 165.189 215.4C163.659 215.469 162.123 215.436 160.593 215.53C159.678 215.589 159.063 215.263 158.477 214.58C153.392 208.655 148.278 202.754 143.174 196.849C142.881 196.51 142.572 196.184 142.041 195.602C141.973 196.253 141.905 196.575 141.908 196.894C142.005 201.777 142.058 206.666 142.263 211.546C142.302 212.503 142.946 213.434 143.308 214.378C143.454 214.762 143.588 215.15 143.724 215.534C143.34 215.657 142.959 215.872 142.572 215.885C140.505 215.963 138.438 215.999 136.367 216.028C135.251 216.045 134.984 215.667 135.628 214.785C136.53 213.548 136.677 212.22 136.638 210.748C136.459 204.44 136.328 198.128 136.234 191.819C136.214 190.452 136.019 189.218 135.117 188.131C134.899 187.871 134.71 187.333 134.834 187.109C134.964 186.871 135.492 186.77 135.85 186.757C137.38 186.692 138.916 186.715 140.446 186.63C141.354 186.581 141.979 186.907 142.565 187.587C147.627 193.486 152.715 199.362 157.8 205.241C158.116 205.605 158.461 205.944 158.793 206.295C158.894 206.246 158.998 206.207 159.105 206.165Z" fill="white"/>
<path d="M244.79 198.945C244.79 201.812 244.514 204.244 243.528 206.549C241.842 210.491 238.8 212.906 234.778 214.124C230.767 215.335 226.688 215.442 222.635 214.384C217.414 213.024 213.973 209.785 212.629 204.475C211.812 201.236 211.767 197.975 212.55 194.736C213.628 190.308 216.304 187.183 220.545 185.507C225.142 183.687 229.885 183.518 234.608 184.862C240.569 186.558 243.759 190.719 244.592 196.777C244.709 197.623 244.748 198.482 244.79 198.945ZM228.11 188.984C223.11 189.104 219.647 191.513 218.605 195.855C218.214 197.49 218.104 199.257 218.228 200.937C218.492 204.55 219.93 207.613 223.445 209.153C226.887 210.66 230.419 210.585 233.788 208.896C237.14 207.216 238.388 204.173 238.583 200.628C238.98 193.388 235.21 188.795 228.11 188.984Z" fill="white"/>
<path d="M262.15 183.795C265.663 184.01 269.22 183.935 272.678 184.501C278.833 185.507 282.662 189.934 283.098 196.184C283.248 198.3 283.27 200.485 282.919 202.565C281.984 208.102 278.315 211.618 272.603 212.682C270.962 212.988 269.283 213.154 267.619 213.213C263.378 213.362 259.135 213.421 254.894 213.489C254.507 213.496 254.113 213.297 253.722 213.196C253.839 212.806 253.865 212.347 254.09 212.031C254.855 210.963 255.073 209.811 255.038 208.509C254.858 202.129 254.722 195.748 254.63 189.368C254.61 187.998 254.383 186.774 253.498 185.683C253.263 185.397 253.113 184.886 253.202 184.55C253.25 184.361 253.862 184.238 254.227 184.228C256.863 184.147 259.5 184.104 262.14 184.046C262.14 183.964 262.147 183.88 262.15 183.795ZM260.655 198.717L260.848 207.809C260.852 207.845 260.852 207.881 260.852 207.916C260.803 208.593 261.027 209.03 261.798 208.994C264.472 208.877 267.157 208.919 269.807 208.62C273.745 208.177 276.463 205.732 277.134 201.914C277.479 199.951 277.512 197.838 277.195 195.869C276.434 191.129 273.289 188.528 268.472 188.382C266.229 188.313 263.979 188.466 261.733 188.434C260.672 188.417 260.408 188.837 260.448 189.833C260.564 192.796 260.594 195.758 260.655 198.717Z" fill="white"/>
<path d="M305.983 212.418C301.917 212.505 297.854 212.597 293.789 212.665C293.428 212.671 293.063 212.509 292.698 212.424C292.793 212.03 292.779 211.561 292.998 211.262C293.828 210.132 294.013 208.905 293.974 207.531C293.798 201.219 293.658 194.911 293.574 188.599C293.554 187.189 293.321 185.933 292.408 184.816C292.187 184.546 291.992 184.038 292.106 183.778C292.207 183.547 292.747 183.41 293.096 183.4C300.869 183.215 308.643 183.065 316.413 182.876C317.204 182.857 317.598 183.104 317.728 183.895C317.927 185.09 318.213 186.268 318.402 187.463C318.457 187.808 318.301 188.182 318.246 188.547C317.913 188.488 317.507 188.53 317.263 188.351C315.973 187.407 314.538 187.29 312.998 187.346C308.899 187.489 304.798 187.56 300.697 187.609C299.746 187.619 299.352 187.883 299.421 188.905C299.534 190.611 299.538 192.326 299.541 194.038C299.544 194.771 299.824 195.057 300.563 195.034C303.844 194.943 307.129 194.96 310.401 194.764C311.283 194.712 312.156 194.1 312.982 193.648C314.027 193.075 314.317 193.185 314.352 194.357C314.401 196.105 314.443 197.85 314.459 199.598C314.469 200.643 314.072 200.913 313.256 200.295C311.969 199.322 310.573 199.159 309.027 199.234C306.322 199.361 303.609 199.397 300.898 199.41C299.999 199.413 299.619 199.654 299.671 200.63C299.778 202.658 299.802 204.693 299.808 206.727C299.811 207.535 300.052 207.87 300.921 207.847C305.983 207.707 311.048 207.665 316.107 207.463C316.992 207.427 317.848 206.766 318.727 206.425C319.069 206.291 319.447 206.242 319.804 206.151C319.873 206.509 320.036 206.877 319.993 207.219C319.844 208.492 319.571 209.751 319.453 211.024C319.372 211.89 319.017 212.157 318.167 212.167C314.112 212.222 310.046 212.33 305.983 212.418Z" fill="white"/>
<path d="M89.0594 187.913C92.1909 187.848 95.3225 187.691 98.4508 187.76C99.6226 187.786 100.834 188.196 101.944 188.645C105.964 190.266 107.793 193.613 107.435 198.473C107.146 202.418 104.607 205.283 100.391 206.272C99.1181 206.572 97.7933 206.731 96.4846 206.797C93.9228 206.92 91.3543 206.946 88.7892 206.972C87.9851 206.982 87.6173 207.229 87.6596 208.092C87.7377 209.73 87.6238 211.386 87.8256 213.004C87.9363 213.899 88.5418 214.73 88.8999 215.602C89.0398 215.941 89.297 216.403 89.1733 216.631C89.0431 216.872 88.5223 216.992 88.1674 217.005C85.9962 217.083 83.8217 217.125 81.6472 217.155C80.5046 217.171 80.2246 216.745 80.8854 215.827C81.7709 214.593 81.9629 213.268 81.9206 211.793C81.7448 205.488 81.6146 199.183 81.517 192.874C81.4942 191.578 81.2533 190.423 80.4362 189.387C80.1953 189.081 80.14 188.629 80 188.245C80.4167 188.118 80.8301 187.897 81.25 187.884C83.851 187.796 86.4519 187.757 89.0529 187.701C89.0561 187.773 89.0561 187.844 89.0594 187.913ZM87.448 197.327C87.4806 198.789 87.5229 200.25 87.5359 201.712C87.5392 202.327 87.7963 202.666 88.4246 202.646C91.4162 202.558 94.4175 202.581 97.3961 202.327C100.163 202.093 101.742 199.964 101.657 197.018C101.573 194.104 99.9189 192.122 97.1748 192.014C94.2223 191.901 91.2599 192.047 88.3042 192.073C87.562 192.08 87.3211 192.454 87.3504 193.16C87.409 194.547 87.4155 195.934 87.448 197.327Z" fill="white"/>
<path d="M203.536 204.073C203.715 204.702 203.885 205.073 203.917 205.454C204.139 208.162 202.928 210.288 201.079 212.101C199.164 213.976 196.834 215.102 194.197 215.512C190.131 216.144 186.153 215.815 182.4 214.012C179.132 212.443 176.879 209.894 175.652 206.489C174.236 202.573 174.128 198.582 175.44 194.633C177.266 189.145 181.358 186.257 186.866 185.212C190.909 184.444 194.887 184.535 198.595 186.658C199.506 187.182 200.304 186.71 201.101 186.283C202.576 185.496 202.801 185.632 202.82 187.299C202.849 189.298 202.885 191.293 202.872 193.292C202.869 193.634 202.641 193.976 202.514 194.317C202.192 194.145 201.798 194.044 201.56 193.79C197.996 189.998 193.578 188.823 188.591 189.724C183.757 190.6 180.854 194.226 180.724 199.493C180.684 201.108 180.867 202.794 181.309 204.344C182.618 208.907 186.769 211.463 191.922 211.134C196.534 210.838 200.157 208.842 202.752 205.001C202.915 204.744 203.139 204.532 203.536 204.073Z" fill="white"/>
<path d="M117.656 201.773C117.588 198.563 117.487 195.36 117.468 192.15C117.461 190.852 117.197 189.699 116.38 188.664C116.143 188.361 116.094 187.906 115.957 187.522C116.338 187.391 116.716 187.167 117.103 187.15C119.242 187.072 121.38 187.03 123.519 187.014C123.871 187.01 124.401 187.115 124.531 187.346C124.662 187.58 124.483 188.104 124.277 188.381C123.415 189.533 123.242 190.796 123.281 192.206C123.464 198.511 123.597 204.82 123.685 211.129C123.705 212.538 123.942 213.791 124.854 214.905C125.069 215.165 125.254 215.696 125.13 215.927C125.007 216.158 124.479 216.262 124.124 216.272C121.95 216.347 119.775 216.386 117.604 216.422C116.442 216.441 116.175 216.044 116.842 215.107C117.725 213.87 117.936 212.548 117.878 211.073C117.744 207.974 117.721 204.872 117.656 201.773Z" fill="white"/>
</g>
</g>
</svg>
